{
.appVersion = "3134";
classes = (
{
code = "Euro bar cent colon comma degree divide dollar eight equal five four greater less minus multiply nine numbersign one paragraph percent period periodcentered plus plusminus quotedbl quotesingle section semicolon seven six slash sterling three two underscore yen zero";
name = tnum1;
},
{
code = "Euro.tnum bar.tnum cent.tnum colon.tnum comma.tnum degree.tnum divide.tnum dollar.tnum eight.tnum equal.tnum five.tnum four.tnum greater.tnum less.tnum minus.tnum multiply.tnum nine.tnum numbersign.tnum one.tnum paragraph.tnum percent.tnum period.tnum periodcentered.tnum plus.tnum plusminus.tnum quotedbl.tnum quotesingle.tnum section.tnum semicolon.tnum seven.tnum six.tnum slash.tnum sterling.tnum three.tnum two.tnum underscore.tnum yen.tnum zero.tnum";
name = tnum2;
}
);
copyright = "Copyright 2020 The Libre Caslon Text Project Authors (https://github.com/thundernixon/Libre-Caslon)";
customParameters = (
{
name = openTypeOS2Panose;
value = (
2,
2,
6,
2,
6,
3,
0,
0,
0,
4
);
},
{
name = openTypeOS2StrikeoutPosition;
value = 250;
},
{
name = openTypeOS2StrikeoutSize;
value = 50;
},
{
name = openTypeOS2SubscriptXOffset;
value = 0;
},
{
name = openTypeOS2SubscriptXSize;
value = 700;
},
{
name = openTypeOS2SubscriptYOffset;
value = 140;
},
{
name = openTypeOS2SubscriptYSize;
value = 650;
},
{
name = openTypeOS2SuperscriptXOffset;
value = 0;
},
{
name = openTypeOS2SuperscriptXSize;
value = 700;
},
{
name = openTypeOS2SuperscriptYOffset;
value = 477;
},
{
name = openTypeOS2SuperscriptYSize;
value = 650;
},
{
name = fsType;
value = (
);
},
{
name = blueFuzz;
value = 0;
},
{
name = blueScale;
value = 0.01667;
},
{
name = blueShift;
value = 10;
},
{
name = "Use Typo Metrics";
value = 1;
},
{
name = "Disable Last Change";
value = 1;
},
{
name = "Use Line Breaks";
value = 1;
},
{
name = license;

glyphs = (
{
glyphname = A;
layers = (
{
anchors = (
{
name = bottom;
position = "{970, 0}";
},
{
name = ogonekcap;
position = "{1275, 0}";
},
{
name = topcap;
position = "{618, 1643}";
}
);
layerId = "FA6D65B5-4623-4FAC-A199-3F662257AC29";
paths = (
{
closed = 1;
nodes = (
"188 292 LINE SMOOTH",
"138 132 OFFCURVE",
"117 105 OFFCURVE",
"-31 73 CURVE",
"-31 0 LINE",
"458 0 LINE",
"458 73 LINE",
"286 105 OFFCURVE",
"254 146 OFFCURVE",
"298 289 CURVE SMOOTH",
"522 1021 LINE",
"529 1021 LINE",
"762 226 LINE SMOOTH",
"801 93 OFFCURVE",
"760 78 OFFCURVE",
"622 73 CURVE",
"622 0 LINE",
"1275 0 LINE",
"1275 73 LINE",
"1159 83 OFFCURVE",
"1132 104 OFFCURVE",
"1103 193 CURVE SMOOTH",
"664 1523 LINE",
"574 1523 LINE"
);
},
{
closed = 1;
nodes = (
"802 440 LINE",
"802 552 LINE",
"291 552 LINE",
"291 440 LINE"
);
}
);
width = 1237;
},
{
anchors = (
{
name = bottom;
position = "{950, 0}";
},
{
name = ogonekcap;
position = "{1203, 0}";
},
{
name = topcap;
position = "{598, 1643}";
}
);
layerId = "7C8D72FA-6E62-4564-8BB2-D9F9BC4EB15A";
paths = (
{
closed = 1;
nodes = (
"190 269 LINE SMOOTH",
"149 129 OFFCURVE",
"128 82 OFFCURVE",
"-37 48 CURVE",
"-37 0 LINE",
"414 0 LINE",
"414 48 LINE",
"262 77 OFFCURVE",
"227 124 OFFCURVE",
"262 246 CURVE SMOOTH",
"533 1189 LINE",
"538 1189 LINE",
"826 202 LINE SMOOTH",
"867 61 OFFCURVE",
"835 59 OFFCURVE",
"680 48 CURVE",
"680 0 LINE",
"1203 0 LINE",
"1203 48 LINE",
"1092 59 OFFCURVE",
"1069 79 OFFCURVE",
"1041 170 CURVE SMOOTH",
"630 1523 LINE",
"554 1523 LINE"
);
},
{
closed = 1;
nodes = (
"760 544 LINE",
"760 628 LINE",
"322 628 LINE",
"322 544 LINE"
);
}
);
width = 1186;
}
);
leftKerningGroup = A;
rightKerningGroup = A;
unicode = 0041;
},
{
glyphname = Aringacute;
layers = (
{
components = (
{
name = A;
}
);
layerId = "FA6D65B5-4623-4FAC-A199-3F662257AC29";
paths = (
{
closed = 1;
nodes = (
"469 1666 LINE",
"486 1651 OFFCURVE",
"510 1643 OFFCURVE",
"535 1643 CURVE SMOOTH",
"590 1643 OFFCURVE",
"630 1685 OFFCURVE",
"643 1746 CURVE",
"714 1771 OFFCURVE",
"729 1809 OFFCURVE",
"729 1848 CURVE SMOOTH",
"729 1895 OFFCURVE",
"690 1917 OFFCURVE",
"658 1917 CURVE SMOOTH",
"637 1917 OFFCURVE",
"619 1909 OFFCURVE",
"600 1895 CURVE",
"582 1911 OFFCURVE",
"558 1920 OFFCURVE",
"535 1920 CURVE SMOOTH",
"472 1920 OFFCURVE",
"425 1860 OFFCURVE",
"425 1781 CURVE SMOOTH",
"425 1765 OFFCURVE",
"426 1751 OFFCURVE",
"430 1738 CURVE",
"361 1674 LINE",
"378 1633 LINE"
);
},
{
closed = 1;
nodes = (
"517 1742 OFFCURVE",
"504 1757 OFFCURVE",
"504 1781 CURVE SMOOTH",
"504 1804 OFFCURVE",
"517 1821 OFFCURVE",
"535 1821 CURVE SMOOTH",
"554 1821 OFFCURVE",
"566 1804 OFFCURVE",
"566 1781 CURVE SMOOTH",
"566 1757 OFFCURVE",
"554 1742 OFFCURVE",
"535 1742 CURVE SMOOTH"
);
}
);
width = 1237;
},
{
associatedMasterId = "FA6D65B5-4623-4FAC-A199-3F662257AC29";
components = (
{
name = A;
}
);
layerId = "CBD44848-52BD-4DC5-BFA6-577546B7224D";
paths = (
{
closed = 1;
nodes = (
"599 1666 LINE",
"620 1651 OFFCURVE",
"648 1643 OFFCURVE",
"681 1643 CURVE SMOOTH",
"747 1643 OFFCURVE",
"799 1685 OFFCURVE",
"815 1746 CURVE",
"904 1771 OFFCURVE",
"922 1809 OFFCURVE",
"922 1848 CURVE SMOOTH",
"922 1895 OFFCURVE",
"875 1917 OFFCURVE",
"836 1917 CURVE SMOOTH",
"807 1917 OFFCURVE",
"786 1909 OFFCURVE",
"762 1895 CURVE",
"738 1911 OFFCURVE",
"710 1920 OFFCURVE",
"681 1920 CURVE SMOOTH",
"601 1920 OFFCURVE",
"542 1860 OFFCURVE",
"542 1781 CURVE SMOOTH",
"542 1765 OFFCURVE",
"545 1751 OFFCURVE",
"549 1738 CURVE",
"463 1674 LINE",
"485 1633 LINE"
);
},
{
closed = 1;
nodes = (
"639 1711 OFFCURVE",
"611 1740 OFFCURVE",
"611 1781 CURVE SMOOTH",
"611 1823 OFFCURVE",
"639 1850 OFFCURVE",
"681 1850 CURVE SMOOTH",
"722 1850 OFFCURVE",
"750 1823 OFFCURVE",
"750 1781 CURVE SMOOTH",
"750 1740 OFFCURVE",
"722 1711 OFFCURVE",
"681 1711 CURVE SMOOTH"
);
}
);
width = 1472;
},
{
components = (
{
alignment = -1;
name = A;
}
);
layerId = "7C8D72FA-6E62-4564-8BB2-D9F9BC4EB15A";
paths = (
{
closed = 1;
nodes = (
"477 1666 LINE",
"494 1651 OFFCURVE",
"518 1643 OFFCURVE",
"543 1643 CURVE SMOOTH",
"597 1643 OFFCURVE",
"638 1685 OFFCURVE",
"651 1746 CURVE",
"722 1771 OFFCURVE",
"736 1809 OFFCURVE",
"736 1848 CURVE SMOOTH",
"736 1895 OFFCURVE",
"698 1917 OFFCURVE",
"667 1917 CURVE SMOOTH",
"645 1917 OFFCURVE",
"627 1909 OFFCURVE",
"609 1895 CURVE",
"589 1911 OFFCURVE",
"567 1920 OFFCURVE",
"543 1920 CURVE SMOOTH",
"480 1920 OFFCURVE",
"432 1860 OFFCURVE",
"432 1781 CURVE SMOOTH",
"432 1765 OFFCURVE",
"434 1751 OFFCURVE",
"438 1738 CURVE",
"370 1674 LINE",
"387 1633 LINE"
);
},
{
closed = 1;
nodes = (
"511 1716 OFFCURVE",
"491 1742 OFFCURVE",
"491 1781 CURVE SMOOTH",
"491 1821 OFFCURVE",
"511 1847 OFFCURVE",
"543 1847 CURVE SMOOTH",
"575 1847 OFFCURVE",
"596 1821 OFFCURVE",
"596 1781 CURVE SMOOTH",
"596 1742 OFFCURVE",
"575 1716 OFFCURVE",
"543 1716 CURVE SMOOTH"
);
}
);
width = 1186;
}
);
leftKerningGroup = A;
rightKerningGroup = A;
unicode = 01FA;
},
{
glyphname = AE;
layers = (
{
layerId = "FA6D65B5-4623-4FAC-A199-3F662257AC29";
paths = (
{
closed = 1;
nodes = (
"431 0 LINE",
"431 73 LINE",
"346 89 OFFCURVE",
"309 120 OFFCURVE",
"309 174 CURVE SMOOTH",
"309 204 OFFCURVE",
"322 242 OFFCURVE",
"340 289 CURVE SMOOTH",
"456 570 LINE",
"774 570 LINE",
"774 112 LINE",
"639 73 LINE",
"639 0 LINE",
"1600 0 LINE",
"1667 463 LINE",
"1586 463 LINE",
"1549 334 OFFCURVE",
"1509 229 OFFCURVE",
"1441 113 CURVE",
"1046 113 LINE",
"1046 752 LINE",
"1246 752 LINE",
"1282 679 OFFCURVE",
"1302 607 OFFCURVE",
"1314 529 CURVE",
"1381 529 LINE",
"1381 1082 LINE",
"1314 1082 LINE",
"1302 1003 OFFCURVE",
"1282 933 OFFCURVE",
"1246 859 CURVE",
"1046 859 LINE",
"1046 1412 LINE",
"1450 1412 LINE",
"1504 1308 OFFCURVE",
"1548 1193 OFFCURVE",
"1573 1088 CURVE",
"1639 1088 LINE",
"1609 1523 LINE",
"608 1523 LINE",
"608 1470 LINE",
"706 1435 LINE",
"225 292 LINE SMOOTH",
"162 143 OFFCURVE",
"119 104 OFFCURVE",
"-43 73 CURVE",
"-43 0 LINE"
);
},
{
closed = 1;
nodes = (
"768 1320 LINE",
"774 1320 LINE",
"774 677 LINE",
"500 677 LINE"
);
}
);
width = 1731;
},
{
associatedMasterId = "FA6D65B5-4623-4FAC-A199-3F662257AC29";
layerId = "CBD44848-52BD-4DC5-BFA6-577546B7224D";
paths = (
{
closed = 1;
nodes = (
"510 0 LINE",
"510 45 LINE",
"388 66 OFFCURVE",
"334 86 OFFCURVE",
"334 143 CURVE SMOOTH",
"334 172 OFFCURVE",
"349 211 OFFCURVE",
"375 261 CURVE SMOOTH",
"540 578 LINE",
"933 578 LINE",
"933 83 LINE",
"763 45 LINE",
"763 0 LINE",
"1856 0 LINE",
"1930 463 LINE",
"1864 463 LINE",
"1821 334 OFFCURVE",
"1777 208 OFFCURVE",
"1698 78 CURVE",
"1140 78 LINE",
"1140 727 LINE",
"1495 727 LINE",
"1531 648 OFFCURVE",
"1556 568 OFFCURVE",
"1567 489 CURVE",
"1614 489 LINE",
"1614 1043 LINE",
"1567 1043 LINE",
"1555 964 OFFCURVE",
"1531 886 OFFCURVE",
"1495 805 CURVE",
"1140 805 LINE",
"1140 1445 LINE",
"1708 1445 LINE",
"1773 1331 OFFCURVE",
"1818 1201 OFFCURVE",
"1850 1088 CURVE",
"1898 1088 LINE",
"1864 1523 LINE",
"744 1523 LINE",
"744 1479 LINE",
"912 1445 LINE",
"291 265 LINE SMOOTH",
"216 122 OFFCURVE",
"169 77 OFFCURVE",
"-44 45 CURVE",
"-44 0 LINE"
);
},
{
closed = 1;
nodes = (
"922 1320 LINE",
"930 1320 LINE",
"930 656 LINE",
"582 656 LINE"
);
}
);
width = 2037;
},
{
layerId = "7C8D72FA-6E62-4564-8BB2-D9F9BC4EB15A";
paths = (
{
closed = 1;
nodes = (
"412 0 LINE",
"412 48 LINE",
"315 68 OFFCURVE",
"273 91 OFFCURVE",
"273 147 CURVE SMOOTH",
"273 176 OFFCURVE",
"285 214 OFFCURVE",
"306 265 CURVE SMOOTH",
"435 577 LINE",
"750 577 LINE",
"750 88 LINE",
"614 48 LINE",
"614 0 LINE",
"1501 0 LINE",
"1561 463 LINE",
"1504 463 LINE",
"1468 334 OFFCURVE",
"1434 211 OFFCURVE",
"1370 83 CURVE",
"930 83 LINE",
"930 730 LINE",
"1202 730 LINE",
"1233 652 OFFCURVE",
"1252 573 OFFCURVE",
"1262 494 CURVE",
"1303 494 LINE",
"1303 1049 LINE",
"1262 1049 LINE",
"1251 968 OFFCURVE",
"1233 891 OFFCURVE",
"1202 812 CURVE",
"930 812 LINE",
"930 1441 LINE",
"1378 1441 LINE",
"1430 1329 OFFCURVE",
"1467 1200 OFFCURVE",
"1494 1088 CURVE",
"1534 1088 LINE",
"1507 1523 LINE",
"597 1523 LINE",
"597 1477 LINE",
"727 1444 LINE",
"232 269 LINE SMOOTH",
"171 126 OFFCURVE",
"134 81 OFFCURVE",
"-36 48 CURVE",
"-36 0 LINE"
);
},
{
closed = 1;
nodes = (
"742 1320 LINE",
"748 1320 LINE",
"748 660 LINE",
"470 660 LINE"
);
}
);
width = 1642;
}
);
leftKerningGroup = AE;
rightKerningGroup = E;
unicode = 00C6;
},
{
glyphname = B;
layers = (
{
layerId = "FA6D65B5-4623-4FAC-A199-3F662257AC29";
paths = (
{
closed = 1;
nodes = (
"629 0 LINE SMOOTH",
"819 0 OFFCURVE",
"925 29 OFFCURVE",
"1006 104 CURVE SMOOTH",
"1078 172 OFFCURVE",
"1123 283 OFFCURVE",
"1123 404 CURVE SMOOTH",
"1123 636 OFFCURVE",
"981 801 OFFCURVE",
"768 828 CURVE",
"768 836 LINE",
"956 877 OFFCURVE",
"1062 994 OFFCURVE",
"1062 1154 CURVE SMOOTH",
"1062 1271 OFFCURVE",
"1015 1377 OFFCURVE",
"933 1443 CURVE SMOOTH",
"862 1498 OFFCURVE",
"760 1523 OFFCURVE",
"600 1523 CURVE SMOOTH",
"66 1523 LINE",
"66 1451 LINE",
"202 1409 LINE",
"202 117 LINE",
"66 73 LINE",
"66 0 LINE"
);
},
{
closed = 1;
nodes = (
"502 105 OFFCURVE",
"474 130 OFFCURVE",
"474 223 CURVE SMOOTH",
"474 758 LINE",
"531 758 LINE",
"731 758 OFFCURVE",
"826 653 OFFCURVE",
"826 421 CURVE SMOOTH",
"826 204 OFFCURVE",
"752 105 OFFCURVE",
"595 105 CURVE SMOOTH"
);
},
{
closed = 1;
nodes = (
"474 1416 LINE",
"502 1416 LINE SMOOTH",
"592 1416 OFFCURVE",
"661 1396 OFFCURVE",
"706 1350 CURVE SMOOTH",
"749 1307 OFFCURVE",
"773 1239 OFFCURVE",
"773 1146 CURVE SMOOTH",
"773 983 OFFCURVE",
"702 887 OFFCURVE",
"575 871 CURVE SMOOTH",
"554 867 OFFCURVE",
"529 865 OFFCURVE",
"491 865 CURVE SMOOTH",
"474 865 LINE"
);
}
);
width = 1190;
},
{
associatedMasterId = "FA6D65B5-4623-4FAC-A199-3F662257AC29";
layerId = "CBD44848-52BD-4DC5-BFA6-577546B7224D";
paths = (
{
closed = 1;
nodes = (
"716 0 LINE SMOOTH",
"933 0 OFFCURVE",
"1052 29 OFFCURVE",
"1143 104 CURVE SMOOTH",
"1226 172 OFFCURVE",
"1276 283 OFFCURVE",
"1276 404 CURVE SMOOTH",
"1276 620 OFFCURVE",
"1120 782 OFFCURVE",
"883 807 CURVE",
"883 815 LINE",
"1093 859 OFFCURVE",
"1209 982 OFFCURVE",
"1209 1154 CURVE SMOOTH",
"1209 1271 OFFCURVE",
"1154 1377 OFFCURVE",
"1061 1443 CURVE SMOOTH",
"980 1498 OFFCURVE",
"865 1523 OFFCURVE",
"683 1523 CURVE SMOOTH",
"97 1523 LINE",
"97 1479 LINE",
"265 1441 LINE",
"265 83 LINE",
"97 45 LINE",
"97 0 LINE"
);
},
{
closed = 1;
nodes = (
"512 75 OFFCURVE",
"473 101 OFFCURVE",
"473 193 CURVE SMOOTH",
"473 770 LINE",
"641 770 LINE",
"919 770 OFFCURVE",
"1047 659 OFFCURVE",
"1047 421 CURVE SMOOTH",
"1047 184 OFFCURVE",
"920 75 OFFCURVE",
"648 75 CURVE SMOOTH"
);
},
{
closed = 1;
nodes = (
"473 1445 LINE",
"644 1445 LINE SMOOTH",
"788 1445 OFFCURVE",
"857 1424 OFFCURVE",
"914 1366 CURVE SMOOTH",
"966 1313 OFFCURVE",
"987 1253 OFFCURVE",
"987 1160 CURVE SMOOTH",
"987 980 OFFCURVE",
"906 871 OFFCURVE",
"762 854 CURVE SMOOTH",
"719 851 OFFCURVE",
"672 849 OFFCURVE",
"596 849 CURVE SMOOTH",
"473 849 LINE"
);
}
);
width = 1383;
},
{
layerId = "7C8D72FA-6E62-4564-8BB2-D9F9BC4EB15A";
paths = (
{
closed = 1;
nodes = (
"580 0 LINE SMOOTH",
"755 0 OFFCURVE",
"853 29 OFFCURVE",
"926 104 CURVE SMOOTH",
"994 172 OFFCURVE",
"1034 283 OFFCURVE",
"1034 404 CURVE SMOOTH",
"1034 622 OFFCURVE",
"907 784 OFFCURVE",
"715 811 CURVE",
"715 818 LINE",
"886 861 OFFCURVE",
"980 983 OFFCURVE",
"980 1154 CURVE SMOOTH",
"980 1271 OFFCURVE",
"935 1377 OFFCURVE",
"859 1443 CURVE SMOOTH",
"794 1498 OFFCURVE",
"701 1523 OFFCURVE",
"554 1523 CURVE SMOOTH",
"75 1523 LINE",
"75 1475 LINE",
"211 1436 LINE",
"211 88 LINE",
"75 48 LINE",
"75 0 LINE"
);
},
{
closed = 1;
nodes = (
"423 79 OFFCURVE",
"391 105 OFFCURVE",
"391 197 CURVE SMOOTH",
"391 769 LINE",
"515 769 LINE",
"734 769 OFFCURVE",
"835 659 OFFCURVE",
"835 421 CURVE SMOOTH",
"835 187 OFFCURVE",
"738 79 OFFCURVE",
"529 79 CURVE SMOOTH"
);
},
{
closed = 1;
nodes = (
"391 1442 LINE",
"513 1442 LINE SMOOTH",
"625 1442 OFFCURVE",
"682 1421 OFFCURVE",
"728 1363 CURVE SMOOTH",
"770 1312 OFFCURVE",
"788 1251 OFFCURVE",
"788 1157 CURVE SMOOTH",
"788 980 OFFCURVE",
"722 873 OFFCURVE",
"606 857 CURVE SMOOTH",
"572 853 OFFCURVE",
"537 851 OFFCURVE",
"479 851 CURVE SMOOTH",
"391 851 LINE"
);
}
);
width = 1118;
}
);
leftKerningGroup = I;
unicode = 0042;
},
{
glyphname = C;
layers = (
{
anchors = (
{
name = bottom;
position = "{699, 0}";
},
{
name = topcap;
position = "{698, 1643}";
}
);
layerId = "FA6D65B5-4623-4FAC-A199-3F662257AC29";
paths = (
{
closed = 1;
nodes = (
"829 -21 OFFCURVE",
"945 25 OFFCURVE",
"1069 130 CURVE",
"1133 0 LINE",
"1192 0 LINE",
"1192 549 LINE",
"1121 549 LINE",
"1106 451 OFFCURVE",
"1078 367 OFFCURVE",
"1042 302 CURVE SMOOTH",
"971 172 OFFCURVE",
"863 99 OFFCURVE",
"734 99 CURVE SMOOTH",
"498 99 OFFCURVE",
"370 334 OFFCURVE",
"370 772 CURVE SMOOTH",
"370 1206 OFFCURVE",
"496 1427 OFFCURVE",
"740 1427 CURVE SMOOTH",
"872 1427 OFFCURVE",
"973 1362 OFFCURVE",
"1046 1219 CURVE SMOOTH",
"1073 1170 OFFCURVE",
"1095 1109 OFFCURVE",
"1117 1039 CURVE",
"1192 1039 LINE",
"1192 1523 LINE",
"1144 1523 LINE",
"1075 1422 LINE",
"1069 1422 LINE",
"965 1500 OFFCURVE",
"827 1544 OFFCURVE",
"695 1544 CURVE SMOOTH",
"329 1544 OFFCURVE",
"71 1216 OFFCURVE",
"71 752 CURVE SMOOTH",
"71 292 OFFCURVE",
"323 -21 OFFCURVE",
"690 -21 CURVE SMOOTH"
);
}
);
width = 1287;
},
{
anchors = (
{
name = bottom;
position = "{857, 0}";
},
{
name = topcap;
position = "{857, 1643}";
}
);
associatedMasterId = "FA6D65B5-4623-4FAC-A199-3F662257AC29";
layerId = "CBD44848-52BD-4DC5-BFA6-577546B7224D";
paths = (
{
closed = 1;
nodes = (
"989 -21 OFFCURVE",
"1123 25 OFFCURVE",
"1263 130 CURVE",
"1354 0 LINE",
"1401 0 LINE",
"1401 518 LINE",
"1348 518 LINE",
"1328 413 OFFCURVE",
"1292 325 OFFCURVE",
"1242 256 CURVE SMOOTH",
"1158 132 OFFCURVE",
"1029 70 OFFCURVE",
"871 70 CURVE SMOOTH",
"547 70 OFFCURVE",
"360 325 OFFCURVE",
"360 766 CURVE SMOOTH",
"360 1208 OFFCURVE",
"542 1457 OFFCURVE",
"869 1457 CURVE SMOOTH",
"1044 1457 OFFCURVE",
"1168 1398 OFFCURVE",
"1261 1247 CURVE SMOOTH",
"1291 1198 OFFCURVE",
"1318 1140 OFFCURVE",
"1341 1069 CURVE",
"1401 1069 LINE",
"1401 1523 LINE",
"1366 1523 LINE",
"1269 1422 LINE",
"1261 1422 LINE",
"1142 1500 OFFCURVE",
"989 1544 OFFCURVE",
"836 1544 CURVE SMOOTH",
"411 1544 OFFCURVE",
"112 1216 OFFCURVE",
"112 752 CURVE SMOOTH",
"112 295 OFFCURVE",
"402 -21 OFFCURVE",
"828 -21 CURVE SMOOTH"
);
}
);
width = 1531;
},
{
anchors = (
{
name = bottom;
position = "{687, 0}";
},
{
name = topcap;
position = "{687, 1643}";
}
);
layerId = "7C8D72FA-6E62-4564-8BB2-D9F9BC4EB15A";
paths = (
{
closed = 1;
nodes = (
"797 -21 OFFCURVE",
"905 25 OFFCURVE",
"1018 130 CURVE",
"1090 0 LINE",
"1130 0 LINE",
"1130 523 LINE",
"1084 523 LINE",
"1069 419 OFFCURVE",
"1040 330 OFFCURVE",
"1001 261 CURVE SMOOTH",
"932 138 OFFCURVE",
"828 74 OFFCURVE",
"701 74 CURVE SMOOTH",
"445 74 OFFCURVE",
"298 326 OFFCURVE",
"298 767 CURVE SMOOTH",
"298 1208 OFFCURVE",
"442 1452 OFFCURVE",
"701 1452 CURVE SMOOTH",
"841 1452 OFFCURVE",
"938 1393 OFFCURVE",
"1014 1244 CURVE SMOOTH",
"1038 1194 OFFCURVE",
"1060 1137 OFFCURVE",
"1078 1064 CURVE",
"1130 1064 LINE",
"1130 1523 LINE",
"1099 1523 LINE",
"1022 1422 LINE",
"1016 1422 LINE",
"920 1500 OFFCURVE",
"797 1544 OFFCURVE",
"671 1544 CURVE SMOOTH",
"329 1544 OFFCURVE",
"86 1216 OFFCURVE",
"86 752 CURVE SMOOTH",
"86 295 OFFCURVE",
"322 -21 OFFCURVE",
"666 -21 CURVE SMOOTH"
);
}
);
width = 1234;
}
);
leftKerningGroup = C;
rightKerningGroup = C;
unicode = 0043;
},
{
glyphname = D;
layers = (
{
anchors = (
{
name = bottom;
position = "{652, 0}";
},
{
name = topcap;
position = "{650, 1643}";
}
);
layerId = "FA6D65B5-4623-4FAC-A199-3F662257AC29";
paths = (
{
closed = 1;
nodes = (
"652 0 LINE",
"831 0 OFFCURVE",
"946 33 OFFCURVE",
"1052 117 CURVE SMOOTH",
"1212 244 OFFCURVE",
"1318 487 OFFCURVE",
"1318 763 CURVE SMOOTH",
"1318 1033 OFFCURVE",
"1218 1252 OFFCURVE",
"1064 1379 CURVE SMOOTH",
"936 1487 OFFCURVE",
"773 1523 OFFCURVE",
"498 1523 CURVE SMOOTH",
"65 1523 LINE",
"65 1451 LINE",
"202 1414 LINE",
"202 113 LINE",
"65 75 LINE",
"65 0 LINE"
);
},
{
closed = 1;
nodes = (
"518 107 OFFCURVE",
"474 143 OFFCURVE",
"474 226 CURVE SMOOTH",
"474 1414 LINE",
"616 1414 LINE SMOOTH",
"750 1414 OFFCURVE",
"847 1368 OFFCURVE",
"910 1271 CURVE SMOOTH",
"981 1164 OFFCURVE",
"1014 1005 OFFCURVE",
"1014 763 CURVE SMOOTH",
"1014 518 OFFCURVE",
"981 344 OFFCURVE",
"910 240 CURVE SMOOTH",
"849 149 OFFCURVE",
"758 107 OFFCURVE",
"634 107 CURVE SMOOTH"
);
}
);
width = 1390;
},
{
anchors = (
{
name = bottom;
position = "{812, 0}";
},
{
name = topcap;
position = "{812, 1643}";
}
);
associatedMasterId = "FA6D65B5-4623-4FAC-A199-3F662257AC29";
layerId = "CBD44848-52BD-4DC5-BFA6-577546B7224D";
paths = (
{
closed = 1;
nodes = (
"760 0 LINE",
"958 0 OFFCURVE",
"1082 33 OFFCURVE",
"1198 117 CURVE SMOOTH",
"1381 252 OFFCURVE",
"1490 489 OFFCURVE",
"1490 758 CURVE SMOOTH",
"1490 1018 OFFCURVE",
"1390 1242 OFFCURVE",
"1211 1379 CURVE SMOOTH",
"1073 1484 OFFCURVE",
"904 1523 OFFCURVE",
"590 1523 CURVE SMOOTH",
"97 1523 LINE",
"97 1479 LINE",
"265 1441 LINE",
"265 83 LINE",
"97 45 LINE",
"97 0 LINE"
);
},
{
closed = 1;
nodes = (
"523 75 OFFCURVE",
"473 104 OFFCURVE",
"473 193 CURVE SMOOTH",
"473 1445 LINE",
"630 1445 LINE SMOOTH",
"851 1445 OFFCURVE",
"974 1406 OFFCURVE",
"1076 1300 CURVE SMOOTH",
"1185 1183 OFFCURVE",
"1242 1005 OFFCURVE",
"1242 782 CURVE SMOOTH",
"1242 560 OFFCURVE",
"1185 366 OFFCURVE",
"1080 235 CURVE SMOOTH",
"985 120 OFFCURVE",
"873 75 OFFCURVE",
"679 75 CURVE SMOOTH"
);
}
);
width = 1604;
},
{
anchors = (
{
name = bottom;
position = "{650, 0}";
},
{
name = topcap;
position = "{650, 1643}";
}
);
layerId = "7C8D72FA-6E62-4564-8BB2-D9F9BC4EB15A";
paths = (
{
closed = 1;
nodes = (
"614 0 LINE",
"774 0 OFFCURVE",
"877 33 OFFCURVE",
"971 117 CURVE SMOOTH",
"1119 251 OFFCURVE",
"1209 489 OFFCURVE",
"1209 759 CURVE SMOOTH",
"1209 1020 OFFCURVE",
"1126 1244 OFFCURVE",
"982 1379 CURVE SMOOTH",
"869 1484 OFFCURVE",
"730 1523 OFFCURVE",
"474 1523 CURVE SMOOTH",
"75 1523 LINE",
"75 1475 LINE",
"211 1437 LINE",
"211 88 LINE",
"75 50 LINE",
"75 0 LINE"
);
},
{
closed = 1;
nodes = (
"432 79 OFFCURVE",
"391 108 OFFCURVE",
"391 198 CURVE SMOOTH",
"391 1441 LINE",
"518 1441 LINE SMOOTH",
"690 1441 OFFCURVE",
"789 1400 OFFCURVE",
"867 1297 CURVE SMOOTH",
"953 1180 OFFCURVE",
"997 1005 OFFCURVE",
"997 780 CURVE SMOOTH",
"997 555 OFFCURVE",
"953 364 OFFCURVE",
"870 236 CURVE SMOOTH",
"796 124 OFFCURVE",
"706 79 OFFCURVE",
"555 79 CURVE SMOOTH"
);
}
);
width = 1297;
}
);
leftKerningGroup = I;
rightKerningGroup = D;
unicode = 0044;
},
{
glyphname = Eth;
layers = (
{
layerId = "FA6D65B5-4623-4FAC-A199-3F662257AC29";
paths = (
{
closed = 1;
nodes = (
"652 0 LINE SMOOTH",
"831 0 OFFCURVE",
"946 33 OFFCURVE",
"1052 117 CURVE SMOOTH",
"1212 245 OFFCURVE",
"1318 487 OFFCURVE",
"1318 763 CURVE SMOOTH",
"1318 1033 OFFCURVE",
"1218 1251 OFFCURVE",
"1064 1379 CURVE SMOOTH",
"936 1487 OFFCURVE",
"773 1523 OFFCURVE",
"498 1523 CURVE SMOOTH",
"65 1523 LINE",
"65 1451 LINE",
"202 1414 LINE",
"202 869 LINE",
"83 869 LINE",
"83 700 LINE",
"202 700 LINE",
"202 113 LINE",
"65 75 LINE",
"65 0 LINE"
);
},
{
closed = 1;
nodes = (
"518 107 OFFCURVE",
"474 143 OFFCURVE",
"474 226 CURVE SMOOTH",
"474 700 LINE",
"695 700 LINE",
"695 869 LINE",
"474 869 LINE",
"474 1414 LINE",
"616 1414 LINE SMOOTH",
"750 1414 OFFCURVE",
"847 1368 OFFCURVE",
"910 1271 CURVE SMOOTH",
"981 1164 OFFCURVE",
"1014 1005 OFFCURVE",
"1014 763 CURVE SMOOTH",
"1014 518 OFFCURVE",
"981 344 OFFCURVE",
"910 240 CURVE SMOOTH",
"849 149 OFFCURVE",
"758 107 OFFCURVE",
"634 107 CURVE SMOOTH"
);
}
);
width = 1390;
},
{
associatedMasterId = "FA6D65B5-4623-4FAC-A199-3F662257AC29";
layerId = "CBD44848-52BD-4DC5-BFA6-577546B7224D";
paths = (
{
closed = 1;
nodes = (
"762 0 LINE SMOOTH",
"960 0 OFFCURVE",
"1084 33 OFFCURVE",
"1200 117 CURVE SMOOTH",
"1383 252 OFFCURVE",
"1492 489 OFFCURVE",
"1492 758 CURVE SMOOTH",
"1492 1018 OFFCURVE",
"1391 1242 OFFCURVE",
"1214 1379 CURVE SMOOTH",
"1076 1484 OFFCURVE",
"906 1523 OFFCURVE",
"592 1523 CURVE SMOOTH",
"99 1523 LINE",
"99 1479 LINE",
"267 1441 LINE",
"267 849 LINE",
"112 849 LINE",
"112 721 LINE",
"267 721 LINE",
"267 83 LINE",
"99 45 LINE",
"99 0 LINE"
);
},
{
closed = 1;
nodes = (
"524 75 OFFCURVE",
"474 104 OFFCURVE",
"474 193 CURVE SMOOTH",
"474 721 LINE",
"719 721 LINE",
"719 849 LINE",
"474 849 LINE",
"474 1445 LINE",
"631 1445 LINE SMOOTH",
"853 1445 OFFCURVE",
"976 1406 OFFCURVE",
"1077 1300 CURVE SMOOTH",
"1187 1183 OFFCURVE",
"1245 1005 OFFCURVE",
"1245 782 CURVE SMOOTH",
"1245 560 OFFCURVE",
"1187 366 OFFCURVE",
"1082 235 CURVE SMOOTH",
"987 120 OFFCURVE",
"875 75 OFFCURVE",
"681 75 CURVE SMOOTH"
);
}
);
width = 1605;
},
{
layerId = "7C8D72FA-6E62-4564-8BB2-D9F9BC4EB15A";
paths = (
{
closed = 1;
nodes = (
"615 0 LINE SMOOTH",
"777 0 OFFCURVE",
"878 33 OFFCURVE",
"972 117 CURVE SMOOTH",
"1121 251 OFFCURVE",
"1210 489 OFFCURVE",
"1210 759 CURVE SMOOTH",
"1210 1020 OFFCURVE",
"1126 1244 OFFCURVE",
"983 1379 CURVE SMOOTH",
"870 1484 OFFCURVE",
"731 1523 OFFCURVE",
"476 1523 CURVE SMOOTH",
"78 1523 LINE",
"78 1475 LINE",
"213 1437 LINE",
"213 852 LINE",
"89 852 LINE",
"89 719 LINE",
"213 719 LINE",
"213 88 LINE",
"78 50 LINE",
"78 0 LINE"
);
},
{
closed = 1;
nodes = (
"433 79 OFFCURVE",
"393 108 OFFCURVE",
"393 198 CURVE SMOOTH",
"393 719 LINE",
"590 719 LINE",
"590 852 LINE",
"393 852 LINE",
"393 1441 LINE",
"519 1441 LINE SMOOTH",
"692 1441 OFFCURVE",
"790 1400 OFFCURVE",
"868 1297 CURVE SMOOTH",
"954 1180 OFFCURVE",
"998 1005 OFFCURVE",
"998 780 CURVE SMOOTH",
"998 555 OFFCURVE",
"954 364 OFFCURVE",
"872 236 CURVE SMOOTH",
"798 124 OFFCURVE",
"707 79 OFFCURVE",
"557 79 CURVE SMOOTH"
);
}
);
width = 1298;
}
);
leftKerningGroup = I;
rightKerningGroup = D;
unicode = 00D0;
},
{
glyphname = Dcroat;
layers = (
{
layerId = "FA6D65B5-4623-4FAC-A199-3F662257AC29";
paths = (
{
closed = 1;
nodes = (
"652 0 LINE SMOOTH",
"831 0 OFFCURVE",
"946 33 OFFCURVE",
"1052 117 CURVE SMOOTH",
"1212 245 OFFCURVE",
"1318 487 OFFCURVE",
"1318 763 CURVE SMOOTH",
"1318 1033 OFFCURVE",
"1218 1251 OFFCURVE",
"1064 1379 CURVE SMOOTH",
"936 1487 OFFCURVE",
"773 1523 OFFCURVE",
"498 1523 CURVE SMOOTH",
"65 1523 LINE",
"65 1451 LINE",
"202 1414 LINE",
"202 869 LINE",
"83 869 LINE",
"83 700 LINE",
"202 700 LINE",
"202 113 LINE",
"65 75 LINE",
"65 0 LINE"
);
},
{
closed = 1;
nodes = (
"518 107 OFFCURVE",
"474 143 OFFCURVE",
"474 226 CURVE SMOOTH",
"474 700 LINE",
"695 700 LINE",
"695 869 LINE",
"474 869 LINE",
"474 1414 LINE",
"616 1414 LINE SMOOTH",
"750 1414 OFFCURVE",
"847 1368 OFFCURVE",
"910 1271 CURVE SMOOTH",
"981 1164 OFFCURVE",
"1014 1005 OFFCURVE",
"1014 763 CURVE SMOOTH",
"1014 518 OFFCURVE",
"981 344 OFFCURVE",
"910 240 CURVE SMOOTH",
"849 149 OFFCURVE",
"758 107 OFFCURVE",
"634 107 CURVE SMOOTH"
);
}
);
width = 1390;
},
{
associatedMasterId = "FA6D65B5-4623-4FAC-A199-3F662257AC29";
layerId = "CBD44848-52BD-4DC5-BFA6-577546B7224D";
paths = (
{
closed = 1;
nodes = (
"762 0 LINE SMOOTH",
"960 0 OFFCURVE",
"1084 33 OFFCURVE",
"1200 117 CURVE SMOOTH",
"1383 252 OFFCURVE",
"1492 489 OFFCURVE",
"1492 758 CURVE SMOOTH",
"1492 1018 OFFCURVE",
"1391 1242 OFFCURVE",
"1214 1379 CURVE SMOOTH",
"1076 1484 OFFCURVE",
"906 1523 OFFCURVE",
"592 1523 CURVE SMOOTH",
"99 1523 LINE",
"99 1479 LINE",
"267 1441 LINE",
"267 849 LINE",
"112 849 LINE",
"112 721 LINE",
"267 721 LINE",
"267 83 LINE",
"99 45 LINE",
"99 0 LINE"
);
},
{
closed = 1;
nodes = (
"524 75 OFFCURVE",
"474 104 OFFCURVE",
"474 193 CURVE SMOOTH",
"474 721 LINE",
"719 721 LINE",
"719 849 LINE",
"474 849 LINE",
"474 1445 LINE",
"631 1445 LINE SMOOTH",
"853 1445 OFFCURVE",
"976 1406 OFFCURVE",
"1077 1300 CURVE SMOOTH",
"1187 1183 OFFCURVE",
"1245 1005 OFFCURVE",
"1245 782 CURVE SMOOTH",
"1245 560 OFFCURVE",
"1187 366 OFFCURVE",
"1082 235 CURVE SMOOTH",
"987 120 OFFCURVE",
"875 75 OFFCURVE",
"681 75 CURVE SMOOTH"
);
}
);
width = 1605;
},
{
layerId = "7C8D72FA-6E62-4564-8BB2-D9F9BC4EB15A";
paths = (
{
closed = 1;
nodes = (
"615 0 LINE SMOOTH",
"777 0 OFFCURVE",
"878 33 OFFCURVE",
"972 117 CURVE SMOOTH",
"1121 251 OFFCURVE",
"1210 489 OFFCURVE",
"1210 759 CURVE SMOOTH",
"1210 1020 OFFCURVE",
"1126 1244 OFFCURVE",
"983 1379 CURVE SMOOTH",
"870 1484 OFFCURVE",
"731 1523 OFFCURVE",
"476 1523 CURVE SMOOTH",
"78 1523 LINE",
"78 1475 LINE",
"213 1437 LINE",
"213 852 LINE",
"89 852 LINE",
"89 719 LINE",
"213 719 LINE",
"213 88 LINE",
"78 50 LINE",
"78 0 LINE"
);
},
{
closed = 1;
nodes = (
"433 79 OFFCURVE",
"393 108 OFFCURVE",
"393 198 CURVE SMOOTH",
"393 719 LINE",
"590 719 LINE",
"590 852 LINE",
"393 852 LINE",
"393 1441 LINE",
"519 1441 LINE SMOOTH",
"692 1441 OFFCURVE",
"790 1400 OFFCURVE",
"868 1297 CURVE SMOOTH",
"954 1180 OFFCURVE",
"998 1005 OFFCURVE",
"998 780 CURVE SMOOTH",
"998 555 OFFCURVE",
"954 364 OFFCURVE",
"872 236 CURVE SMOOTH",
"798 124 OFFCURVE",
"707 79 OFFCURVE",
"557 79 CURVE SMOOTH"
);
}
);
width = 1298;
}
);
leftKerningGroup = I;
rightKerningGroup = D;
unicode = 0110;
},
{
glyphname = E;
layers = (
{
anchors = (
{
name = bottom;
position = "{612, 0}";
},
{
name = ogonekcap;
position = "{1027, 0}";
},
{
name = topcap;
position = "{602, 1643}";
}
);
layerId = "FA6D65B5-4623-4FAC-A199-3F662257AC29";
paths = (
{
closed = 1;
nodes = (
"1027 0 LINE",
"1094 463 LINE",
"1012 463 LINE",
"974 347 OFFCURVE",
"936 229 OFFCURVE",
"867 113 CURVE",
"474 113 LINE",
"474 1412 LINE",
"877 1412 LINE",
"931 1308 OFFCURVE",
"971 1192 OFFCURVE",
"999 1088 CURVE",
"1065 1088 LINE",
"1035 1523 LINE",
"66 1523 LINE",
"66 1451 LINE",
"202 1414 LINE",
"202 112 LINE",
"66 73 LINE",
"66 0 LINE"
);
},
{
closed = 1;
nodes = (
"808 529 LINE",
"808 1082 LINE",
"742 1082 LINE",
"729 1010 OFFCURVE",
"709 933 OFFCURVE",
"673 859 CURVE",
"448 859 LINE",
"448 752 LINE",
"673 752 LINE",
"706 679 OFFCURVE",
"729 601 OFFCURVE",
"742 529 CURVE"
);
}
);
width = 1158;
},
{
anchors = (
{
name = bottom;
position = "{708, 0}";
},
{
name = topcap;
position = "{705, 1643}";
}
);
associatedMasterId = "FA6D65B5-4623-4FAC-A199-3F662257AC29";
layerId = "CBD44848-52BD-4DC5-BFA6-577546B7224D";
paths = (
{
closed = 1;
nodes = (
"1189 0 LINE",
"1263 463 LINE",
"1198 463 LINE",
"1154 334 OFFCURVE",
"1110 208 OFFCURVE",
"1032 78 CURVE",
"473 78 LINE",
"473 1445 LINE",
"1041 1445 LINE",
"1107 1331 OFFCURVE",
"1152 1201 OFFCURVE",
"1183 1088 CURVE",
"1231 1088 LINE",
"1198 1523 LINE",
"97 1523 LINE",
"97 1479 LINE",
"265 1441 LINE",
"265 83 LINE",
"97 45 LINE",
"97 0 LINE"
);
},
{
closed = 1;
nodes = (
"948 526 LINE",
"948 1080 LINE",
"900 1080 LINE",
"887 1002 OFFCURVE",
"865 922 OFFCURVE",
"828 843 CURVE",
"446 843 LINE",
"446 763 LINE",
"828 763 LINE",
"865 685 OFFCURVE",
"888 606 OFFCURVE",
"900 526 CURVE"
);
}
);
width = 1369;
},
{
anchors = (
{
name = bottom;
position = "{573, 0}";
},
{
name = ogonekcap;
position = "{962, 0}";
},
{
name = topcap;
position = "{570, 1643}";
}
);
layerId = "7C8D72FA-6E62-4564-8BB2-D9F9BC4EB15A";
paths = (
{
closed = 1;
nodes = (
"962 0 LINE",
"1022 463 LINE",
"966 463 LINE",
"930 335 OFFCURVE",
"894 211 OFFCURVE",
"831 83 CURVE",
"391 83 LINE",
"391 1441 LINE",
"839 1441 LINE",
"892 1329 OFFCURVE",
"928 1200 OFFCURVE",
"954 1088 CURVE",
"996 1088 LINE",
"968 1523 LINE",
"75 1523 LINE",
"75 1475 LINE",
"211 1437 LINE",
"211 88 LINE",
"75 48 LINE",
"75 0 LINE"
);
},
{
closed = 1;
nodes = (
"765 526 LINE",
"765 1081 LINE",
"723 1081 LINE",
"711 1003 OFFCURVE",
"694 924 OFFCURVE",
"663 845 CURVE",
"369 845 LINE",
"369 762 LINE",
"663 762 LINE",
"694 684 OFFCURVE",
"713 606 OFFCURVE",
"723 526 CURVE"
);
}
);
width = 1103;
}
);
leftKerningGroup = I;
rightKerningGroup = E;
unicode = 0045;
},
{
glyphname = F;
layers = (
{
layerId = "FA6D65B5-4623-4FAC-A199-3F662257AC29";
paths = (
{
closed = 1;
nodes = (
"652 0 LINE",
"652 73 LINE",
"472 112 LINE",
"472 1412 LINE",
"887 1412 LINE",
"940 1308 OFFCURVE",
"975 1192 OFFCURVE",
"1001 1088 CURVE",
"1062 1088 LINE",
"1035 1523 LINE",
"66 1523 LINE",
"66 1451 LINE",
"202 1414 LINE",
"202 112 LINE",
"66 73 LINE",
"66 0 LINE"
);
},
{
closed = 1;
nodes = (
"806 529 LINE",
"806 1082 LINE",
"744 1082 LINE",
"734 1008 OFFCURVE",
"716 935 OFFCURVE",
"686 859 CURVE",
"451 859 LINE",
"451 754 LINE",
"686 754 LINE",
"714 679 OFFCURVE",
"734 603 OFFCURVE",
"744 529 CURVE"
);
}
);
width = 1083;
},
{
associatedMasterId = "FA6D65B5-4623-4FAC-A199-3F662257AC29";
layerId = "CBD44848-52BD-4DC5-BFA6-577546B7224D";
paths = (
{
closed = 1;
nodes = (
"698 0 LINE",
"698 45 LINE",
"473 83 LINE",
"473 1445 LINE",
"1041 1445 LINE",
"1107 1331 OFFCURVE",
"1152 1201 OFFCURVE",
"1183 1088 CURVE",
"1231 1088 LINE",
"1198 1523 LINE",
"97 1523 LINE",
"97 1479 LINE",
"265 1441 LINE",
"265 83 LINE",
"97 45 LINE",
"97 0 LINE"
);
},
{
closed = 1;
nodes = (
"948 526 LINE",
"948 1080 LINE",
"900 1080 LINE",
"887 1002 OFFCURVE",
"865 922 OFFCURVE",
"828 843 CURVE",
"446 843 LINE",
"446 763 LINE",
"828 763 LINE",
"865 685 OFFCURVE",
"888 606 OFFCURVE",
"900 526 CURVE"
);
}
);
width = 1286;
},
{
layerId = "7C8D72FA-6E62-4564-8BB2-D9F9BC4EB15A";
paths = (
{
closed = 1;
nodes = (
"571 0 LINE",
"571 48 LINE",
"391 88 LINE",
"391 1441 LINE",
"840 1441 LINE",
"893 1329 OFFCURVE",
"929 1200 OFFCURVE",
"954 1088 CURVE",
"996 1088 LINE",
"968 1523 LINE",
"75 1523 LINE",
"75 1475 LINE",
"211 1437 LINE",
"211 88 LINE",
"75 48 LINE",
"75 0 LINE"
);
},
{
closed = 1;
nodes = (
"765 526 LINE",
"765 1081 LINE",
"724 1081 LINE",
"712 1003 OFFCURVE",
"694 924 OFFCURVE",
"665 845 CURVE",
"370 845 LINE",
"370 762 LINE",
"665 762 LINE",
"694 684 OFFCURVE",
"714 606 OFFCURVE",
"724 526 CURVE"
);
}
);
width = 1036;
}
);
leftKerningGroup = I;
unicode = 0046;
},
{
glyphname = G;
layers = (
{
anchors = (
{
name = bottom;
position = "{694, 0}";
},
{
name = topcap;
position = "{714, 1643}";
}
);
layerId = "FA6D65B5-4623-4FAC-A199-3F662257AC29";
paths = (
{
closed = 1;
nodes = (
"870 -21 OFFCURVE",
"1086 58 OFFCURVE",
"1186 161 CURVE",
"1186 653 LINE",
"1326 691 LINE",
"1326 763 LINE",
"771 763 LINE",
"771 691 LINE",
"914 653 LINE",
"914 318 LINE SMOOTH",
"914 256 OFFCURVE",
"910 234 OFFCURVE",
"896 208 CURVE SMOOTH",
"858 138 OFFCURVE",
"779 94 OFFCURVE",
"687 94 CURVE SMOOTH",
"474 94 OFFCURVE",
"375 291 OFFCURVE",
"375 746 CURVE SMOOTH",
"375 1201 OFFCURVE",
"494 1424 OFFCURVE",
"735 1424 CURVE SMOOTH",
"902 1424 OFFCURVE",
"1002 1322 OFFCURVE",
"1112 1039 CURVE",
"1183 1039 LINE",
"1183 1523 LINE",
"1132 1523 LINE",
"1062 1422 LINE",
"1056 1422 LINE",
"979 1498 OFFCURVE",
"847 1544 OFFCURVE",
"706 1544 CURVE SMOOTH",
"334 1544 OFFCURVE",
"71 1211 OFFCURVE",
"71 738 CURVE SMOOTH",
"71 283 OFFCURVE",
"317 -21 OFFCURVE",
"687 -21 CURVE SMOOTH"
);
}
);
width = 1354;
},
{
anchors = (
{
name = bottom;
position = "{845, 0}";
},
{
name = topcap;
position = "{865, 1643}";
}
);
associatedMasterId = "FA6D65B5-4623-4FAC-A199-3F662257AC29";
layerId = "CBD44848-52BD-4DC5-BFA6-577546B7224D";
paths = (
{
closed = 1;
nodes = (
"1032 -21 OFFCURVE",
"1259 55 OFFCURVE",
"1368 161 CURVE",
"1368 681 LINE",
"1544 719 LINE",
"1544 763 LINE",
"982 763 LINE",
"982 719 LINE",
"1160 681 LINE",
"1160 295 LINE SMOOTH",
"1160 227 OFFCURVE",
"1156 212 OFFCURVE",
"1143 192 CURVE SMOOTH",
"1094 112 OFFCURVE",
"989 71 OFFCURVE",
"861 71 CURVE SMOOTH",
"526 71 OFFCURVE",
"362 295 OFFCURVE",
"362 744 CURVE SMOOTH",
"362 1211 OFFCURVE",
"539 1455 OFFCURVE",
"879 1455 CURVE SMOOTH",
"1099 1455 OFFCURVE",
"1217 1356 OFFCURVE",
"1344 1069 CURVE",
"1390 1069 LINE",
"1390 1523 LINE",
"1346 1523 LINE",
"1239 1422 LINE",
"1231 1422 LINE",
"1143 1500 OFFCURVE",
"1005 1544 OFFCURVE",
"851 1544 CURVE SMOOTH",
"424 1544 OFFCURVE",
"109 1203 OFFCURVE",
"109 744 CURVE SMOOTH",
"109 297 OFFCURVE",
"406 -21 OFFCURVE",
"828 -21 CURVE SMOOTH"
);
}
);
width = 1599;
},
{
anchors = (
{
name = bottom;
position = "{679, 0}";
},
{
name = topcap;
position = "{694, 1643}";
}
);
layerId = "7C8D72FA-6E62-4564-8BB2-D9F9BC4EB15A";
paths = (
{
closed = 1;
nodes = (
"831 -21 OFFCURVE",
"1017 55 OFFCURVE",
"1106 161 CURVE",
"1106 677 LINE",
"1247 715 LINE",
"1247 763 LINE",
"783 763 LINE",
"783 715 LINE",
"926 677 LINE",
"926 298 LINE SMOOTH",
"926 231 OFFCURVE",
"923 214 OFFCURVE",
"912 195 CURVE SMOOTH",
"874 115 OFFCURVE",
"790 74 OFFCURVE",
"689 74 CURVE SMOOTH",
"428 74 OFFCURVE",
"302 294 OFFCURVE",
"302 745 CURVE SMOOTH",
"302 1210 OFFCURVE",
"439 1451 OFFCURVE",
"706 1451 CURVE SMOOTH",
"882 1451 OFFCURVE",
"978 1352 OFFCURVE",
"1080 1064 CURVE",
"1121 1064 LINE",
"1121 1523 LINE",
"1084 1523 LINE",
"1001 1422 LINE",
"995 1422 LINE",
"923 1499 OFFCURVE",
"810 1544 OFFCURVE",
"685 1544 CURVE SMOOTH",
"338 1544 OFFCURVE",
"85 1204 OFFCURVE",
"85 744 CURVE SMOOTH",
"85 295 OFFCURVE",
"323 -21 OFFCURVE",
"665 -21 CURVE SMOOTH"
);
}
);
width = 1289;
}
);
leftKerningGroup = G;
rightKerningGroup = G;
unicode = 0047;
},
{
glyphname = H;
layers = (
{
anchors = (
{
name = bottom;
position = "{730, 0}";
},
{
name = topcap;
position = "{730, 1643}";
}
);
layerId = "FA6D65B5-4623-4FAC-A199-3F662257AC29";
paths = (
{
closed = 1;
nodes = (
"1396 0 LINE",
"1396 73 LINE",
"1262 115 LINE",
"1262 1412 LINE",
"1396 1451 LINE",
"1396 1523 LINE",
"855 1523 LINE",
"855 1451 LINE",
"990 1412 LINE",
"990 115 LINE",
"855 73 LINE",
"855 0 LINE"
);
},
{
closed = 1;
nodes = (
"606 0 LINE",
"606 73 LINE",
"474 115 LINE",
"474 1412 LINE",
"606 1451 LINE",
"606 1523 LINE",
"66 1523 LINE",
"66 1451 LINE",
"202 1412 LINE",
"202 115 LINE",
"66 73 LINE",
"66 0 LINE"
);
},
{
closed = 1;
nodes = (
"1148 747 LINE",
"1148 861 LINE",
"318 861 LINE",
"318 747 LINE"
);
}
);
width = 1461;
},
{
anchors = (
{
name = bottom;
position = "{854, 0}";
},
{
name = topcap;
position = "{854, 1643}";
}
);
associatedMasterId = "FA6D65B5-4623-4FAC-A199-3F662257AC29";
layerId = "CBD44848-52BD-4DC5-BFA6-577546B7224D";
paths = (
{
closed = 1;
nodes = (
"1607 0 LINE",
"1607 41 LINE",
"1430 83 LINE",
"1430 1441 LINE",
"1607 1474 LINE",
"1607 1523 LINE",
"1044 1523 LINE",
"1044 1479 LINE",
"1224 1441 LINE",
"1224 83 LINE",
"1044 45 LINE",
"1044 0 LINE"
);
},
{
closed = 1;
nodes = (
"651 0 LINE",
"651 45 LINE",
"474 83 LINE",
"474 1441 LINE",
"651 1479 LINE",
"651 1523 LINE",
"89 1523 LINE",
"89 1479 LINE",
"267 1441 LINE",
"267 83 LINE",
"89 45 LINE",
"89 0 LINE"
);
},
{
closed = 1;
nodes = (
"1307 762 LINE",
"1307 841 LINE",
"396 841 LINE",
"396 762 LINE"
);
}
);
width = 1696;
},
{
anchors = (
{
name = bottom;
position = "{690, 0}";
},
{
name = topcap;
position = "{690, 1643}";
}
);
layerId = "7C8D72FA-6E62-4564-8BB2-D9F9BC4EB15A";
paths = (
{
closed = 1;
nodes = (
"1300 0 LINE",
"1300 46 LINE",
"1160 88 LINE",
"1160 1437 LINE",
"1300 1472 LINE",
"1300 1523 LINE",
"838 1523 LINE",
"838 1475 LINE",
"980 1437 LINE",
"980 88 LINE",
"838 48 LINE",
"838 0 LINE"
);
},
{
closed = 1;
nodes = (
"533 0 LINE",
"533 48 LINE",
"393 88 LINE",
"393 1437 LINE",
"533 1475 LINE",
"533 1523 LINE",
"70 1523 LINE",
"70 1475 LINE",
"213 1437 LINE",
"213 88 LINE",
"70 48 LINE",
"70 0 LINE"
);
},
{
closed = 1;
nodes = (
"1059 760 LINE",
"1059 844 LINE",
"317 844 LINE",
"317 760 LINE"
);
}
);
width = 1370;
}
);
leftKerningGroup = I;
rightKerningGroup = I;
unicode = 0048;
},
{
glyphname = Hbar;
layers = (
{
layerId = "FA6D65B5-4623-4FAC-A199-3F662257AC29";
paths = (
{
closed = 1;
nodes = (
"608 0 LINE",
"608 73 LINE",
"475 115 LINE",
"475 747 LINE",
"991 747 LINE",
"991 115 LINE",
"857 73 LINE",
"857 0 LINE",
"1397 0 LINE",
"1397 73 LINE",
"1263 115 LINE",
"1263 1063 LINE",
"1386 1063 LINE",
"1386 1211 LINE",
"1263 1211 LINE",
"1263 1412 LINE",
"1397 1451 LINE",
"1397 1523 LINE",
"857 1523 LINE",
"857 1451 LINE",
"991 1412 LINE",
"991 1211 LINE",
"475 1211 LINE",
"475 1412 LINE",
"608 1451 LINE",
"608 1523 LINE",
"68 1523 LINE",
"68 1451 LINE",
"202 1412 LINE",
"202 1211 LINE",
"84 1211 LINE",
"84 1063 LINE",
"202 1063 LINE",
"202 115 LINE",
"68 73 LINE",
"68 0 LINE"
);
},
{
closed = 1;
nodes = (
"475 1063 LINE",
"991 1063 LINE",
"991 861 LINE",
"475 861 LINE"
);
}
);
width = 1465;
},
{
associatedMasterId = "FA6D65B5-4623-4FAC-A199-3F662257AC29";
layerId = "CBD44848-52BD-4DC5-BFA6-577546B7224D";
paths = (
{
closed = 1;
nodes = (
"651 0 LINE",
"651 45 LINE",
"474 83 LINE",
"474 762 LINE",
"1224 762 LINE",
"1224 83 LINE",
"1044 45 LINE",
"1044 0 LINE",
"1607 0 LINE",
"1607 41 LINE",
"1430 83 LINE",
"1430 1082 LINE",
"1609 1082 LINE",
"1609 1211 LINE",
"1430 1211 LINE",
"1430 1441 LINE",
"1607 1474 LINE",
"1607 1523 LINE",
"1044 1523 LINE",
"1044 1479 LINE",
"1224 1441 LINE",
"1224 1211 LINE",
"474 1211 LINE",
"474 1441 LINE",
"651 1479 LINE",
"651 1523 LINE",
"89 1523 LINE",
"89 1479 LINE",
"267 1441 LINE",
"267 1211 LINE",
"109 1211 LINE",
"109 1082 LINE",
"267 1082 LINE",
"267 83 LINE",
"89 45 LINE",
"89 0 LINE"
);
},
{
closed = 1;
nodes = (
"474 1082 LINE",
"1224 1082 LINE",
"1224 841 LINE",
"474 841 LINE"
);
}
);
width = 1698;
},
{
layerId = "7C8D72FA-6E62-4564-8BB2-D9F9BC4EB15A";
paths = (
{
closed = 1;
nodes = (
"533 0 LINE",
"533 48 LINE",
"393 88 LINE",
"393 760 LINE",
"980 760 LINE",
"980 88 LINE",
"838 48 LINE",
"838 0 LINE",
"1301 0 LINE",
"1301 46 LINE",
"1160 88 LINE",
"1160 1080 LINE",
"1301 1080 LINE",
"1301 1211 LINE",
"1160 1211 LINE",
"1160 1437 LINE",
"1301 1472 LINE",
"1301 1523 LINE",
"838 1523 LINE",
"838 1475 LINE",
"980 1437 LINE",
"980 1211 LINE",
"393 1211 LINE",
"393 1437 LINE",
"533 1475 LINE",
"533 1523 LINE",
"71 1523 LINE",
"71 1475 LINE",
"213 1437 LINE",
"213 1211 LINE",
"86 1211 LINE",
"86 1080 LINE",
"213 1080 LINE",
"213 88 LINE",
"71 48 LINE",
"71 0 LINE"
);
},
{
closed = 1;
nodes = (
"393 1080 LINE",
"980 1080 LINE",
"980 844 LINE",
"393 844 LINE"
);
}
);
width = 1373;
}
);
leftKerningGroup = I;
rightKerningGroup = I;
unicode = 0126;
},
{
glyphname = I;
layers = (
{
anchors = (
{
name = bottom;
position = "{336, 0}";
},
{
name = ogonekcap;
position = "{606, 0}";
},
{
name = topcap;
position = "{336, 1643}";
}
);
layerId = "FA6D65B5-4623-4FAC-A199-3F662257AC29";
paths = (
{
closed = 1;
nodes = (
"606 0 LINE",
"606 73 LINE",
"474 115 LINE",
"474 1412 LINE",
"606 1451 LINE",
"606 1523 LINE",
"66 1523 LINE",
"66 1451 LINE",
"202 1412 LINE",
"202 115 LINE",
"66 73 LINE",
"66 0 LINE"
);
}
);
width = 673;
},
{
anchors = (
{
name = bottom;
position = "{372, 0}";
},
{
name = topcap;
position = "{372, 1643}";
}
);
associatedMasterId = "FA6D65B5-4623-4FAC-A199-3F662257AC29";
layerId = "CBD44848-52BD-4DC5-BFA6-577546B7224D";
paths = (
{
closed = 1;
nodes = (
"651 0 LINE",
"651 45 LINE",
"474 83 LINE",
"474 1441 LINE",
"651 1479 LINE",
"651 1523 LINE",
"89 1523 LINE",
"89 1479 LINE",
"267 1441 LINE",
"267 83 LINE",
"89 45 LINE",
"89 0 LINE"
);
}
);
width = 740;
},
{
anchors = (
{
name = bottom;
position = "{303, 0}";
},
{
name = ogonekcap;
position = "{533, 0}";
},
{
name = topcap;
position = "{303, 1643}";
}
);
layerId = "7C8D72FA-6E62-4564-8BB2-D9F9BC4EB15A";
paths = (
{
closed = 1;
nodes = (
"533 0 LINE",
"533 48 LINE",
"393 88 LINE",
"393 1437 LINE",
"533 1475 LINE",
"533 1523 LINE",
"70 1523 LINE",
"70 1475 LINE",
"213 1437 LINE",
"213 88 LINE",
"70 48 LINE",
"70 0 LINE"
);
}
);
width = 602;
}
);
leftKerningGroup = I;
rightKerningGroup = I;
unicode = 0049;
},
{
glyphname = J;
layers = (
{
anchors = (
{
name = topcap;
position = "{324, 1643}";
}
);
layerId = "FA6D65B5-4623-4FAC-A199-3F662257AC29";
paths = (
{
closed = 1;
nodes = (
"173 -515 OFFCURVE",
"323 -425 OFFCURVE",
"406 -260 CURVE SMOOTH",
"452 -154 OFFCURVE",
"461 -81 OFFCURVE",
"461 307 CURVE SMOOTH",
"461 1412 LINE",
"594 1451 LINE",
"594 1523 LINE",
"54 1523 LINE",
"54 1451 LINE",
"188 1412 LINE",
"188 -85 LINE SMOOTH",
"188 -299 OFFCURVE",
"138 -402 OFFCURVE",
"74 -402 CURVE SMOOTH",
"36 -402 OFFCURVE",
"10 -364 OFFCURVE",
"-14 -275 CURVE SMOOTH",
"-35 -204 OFFCURVE",
"-65 -153 OFFCURVE",
"-130 -153 CURVE SMOOTH",
"-194 -153 OFFCURVE",
"-244 -204 OFFCURVE",
"-244 -303 CURVE SMOOTH",
"-244 -432 OFFCURVE",
"-147 -515 OFFCURVE",
"23 -515 CURVE SMOOTH"
);
}
);
width = 648;
},
{
anchors = (
{
name = topcap;
position = "{359, 1643}";
}
);
associatedMasterId = "FA6D65B5-4623-4FAC-A199-3F662257AC29";
layerId = "CBD44848-52BD-4DC5-BFA6-577546B7224D";
paths = (
{
closed = 1;
nodes = (
"144 -515 OFFCURVE",
"302 -425 OFFCURVE",
"394 -260 CURVE SMOOTH",
"451 -154 OFFCURVE",
"461 -81 OFFCURVE",
"461 307 CURVE SMOOTH",
"461 1441 LINE",
"638 1479 LINE",
"638 1523 LINE",
"75 1523 LINE",
"75 1479 LINE",
"253 1441 LINE",
"253 -94 LINE SMOOTH",
"253 -310 OFFCURVE",
"182 -411 OFFCURVE",
"91 -411 CURVE SMOOTH",
"39 -411 OFFCURVE",
"-2 -380 OFFCURVE",
"-29 -305 CURVE SMOOTH",
"-52 -245 OFFCURVE",
"-83 -214 OFFCURVE",
"-138 -214 CURVE SMOOTH",
"-211 -214 OFFCURVE",
"-256 -264 OFFCURVE",
"-256 -342 CURVE SMOOTH",
"-256 -450 OFFCURVE",
"-165 -515 OFFCURVE",
"-18 -515 CURVE SMOOTH"
);
}
);
width = 716;
},
{
anchors = (
{
name = topcap;
position = "{292, 1643}";
}
);
layerId = "7C8D72FA-6E62-4564-8BB2-D9F9BC4EB15A";
paths = (
{
closed = 1;
nodes = (
"122 -515 OFFCURVE",
"253 -425 OFFCURVE",
"327 -260 CURVE SMOOTH",
"373 -154 OFFCURVE",
"382 -81 OFFCURVE",
"382 307 CURVE SMOOTH",
"382 1437 LINE",
"522 1475 LINE",
"522 1523 LINE",
"60 1523 LINE",
"60 1475 LINE",
"201 1437 LINE",
"201 -93 LINE SMOOTH",
"201 -307 OFFCURVE",
"145 -410 OFFCURVE",
"73 -410 CURVE SMOOTH",
"32 -410 OFFCURVE",
"0 -378 OFFCURVE",
"-22 -301 CURVE SMOOTH",
"-41 -240 OFFCURVE",
"-66 -206 OFFCURVE",
"-114 -206 CURVE SMOOTH",
"-171 -206 OFFCURVE",
"-209 -256 OFFCURVE",
"-209 -336 CURVE SMOOTH",
"-209 -448 OFFCURVE",
"-134 -515 OFFCURVE",
"-10 -515 CURVE SMOOTH"
);
}
);
width = 583;
}
);
leftKerningGroup = J;
rightKerningGroup = J;
unicode = 004A;
},
{
glyphname = K;
layers = (
{
anchors = (
{
name = bottom;
position = "{693, 0}";
}
);
layerId = "FA6D65B5-4623-4FAC-A199-3F662257AC29";
paths = (
{
closed = 1;
nodes = (
"606 0 LINE",
"606 73 LINE",
"474 115 LINE",
"474 648 LINE",
"509 696 LINE",
"898 0 LINE",
"1321 0 LINE",
"1321 73 LINE",
"1176 112 LINE",
"695 948 LINE",
"974 1328 LINE SMOOTH",
"1026 1399 OFFCURVE",
"1058 1421 OFFCURVE",
"1209 1451 CURVE",
"1209 1523 LINE",
"754 1523 LINE",
"754 1453 LINE",
"834 1449 OFFCURVE",
"875 1432 OFFCURVE",
"875 1396 CURVE SMOOTH",
"875 1379 OFFCURVE",
"870 1356 OFFCURVE",
"854 1333 CURVE SMOOTH",
"474 823 LINE",
"474 1412 LINE",
"606 1451 LINE",
"606 1523 LINE",
"66 1523 LINE",
"66 1451 LINE",
"202 1412 LINE",
"202 115 LINE",
"66 73 LINE",
"66 0 LINE"
);
}
);
width = 1278;
},
{
anchors = (
{
name = bottom;
position = "{784, 0}";
}
);
associatedMasterId = "FA6D65B5-4623-4FAC-A199-3F662257AC29";
layerId = "CBD44848-52BD-4DC5-BFA6-577546B7224D";
paths = (
{
closed = 1;
nodes = (
"651 0 LINE",
"651 45 LINE",
"474 83 LINE",
"474 603 LINE",
"603 750 LINE",
"1168 0 LINE",
"1597 0 LINE",
"1597 45 LINE",
"1377 83 LINE",
"743 909 LINE",
"1133 1356 LINE SMOOTH",
"1198 1429 OFFCURVE",
"1241 1447 OFFCURVE",
"1422 1479 CURVE",
"1422 1523 LINE",
"900 1523 LINE",
"900 1479 LINE",
"1018 1470 OFFCURVE",
"1067 1453 OFFCURVE",
"1067 1419 CURVE SMOOTH",
"1067 1404 OFFCURVE",
"1057 1383 OFFCURVE",
"1034 1360 CURVE SMOOTH",
"474 732 LINE",
"474 1441 LINE",
"651 1479 LINE",
"651 1523 LINE",
"89 1523 LINE",
"89 1479 LINE",
"267 1441 LINE",
"267 83 LINE",
"89 45 LINE",
"89 0 LINE"
);
}
);
width = 1550;
},
{
anchors = (
{
name = bottom;
position = "{636, 0}";
}
);
layerId = "7C8D72FA-6E62-4564-8BB2-D9F9BC4EB15A";
paths = (
{
closed = 1;
nodes = (
"533 0 LINE",
"533 48 LINE",
"393 88 LINE",
"393 610 LINE",
"486 743 LINE",
"929 0 LINE",
"1283 0 LINE",
"1283 48 LINE",
"1112 88 LINE",
"607 914 LINE",
"916 1352 LINE SMOOTH",
"967 1426 OFFCURVE",
"1002 1444 OFFCURVE",
"1148 1475 CURVE",
"1148 1523 LINE",
"725 1523 LINE",
"725 1475 LINE",
"817 1468 OFFCURVE",
"857 1450 OFFCURVE",
"857 1416 CURVE SMOOTH",
"857 1400 OFFCURVE",
"850 1379 OFFCURVE",
"831 1356 CURVE SMOOTH",
"393 744 LINE",
"393 1437 LINE",
"533 1475 LINE",
"533 1523 LINE",
"70 1523 LINE",
"70 1475 LINE",
"213 1437 LINE",
"213 88 LINE",
"70 48 LINE",
"70 0 LINE"
);
}
);
width = 1245;
}
);
leftKerningGroup = I;
rightKerningGroup = K;
unicode = 004B;
},
{
glyphname = L;
layers = (
{
anchors = (
{
name = bottom;
position = "{590, 0}";
},
{
name = topcap;
position = "{353, 1643}";
}
);
layerId = "FA6D65B5-4623-4FAC-A199-3F662257AC29";
paths = (
{
closed = 1;
nodes = (
"1027 0 LINE",
"1094 463 LINE",
"1012 463 LINE",
"972 328 OFFCURVE",
"930 222 OFFCURVE",
"867 113 CURVE",
"474 113 LINE",
"474 1412 LINE",
"622 1451 LINE",
"622 1523 LINE",
"66 1523 LINE",
"66 1451 LINE",
"202 1414 LINE",
"202 112 LINE",
"66 73 LINE",
"66 0 LINE"
);
}
);
width = 1106;
},
{
anchors = (
{
name = bottom;
position = "{552, 0}";
},
{
name = topcap;
position = "{309, 1643}";
}
);
layerId = "7C8D72FA-6E62-4564-8BB2-D9F9BC4EB15A";
paths = (
{
closed = 1;
nodes = (
"962 0 LINE",
"1022 472 LINE",
"974 472 LINE",
"936 320 OFFCURVE",
"898 204 OFFCURVE",
"840 83 CURVE",
"391 83 LINE",
"391 1437 LINE",
"542 1475 LINE",
"542 1523 LINE",
"75 1523 LINE",
"75 1475 LINE",
"211 1437 LINE",
"211 88 LINE",
"75 48 LINE",
"75 0 LINE"
);
}
);
width = 1048;
},
{
anchors = (
{
name = bottom;
position = "{690, 0}";
},
{
name = topcap;
position = "{386, 1643}";
}
);
associatedMasterId = "7C8D72FA-6E62-4564-8BB2-D9F9BC4EB15A";
layerId = "8ADAAAC7-AFE5-484B-8331-91EA8B26E085";
name = "Jan 7 19, 12:26";
paths = (
{
closed = 1;
nodes = (
"1202 0 LINE",
"1277 472 LINE",
"1218 472 LINE",
"1173 342 OFFCURVE",
"1131 213 OFFCURVE",
"1050 83 CURVE",
"489 83 LINE",
"489 1437 LINE",
"677 1475 LINE",
"677 1523 LINE",
"94 1523 LINE",
"94 1475 LINE",
"264 1437 LINE",
"264 88 LINE",
"94 48 LINE",
"94 0 LINE"
);
}
);
width = 1310;
},
{
anchors = (
{
name = bottom;
position = "{737, 0}";
},
{
name = topcap;
position = "{441, 1643}";
}
);
associatedMasterId = "FA6D65B5-4623-4FAC-A199-3F662257AC29";
layerId = "6D7EE985-9BFD-4474-8ADC-B784C8159E61";
name = "Jan 7 19, 12:27";
paths = (
{
closed = 1;
nodes = (
"1284 0 LINE",
"1368 463 LINE",
"1265 463 LINE",
"1216 344 OFFCURVE",
"1170 229 OFFCURVE",
"1084 113 CURVE",
"592 113 LINE",
"592 1412 LINE",
"778 1451 LINE",
"778 1523 LINE",
"83 1523 LINE",
"83 1451 LINE",
"252 1414 LINE",
"252 112 LINE",
"83 73 LINE",
"83 0 LINE"
);
}
);
visible = 1;
width = 1383;
}
);
leftKerningGroup = I;
rightKerningGroup = L;
unicode = 004C;
},
{
glyphname = Lslash;
layers = (
{
components = (
{
name = L;
transform = "{1, 0, 0, 1, 2, 0}";
}
);
layerId = "FA6D65B5-4623-4FAC-A199-3F662257AC29";
paths = (
{
closed = 1;
nodes = (
"590 875 LINE",
"590 1063 LINE",
"96 735 LINE",
"96 547 LINE"
);
}
);
width = 1108;
},
{
associatedMasterId = "FA6D65B5-4623-4FAC-A199-3F662257AC29";
components = (
{
name = L;
transform = "{1, 0, 0, 1, 2, 0}";
}
);
layerId = "CBD44848-52BD-4DC5-BFA6-577546B7224D";
paths = (
{
closed = 1;
nodes = (
"663 898 LINE",
"663 1027 LINE",
"117 735 LINE",
"117 606 LINE"
);
}
);
width = 1300;
},
{
components = (
{
alignment = -1;
name = L;
transform = "{1, 0, 0, 1, 2, 0}";
}
);
layerId = "7C8D72FA-6E62-4564-8BB2-D9F9BC4EB15A";
paths = (
{
closed = 1;
nodes = (
"539 896 LINE",
"539 1032 LINE",
"94 735 LINE",
"94 598 LINE"
);
}
);
width = 1050;
}
);
leftKerningGroup = I;
rightKerningGroup = L;
unicode = 0141;
},
{
glyphname = M;
layers = (
{
layerId = "FA6D65B5-4623-4FAC-A199-3F662257AC29";
paths = (
{
closed = 1;
nodes = (
"823 -21 LINE",
"1221 1176 LINE",
"1227 1176 LINE",
"1227 115 LINE",
"1093 73 LINE",
"1093 0 LINE",
"1632 0 LINE",
"1632 73 LINE",
"1500 115 LINE",
"1500 1412 LINE",
"1632 1451 LINE",
"1632 1523 LINE",
"1225 1523 LINE",
"882 503 LINE",
"872 503 LINE",
"543 1523 LINE",
"62 1523 LINE",
"62 1451 LINE",
"202 1414 LINE",
"202 112 LINE",
"62 73 LINE",
"62 0 LINE",
"451 0 LINE",
"451 73 LINE",
"312 112 LINE",
"312 1229 LINE",
"318 1229 LINE",
"748 -21 LINE"
);
}
);
width = 1698;
},
{
associatedMasterId = "FA6D65B5-4623-4FAC-A199-3F662257AC29";
layerId = "CBD44848-52BD-4DC5-BFA6-577546B7224D";
paths = (
{
closed = 1;
nodes = (
"960 -21 LINE",
"1521 1299 LINE",
"1529 1299 LINE",
"1529 83 LINE",
"1352 45 LINE",
"1352 0 LINE",
"1914 0 LINE",
"1914 45 LINE",
"1738 83 LINE",
"1738 1441 LINE",
"1914 1479 LINE",
"1914 1523 LINE",
"1500 1523 LINE",
"1008 351 LINE",
"997 351 LINE",
"504 1523 LINE",
"89 1523 LINE",
"89 1479 LINE",
"267 1441 LINE",
"267 83 LINE",
"89 45 LINE",
"89 0 LINE",
"523 0 LINE",
"523 45 LINE",
"347 83 LINE",
"347 1307 LINE",
"355 1307 LINE",
"906 -21 LINE"
);
}
);
width = 2002;
},
{
layerId = "7C8D72FA-6E62-4564-8BB2-D9F9BC4EB15A";
paths = (
{
closed = 1;
nodes = (
"776 -21 LINE",
"1218 1283 LINE",
"1224 1283 LINE",
"1224 88 LINE",
"1082 48 LINE",
"1082 0 LINE",
"1545 0 LINE",
"1545 48 LINE",
"1405 88 LINE",
"1405 1437 LINE",
"1545 1475 LINE",
"1545 1523 LINE",
"1203 1523 LINE",
"816 371 LINE",
"808 371 LINE",
"423 1523 LINE",
"70 1523 LINE",
"70 1475 LINE",
"213 1437 LINE",
"213 88 LINE",
"70 48 LINE",
"70 0 LINE",
"423 0 LINE",
"423 48 LINE",
"282 88 LINE",
"282 1297 LINE",
"288 1297 LINE",
"728 -21 LINE"
);
}
);
width = 1615;
}
);
leftKerningGroup = N;
rightKerningGroup = I;
unicode = 004D;
},
{
glyphname = N;
layers = (
{
anchors = (
{
name = bottom;
position = "{695, 0}";
},
{
name = topcap;
position = "{722, 1643}";
}
);
layerId = "FA6D65B5-4623-4FAC-A199-3F662257AC29";
paths = (
{
closed = 1;
nodes = (
"1200 -21 LINE",
"1200 1414 LINE",
"1342 1451 LINE",
"1342 1523 LINE",
"951 1523 LINE",
"951 1451 LINE",
"1092 1414 LINE",
"1092 584 LINE",
"492 1523 LINE",
"62 1523 LINE",
"62 1451 LINE",
"202 1414 LINE",
"202 112 LINE",
"62 73 LINE",
"62 0 LINE",
"451 0 LINE",
"451 73 LINE",
"312 112 LINE",
"312 1208 LINE",
"1092 -21 LINE"
);
}
);
width = 1390;
},
{
anchors = (
{
name = bottom;
position = "{801, 0}";
},
{
name = topcap;
position = "{829, 1643}";
}
);
associatedMasterId = "FA6D65B5-4623-4FAC-A199-3F662257AC29";
layerId = "CBD44848-52BD-4DC5-BFA6-577546B7224D";
paths = (
{
closed = 1;
nodes = (
"1383 -39 LINE",
"1383 1441 LINE",
"1561 1479 LINE",
"1561 1523 LINE",
"1127 1523 LINE",
"1127 1479 LINE",
"1305 1441 LINE",
"1305 404 LINE",
"489 1523 LINE",
"89 1523 LINE",
"89 1479 LINE",
"267 1441 LINE",
"267 83 LINE",
"89 45 LINE",
"89 0 LINE",
"523 0 LINE",
"523 45 LINE",
"347 83 LINE",
"347 1320 LINE",
"1322 -39 LINE"
);
}
);
width = 1639;
},
{
anchors = (
{
name = bottom;
position = "{649, 0}";
},
{
name = topcap;
position = "{670, 1643}";
}
);
layerId = "7C8D72FA-6E62-4564-8BB2-D9F9BC4EB15A";
paths = (
{
closed = 1;
nodes = (
"1119 -37 LINE",
"1119 1437 LINE",
"1262 1475 LINE",
"1262 1523 LINE",
"910 1523 LINE",
"910 1475 LINE",
"1050 1437 LINE",
"1050 427 LINE",
"405 1523 LINE",
"70 1523 LINE",
"70 1475 LINE",
"213 1437 LINE",
"213 88 LINE",
"70 48 LINE",
"70 0 LINE",
"423 0 LINE",
"423 48 LINE",
"282 88 LINE",
"282 1305 LINE",
"1062 -37 LINE"
);
}
);
width = 1321;
}
);
leftKerningGroup = N;
rightKerningGroup = N;
unicode = 004E;
},
{
glyphname = Eng;
layers = (
{
layerId = "FA6D65B5-4623-4FAC-A199-3F662257AC29";
paths = (
{
closed = 1;
nodes = (
"1135 515 LINE",
"492 1523 LINE",
"231 1523 LINE",
"223 1348 LINE",
"1092 -21 LINE"
);
},
{
closed = 1;
nodes = (
"912 -515 OFFCURVE",
"1062 -425 OFFCURVE",
"1146 -260 CURVE",
"1192 -154 OFFCURVE",
"1200 -81 OFFCURVE",
"1200 307 CURVE",
"928 307 LINE",
"928 -85 LINE SMOOTH",
"928 -299 OFFCURVE",
"877 -402 OFFCURVE",
"814 -402 CURVE SMOOTH",
"776 -402 OFFCURVE",
"749 -364 OFFCURVE",
"725 -275 CURVE SMOOTH",
"705 -204 OFFCURVE",
"674 -153 OFFCURVE",
"610 -153 CURVE SMOOTH",
"546 -153 OFFCURVE",
"496 -204 OFFCURVE",
"496 -303 CURVE SMOOTH",
"496 -432 OFFCURVE",
"592 -515 OFFCURVE",
"762 -515 CURVE SMOOTH"
);
},
{
closed = 1;
nodes = (
"451 0 LINE",
"451 73 LINE",
"312 112 LINE",
"312 1523 LINE",
"62 1523 LINE",
"62 1451 LINE",
"202 1414 LINE",
"202 112 LINE",
"62 73 LINE",
"62 0 LINE"
);
},
{
closed = 1;
nodes = (
"1200 276 LINE",
"1200 1414 LINE",
"1342 1451 LINE",
"1342 1523 LINE",
"951 1523 LINE",
"951 1451 LINE",
"1092 1414 LINE",
"1092 276 LINE"
);
}
);
width = 1389;
},
{
associatedMasterId = "FA6D65B5-4623-4FAC-A199-3F662257AC29";
layerId = "CBD44848-52BD-4DC5-BFA6-577546B7224D";
paths = (
{
closed = 1;
nodes = (
"1346 347 LINE",
"489 1523 LINE",
"302 1523 LINE",
"291 1398 LINE",
"1322 -39 LINE"
);
},
{
closed = 1;
nodes = (
"1067 -515 OFFCURVE",
"1224 -425 OFFCURVE",
"1316 -260 CURVE SMOOTH",
"1373 -154 OFFCURVE",
"1383 -81 OFFCURVE",
"1383 307 CURVE",
"1176 307 LINE",
"1176 -94 LINE SMOOTH",
"1176 -310 OFFCURVE",
"1104 -411 OFFCURVE",
"1013 -411 CURVE SMOOTH",
"962 -411 OFFCURVE",
"920 -380 OFFCURVE",
"892 -305 CURVE SMOOTH",
"871 -245 OFFCURVE",
"839 -214 OFFCURVE",
"784 -214 CURVE SMOOTH",
"713 -214 OFFCURVE",
"667 -264 OFFCURVE",
"667 -342 CURVE SMOOTH",
"667 -450 OFFCURVE",
"758 -515 OFFCURVE",
"904 -515 CURVE SMOOTH"
);
},
{
closed = 1;
nodes = (
"523 0 LINE",
"523 45 LINE",
"347 83 LINE",
"347 1523 LINE",
"89 1523 LINE",
"89 1479 LINE",
"267 1441 LINE",
"267 83 LINE",
"89 45 LINE",
"89 0 LINE"
);
},
{
closed = 1;
nodes = (
"1383 237 LINE",
"1383 1441 LINE",
"1561 1479 LINE",
"1561 1523 LINE",
"1127 1523 LINE",
"1127 1479 LINE",
"1305 1441 LINE",
"1305 237 LINE"
);
}
);
width = 1637;
},
{
layerId = "7C8D72FA-6E62-4564-8BB2-D9F9BC4EB15A";
paths = (
{
closed = 1;
nodes = (
"1084 368 LINE",
"405 1523 LINE",
"239 1523 LINE",
"231 1391 LINE",
"1062 -37 LINE"
);
},
{
closed = 1;
nodes = (
"862 -515 OFFCURVE",
"990 -425 OFFCURVE",
"1065 -260 CURVE SMOOTH",
"1111 -154 OFFCURVE",
"1119 -81 OFFCURVE",
"1119 307 CURVE",
"938 307 LINE",
"938 -93 LINE SMOOTH",
"938 -307 OFFCURVE",
"882 -410 OFFCURVE",
"810 -410 CURVE SMOOTH",
"770 -410 OFFCURVE",
"738 -378 OFFCURVE",
"716 -301 CURVE SMOOTH",
"698 -240 OFFCURVE",
"671 -206 OFFCURVE",
"625 -206 CURVE SMOOTH",
"567 -206 OFFCURVE",
"529 -256 OFFCURVE",
"529 -336 CURVE SMOOTH",
"529 -448 OFFCURVE",
"604 -515 OFFCURVE",
"729 -515 CURVE SMOOTH"
);
},
{
closed = 1;
nodes = (
"423 0 LINE",
"423 48 LINE",
"282 88 LINE",
"282 1523 LINE",
"70 1523 LINE",
"70 1475 LINE",
"213 1437 LINE",
"213 88 LINE",
"70 48 LINE",
"70 0 LINE"
);
},
{
closed = 1;
nodes = (
"1119 243 LINE",
"1119 1437 LINE",
"1262 1475 LINE",
"1262 1523 LINE",
"910 1523 LINE",
"910 1475 LINE",
"1050 1437 LINE",
"1050 243 LINE"
);
}
);
width = 1320;
}
);
leftKerningGroup = N;
rightKerningGroup = N;
unicode = 014A;
},
{
glyphname = O;
layers = (
{
anchors = (
{
name = bottom;
position = "{688, 0}";
},
{
name = ogonekcurvecap;
position = "{1033, 94}";
},
{
name = topcap;
position = "{688, 1643}";
}
);
layerId = "FA6D65B5-4623-4FAC-A199-3F662257AC29";
paths = (
{
closed = 1;
nodes = (
"1085 -21 OFFCURVE",
"1305 333 OFFCURVE",
"1305 762 CURVE SMOOTH",
"1305 1192 OFFCURVE",
"1085 1544 OFFCURVE",
"687 1544 CURVE SMOOTH",
"291 1544 OFFCURVE",
"71 1192 OFFCURVE",
"71 762 CURVE SMOOTH",
"71 333 OFFCURVE",
"291 -21 OFFCURVE",
"687 -21 CURVE SMOOTH"
);
},
{
closed = 1;
nodes = (
"432 94 OFFCURVE",
"383 487 OFFCURVE",
"383 762 CURVE SMOOTH",
"383 1034 OFFCURVE",
"432 1424 OFFCURVE",
"687 1424 CURVE SMOOTH",
"946 1424 OFFCURVE",
"993 1034 OFFCURVE",
"993 762 CURVE SMOOTH",
"993 487 OFFCURVE",
"943 94 OFFCURVE",
"687 94 CURVE SMOOTH"
);
}
);
width = 1375;
},
{
anchors = (
{
name = bottom;
position = "{829, 0}";
},
{
name = topcap;
position = "{829, 1643}";
}
);
associatedMasterId = "FA6D65B5-4623-4FAC-A199-3F662257AC29";
layerId = "CBD44848-52BD-4DC5-BFA6-577546B7224D";
paths = (
{
closed = 1;
nodes = (
"1237 -21 OFFCURVE",
"1546 317 OFFCURVE",
"1546 762 CURVE SMOOTH",
"1546 1208 OFFCURVE",
"1237 1544 OFFCURVE",
"828 1544 CURVE SMOOTH",
"417 1544 OFFCURVE",
"109 1208 OFFCURVE",
"109 762 CURVE SMOOTH",
"109 317 OFFCURVE",
"417 -21 OFFCURVE",
"828 -21 CURVE SMOOTH"
);
},
{
closed = 1;
nodes = (
"534 70 OFFCURVE",
"359 330 OFFCURVE",
"359 763 CURVE SMOOTH",
"359 1198 OFFCURVE",
"534 1455 OFFCURVE",
"829 1455 CURVE SMOOTH",
"1123 1455 OFFCURVE",
"1297 1200 OFFCURVE",
"1297 768 CURVE SMOOTH",
"1297 330 OFFCURVE",
"1120 70 OFFCURVE",
"828 70 CURVE SMOOTH"
);
}
);
width = 1655;
},
{
anchors = (
{
name = bottom;
position = "{666, 0}";
},
{
name = ogonekcurvecap;
position = "{956, 77}";
},
{
name = topcap;
position = "{666, 1643}";
}
);
layerId = "7C8D72FA-6E62-4564-8BB2-D9F9BC4EB15A";
paths = (
{
closed = 1;
nodes = (
"1002 -21 OFFCURVE",
"1246 319 OFFCURVE",
"1246 762 CURVE SMOOTH",
"1246 1206 OFFCURVE",
"1002 1544 OFFCURVE",
"665 1544 CURVE SMOOTH",
"328 1544 OFFCURVE",
"85 1206 OFFCURVE",
"85 762 CURVE SMOOTH",
"85 319 OFFCURVE",
"328 -21 OFFCURVE",
"665 -21 CURVE SMOOTH"
);
},
{
closed = 1;
nodes = (
"428 73 OFFCURVE",
"299 351 OFFCURVE",
"299 763 CURVE SMOOTH",
"299 1176 OFFCURVE",
"428 1451 OFFCURVE",
"666 1451 CURVE SMOOTH",
"905 1451 OFFCURVE",
"1032 1178 OFFCURVE",
"1032 767 CURVE SMOOTH",
"1032 351 OFFCURVE",
"902 73 OFFCURVE",
"665 73 CURVE SMOOTH"
);
}
);
width = 1330;
}
);
leftKerningGroup = O;
rightKerningGroup = O;
unicode = 004F;
},
{
glyphname = Oslash;
layers = (
{
layerId = "FA6D65B5-4623-4FAC-A199-3F662257AC29";
paths = (
{
closed = 1;
nodes = (
"1083 -21 OFFCURVE",
"1302 333 OFFCURVE",
"1302 762 CURVE SMOOTH",
"1302 982 OFFCURVE",
"1245 1179 OFFCURVE",
"1135 1322 CURVE",
"1275 1523 LINE",
"1151 1523 LINE",
"1065 1399 LINE",
"967 1489 OFFCURVE",
"839 1544 OFFCURVE",
"686 1544 CURVE SMOOTH",
"290 1544 OFFCURVE",
"69 1192 OFFCURVE",
"69 762 CURVE SMOOTH",
"69 540 OFFCURVE",
"129 339 OFFCURVE",
"239 196 CURVE",
"104 0 LINE",
"226 0 LINE",
"309 120 LINE",
"406 31 OFFCURVE",
"534 -21 OFFCURVE",
"686 -21 CURVE SMOOTH"
);
},
{
closed = 1;
nodes = (
"562 94 OFFCURVE",
"486 185 OFFCURVE",
"442 312 CURVE",
"966 1076 LINE",
"985 972 OFFCURVE",
"991 859 OFFCURVE",
"991 762 CURVE SMOOTH",
"991 487 OFFCURVE",
"942 94 OFFCURVE",
"686 94 CURVE SMOOTH"
);
},
{
closed = 1;
nodes = (
"388 549 OFFCURVE",
"382 663 OFFCURVE",
"382 762 CURVE SMOOTH",
"382 1034 OFFCURVE",
"431 1424 OFFCURVE",
"686 1424 CURVE SMOOTH",
"813 1424 OFFCURVE",
"888 1331 OFFCURVE",
"933 1206 CURVE",
"408 441 LINE"
);
}
);
width = 1373;
},
{
associatedMasterId = "FA6D65B5-4623-4FAC-A199-3F662257AC29";
layerId = "CBD44848-52BD-4DC5-BFA6-577546B7224D";
paths = (
{
closed = 1;
nodes = (
"1239 -21 OFFCURVE",
"1548 317 OFFCURVE",
"1548 762 CURVE SMOOTH",
"1548 980 OFFCURVE",
"1472 1172 OFFCURVE",
"1348 1310 CURVE",
"1531 1523 LINE",
"1421 1523 LINE",
"1289 1369 LINE",
"1166 1479 OFFCURVE",
"1008 1544 OFFCURVE",
"829 1544 CURVE SMOOTH",
"419 1544 OFFCURVE",
"112 1208 OFFCURVE",
"112 762 CURVE SMOOTH",
"112 549 OFFCURVE",
"182 359 OFFCURVE",
"302 219 CURVE",
"113 0 LINE",
"221 0 LINE",
"360 161 LINE",
"482 47 OFFCURVE",
"646 -21 OFFCURVE",
"829 -21 CURVE SMOOTH"
);
},
{
closed = 1;
nodes = (
"671 70 OFFCURVE",
"547 146 OFFCURVE",
"465 284 CURVE",
"1229 1172 LINE",
"1274 1063 OFFCURVE",
"1299 928 OFFCURVE",
"1299 768 CURVE SMOOTH",
"1299 330 OFFCURVE",
"1123 70 OFFCURVE",
"829 70 CURVE SMOOTH"
);
},
{
closed = 1;
nodes = (
"382 473 OFFCURVE",
"360 607 OFFCURVE",
"360 763 CURVE SMOOTH",
"360 1198 OFFCURVE",
"537 1455 OFFCURVE",
"831 1455 CURVE SMOOTH",
"985 1455 OFFCURVE",
"1107 1383 OFFCURVE",
"1187 1253 CURVE",
"425 366 LINE"
);
}
);
width = 1656;
},
{
layerId = "7C8D72FA-6E62-4564-8BB2-D9F9BC4EB15A";
paths = (
{
closed = 1;
nodes = (
"1003 -21 OFFCURVE",
"1246 319 OFFCURVE",
"1246 762 CURVE SMOOTH",
"1246 980 OFFCURVE",
"1186 1172 OFFCURVE",
"1086 1312 CURVE",
"1232 1523 LINE",
"1138 1523 LINE",
"1035 1374 LINE",
"938 1480 OFFCURVE",
"810 1544 OFFCURVE",
"666 1544 CURVE SMOOTH",
"330 1544 OFFCURVE",
"86 1206 OFFCURVE",
"86 762 CURVE SMOOTH",
"86 548 OFFCURVE",
"144 356 OFFCURVE",
"241 216 CURVE",
"92 0 LINE",
"184 0 LINE",
"290 155 LINE",
"389 45 OFFCURVE",
"518 -21 OFFCURVE",
"666 -21 CURVE SMOOTH"
);
},
{
closed = 1;
nodes = (
"541 73 OFFCURVE",
"444 152 OFFCURVE",
"382 288 CURVE",
"981 1158 LINE",
"1014 1050 OFFCURVE",
"1033 919 OFFCURVE",
"1033 767 CURVE SMOOTH",
"1033 351 OFFCURVE",
"904 73 OFFCURVE",
"666 73 CURVE SMOOTH"
);
},
{
closed = 1;
nodes = (
"317 484 OFFCURVE",
"300 615 OFFCURVE",
"300 763 CURVE SMOOTH",
"300 1176 OFFCURVE",
"430 1451 OFFCURVE",
"668 1451 CURVE SMOOTH",
"791 1451 OFFCURVE",
"886 1376 OFFCURVE",
"948 1246 CURVE",
"349 377 LINE"
);
}
);
width = 1331;
}
);
leftKerningGroup = O;
rightKerningGroup = O;
unicode = 00D8;
},
{
glyphname = Oslashacute;
layers = (
{
components = (
{
name = acute.cap;
transform = "{0.8, 0, 0, 1, 500, 0}";
}
);
layerId = "FA6D65B5-4623-4FAC-A199-3F662257AC29";
paths = (
{
closed = 1;
nodes = (
"1083 -21 OFFCURVE",
"1302 333 OFFCURVE",
"1302 762 CURVE SMOOTH",
"1302 982 OFFCURVE",
"1245 1179 OFFCURVE",
"1135 1322 CURVE",
"1275 1523 LINE",
"1151 1523 LINE",
"1065 1399 LINE",
"967 1489 OFFCURVE",
"839 1544 OFFCURVE",
"686 1544 CURVE SMOOTH",
"290 1544 OFFCURVE",
"69 1192 OFFCURVE",
"69 762 CURVE SMOOTH",
"69 540 OFFCURVE",
"129 339 OFFCURVE",
"239 196 CURVE",
"104 0 LINE",
"226 0 LINE",
"309 120 LINE",
"406 31 OFFCURVE",
"534 -21 OFFCURVE",
"686 -21 CURVE SMOOTH"
);
},
{
closed = 1;
nodes = (
"562 94 OFFCURVE",
"486 185 OFFCURVE",
"442 312 CURVE",
"966 1076 LINE",
"985 972 OFFCURVE",
"991 859 OFFCURVE",
"991 762 CURVE SMOOTH",
"991 487 OFFCURVE",
"942 94 OFFCURVE",
"686 94 CURVE SMOOTH"
);
},
{
closed = 1;
nodes = (
"388 549 OFFCURVE",
"382 663 OFFCURVE",
"382 762 CURVE SMOOTH",
"382 1034 OFFCURVE",
"431 1424 OFFCURVE",
"686 1424 CURVE SMOOTH",
"813 1424 OFFCURVE",
"888 1331 OFFCURVE",
"933 1206 CURVE",
"408 441 LINE"
);
}
);
width = 1373;
},
{
associatedMasterId = "FA6D65B5-4623-4FAC-A199-3F662257AC29";
components = (
{
name = acute.cap;
transform = "{1, 0, 0, 1, 607, 0}";
}
);
layerId = "CBD44848-52BD-4DC5-BFA6-577546B7224D";
paths = (
{
closed = 1;
nodes = (
"1239 -21 OFFCURVE",
"1548 317 OFFCURVE",
"1548 762 CURVE SMOOTH",
"1548 980 OFFCURVE",
"1472 1172 OFFCURVE",
"1348 1310 CURVE",
"1531 1523 LINE",
"1421 1523 LINE",
"1289 1369 LINE",
"1166 1479 OFFCURVE",
"1008 1544 OFFCURVE",
"829 1544 CURVE SMOOTH",
"419 1544 OFFCURVE",
"112 1208 OFFCURVE",
"112 762 CURVE SMOOTH",
"112 549 OFFCURVE",
"182 359 OFFCURVE",
"302 219 CURVE",
"113 0 LINE",
"221 0 LINE",
"360 161 LINE",
"482 47 OFFCURVE",
"646 -21 OFFCURVE",
"829 -21 CURVE SMOOTH"
);
},
{
closed = 1;
nodes = (
"671 70 OFFCURVE",
"547 146 OFFCURVE",
"465 284 CURVE",
"1229 1172 LINE",
"1274 1063 OFFCURVE",
"1299 928 OFFCURVE",
"1299 768 CURVE SMOOTH",
"1299 330 OFFCURVE",
"1123 70 OFFCURVE",
"829 70 CURVE SMOOTH"
);
},
{
closed = 1;
nodes = (
"382 473 OFFCURVE",
"360 607 OFFCURVE",
"360 763 CURVE SMOOTH",
"360 1198 OFFCURVE",
"537 1455 OFFCURVE",
"831 1455 CURVE SMOOTH",
"985 1455 OFFCURVE",
"1107 1383 OFFCURVE",
"1187 1253 CURVE",
"425 366 LINE"
);
}
);
width = 1656;
},
{
components = (
{
alignment = -1;
name = acute.cap;
transform = "{0.8, 0, 0, 1, 487, 0}";
}
);
layerId = "7C8D72FA-6E62-4564-8BB2-D9F9BC4EB15A";
paths = (
{
closed = 1;
nodes = (
"1003 -21 OFFCURVE",
"1246 319 OFFCURVE",
"1246 762 CURVE SMOOTH",
"1246 980 OFFCURVE",
"1186 1172 OFFCURVE",
"1086 1312 CURVE",
"1232 1523 LINE",
"1138 1523 LINE",
"1035 1374 LINE",
"938 1480 OFFCURVE",
"810 1544 OFFCURVE",
"666 1544 CURVE SMOOTH",
"330 1544 OFFCURVE",
"86 1206 OFFCURVE",
"86 762 CURVE SMOOTH",
"86 548 OFFCURVE",
"144 356 OFFCURVE",
"241 216 CURVE",
"92 0 LINE",
"184 0 LINE",
"290 155 LINE",
"389 45 OFFCURVE",
"518 -21 OFFCURVE",
"666 -21 CURVE SMOOTH"
);
},
{
closed = 1;
nodes = (
"541 73 OFFCURVE",
"444 152 OFFCURVE",
"382 288 CURVE",
"981 1158 LINE",
"1014 1050 OFFCURVE",
"1033 919 OFFCURVE",
"1033 767 CURVE SMOOTH",
"1033 351 OFFCURVE",
"904 73 OFFCURVE",
"666 73 CURVE SMOOTH"
);
},
{
closed = 1;
nodes = (
"317 484 OFFCURVE",
"300 615 OFFCURVE",
"300 763 CURVE SMOOTH",
"300 1176 OFFCURVE",
"430 1451 OFFCURVE",
"668 1451 CURVE SMOOTH",
"791 1451 OFFCURVE",
"886 1376 OFFCURVE",
"948 1246 CURVE",
"349 377 LINE"
);
}
);
width = 1331;
}
);
leftKerningGroup = O;
rightKerningGroup = O;
unicode = 01FE;
},
{
glyphname = OE;
layers = (
{
components = (
{
name = E;
transform = "{1, 0, 0, 1, 873, 0}";
}
);
layerId = "FA6D65B5-4623-4FAC-A199-3F662257AC29";
paths = (
{
closed = 1;
nodes = (
"833 -21 OFFCURVE",
"954 28 OFFCURVE",
"1050 109 CURVE",
"917 234 LINE",
"870 153 OFFCURVE",
"798 94 OFFCURVE",
"687 94 CURVE SMOOTH",
"432 94 OFFCURVE",
"383 487 OFFCURVE",
"383 762 CURVE SMOOTH",
"383 1034 OFFCURVE",
"432 1424 OFFCURVE",
"687 1424 CURVE SMOOTH",
"809 1424 OFFCURVE",
"883 1356 OFFCURVE",
"928 1261 CURVE",
"1060 1407 LINE",
"962 1495 OFFCURVE",
"838 1544 OFFCURVE",
"687 1544 CURVE SMOOTH",
"291 1544 OFFCURVE",
"71 1192 OFFCURVE",
"71 762 CURVE SMOOTH",
"71 333 OFFCURVE",
"291 -21 OFFCURVE",
"687 -21 CURVE SMOOTH"
);
}
);
width = 1856;
},
{
associatedMasterId = "FA6D65B5-4623-4FAC-A199-3F662257AC29";
components = (
{
name = E;
transform = "{1, 0, 0, 1, 898, 0}";
}
);
layerId = "CBD44848-52BD-4DC5-BFA6-577546B7224D";
paths = (
{
closed = 1;
nodes = (
"985 -21 OFFCURVE",
"1143 13 OFFCURVE",
"1253 63 CURVE",
"1176 203 LINE",
"1099 120 OFFCURVE",
"972 70 OFFCURVE",
"837 70 CURVE SMOOTH",
"534 70 OFFCURVE",
"359 322 OFFCURVE",
"359 763 CURVE SMOOTH",
"359 1203 OFFCURVE",
"532 1455 OFFCURVE",
"839 1455 CURVE SMOOTH",
"1000 1455 OFFCURVE",
"1135 1385 OFFCURVE",
"1211 1267 CURVE",
"1267 1449 LINE",
"1152 1506 OFFCURVE",
"989 1544 OFFCURVE",
"845 1544 CURVE SMOOTH",
"417 1544 OFFCURVE",
"109 1217 OFFCURVE",
"109 762 CURVE SMOOTH",
"109 307 OFFCURVE",
"417 -21 OFFCURVE",
"845 -21 CURVE SMOOTH"
);
}
);
width = 2268;
},
{
components = (
{
alignment = -1;
name = E;
transform = "{1, 0, 0, 1, 895, 0}";
}
);
layerId = "7C8D72FA-6E62-4564-8BB2-D9F9BC4EB15A";
paths = (
{
closed = 1;
nodes = (
"794 -21 OFFCURVE",
"920 15 OFFCURVE",
"1009 69 CURVE",
"937 206 LINE",
"878 123 OFFCURVE",
"780 73 OFFCURVE",
"671 73 CURVE SMOOTH",
"428 73 OFFCURVE",
"299 344 OFFCURVE",
"299 763 CURVE SMOOTH",
"299 1180 OFFCURVE",
"426 1451 OFFCURVE",
"674 1451 CURVE SMOOTH",
"801 1451 OFFCURVE",
"906 1382 OFFCURVE",
"963 1265 CURVE",
"1020 1443 LINE",
"926 1504 OFFCURVE",
"798 1544 OFFCURVE",
"678 1544 CURVE SMOOTH",
"328 1544 OFFCURVE",
"85 1214 OFFCURVE",
"85 762 CURVE SMOOTH",
"85 311 OFFCURVE",
"328 -21 OFFCURVE",
"678 -21 CURVE SMOOTH"
);
}
);
width = 1820;
}
);
leftKerningGroup = O;
rightKerningGroup = E;
unicode = 0152;
},
{
glyphname = P;
layers = (
{
layerId = "FA6D65B5-4623-4FAC-A199-3F662257AC29";
paths = (
{
closed = 1;
nodes = (
"671 0 LINE",
"671 73 LINE",
"474 117 LINE",
"474 633 LINE",
"568 633 LINE SMOOTH",
"881 633 OFFCURVE",
"1058 793 OFFCURVE",
"1058 1073 CURVE SMOOTH",
"1058 1350 OFFCURVE",
"879 1523 OFFCURVE",
"594 1523 CURVE SMOOTH",
"66 1523 LINE",
"66 1451 LINE",
"202 1409 LINE",
"202 117 LINE",
"66 73 LINE",
"66 0 LINE"
);
},
{
closed = 1;
nodes = (
"474 1416 LINE",
"513 1416 LINE SMOOTH",
"610 1416 OFFCURVE",
"670 1396 OFFCURVE",
"710 1346 CURVE SMOOTH",
"749 1297 OFFCURVE",
"770 1211 OFFCURVE",
"770 1090 CURVE SMOOTH",
"770 962 OFFCURVE",
"748 879 OFFCURVE",
"698 821 CURVE SMOOTH",
"650 766 OFFCURVE",
"583 740 OFFCURVE",
"485 740 CURVE SMOOTH",
"474 740 LINE"
);
}
);
width = 1098;
},
{
associatedMasterId = "FA6D65B5-4623-4FAC-A199-3F662257AC29";
layerId = "CBD44848-52BD-4DC5-BFA6-577546B7224D";
paths = (
{
closed = 1;
nodes = (
"698 0 LINE",
"698 45 LINE",
"473 83 LINE",
"473 653 LINE",
"683 653 LINE SMOOTH",
"1027 653 OFFCURVE",
"1241 799 OFFCURVE",
"1241 1071 CURVE SMOOTH",
"1241 1365 OFFCURVE",
"1024 1523 OFFCURVE",
"713 1523 CURVE SMOOTH",
"97 1523 LINE",
"97 1479 LINE",
"265 1441 LINE",
"265 83 LINE",
"97 45 LINE",
"97 0 LINE"
);
},
{
closed = 1;
nodes = (
"473 1445 LINE",
"655 1445 LINE SMOOTH",
"737 1445 OFFCURVE",
"788 1439 OFFCURVE",
"831 1421 CURVE SMOOTH",
"945 1375 OFFCURVE",
"1013 1261 OFFCURVE",
"1013 1090 CURVE SMOOTH",
"1013 997 OFFCURVE",
"994 906 OFFCURVE",
"935 837 CURVE SMOOTH",
"877 770 OFFCURVE",
"788 730 OFFCURVE",
"622 730 CURVE SMOOTH",
"473 730 LINE"
);
}
);
width = 1313;
},
{
layerId = "7C8D72FA-6E62-4564-8BB2-D9F9BC4EB15A";
paths = (
{
closed = 1;
nodes = (
"574 0 LINE",
"574 48 LINE",
"391 88 LINE",
"391 651 LINE",
"549 651 LINE SMOOTH",
"829 651 OFFCURVE",
"1002 799 OFFCURVE",
"1002 1071 CURVE SMOOTH",
"1002 1362 OFFCURVE",
"826 1523 OFFCURVE",
"574 1523 CURVE SMOOTH",
"75 1523 LINE",
"75 1475 LINE",
"211 1436 LINE",
"211 88 LINE",
"75 48 LINE",
"75 0 LINE"
);
},
{
closed = 1;
nodes = (
"391 1442 LINE",
"523 1442 LINE SMOOTH",
"592 1442 OFFCURVE",
"634 1434 OFFCURVE",
"670 1412 CURVE SMOOTH",
"755 1365 OFFCURVE",
"805 1254 OFFCURVE",
"805 1090 CURVE SMOOTH",
"805 993 OFFCURVE",
"789 903 OFFCURVE",
"741 835 CURVE SMOOTH",
"694 769 OFFCURVE",
"624 731 OFFCURVE",
"496 731 CURVE SMOOTH",
"391 731 LINE"
);
}
);
width = 1057;
}
);
leftKerningGroup = I;
unicode = 0050;
},
{
glyphname = Thorn;
layers = (
{
layerId = "FA6D65B5-4623-4FAC-A199-3F662257AC29";
paths = (
{
closed = 1;
nodes = (
"671 0 LINE",
"671 73 LINE",
"474 117 LINE",
"474 322 LINE",
"568 322 LINE SMOOTH",
"881 322 OFFCURVE",
"1058 482 OFFCURVE",
"1058 762 CURVE SMOOTH",
"1058 1039 OFFCURVE",
"879 1214 OFFCURVE",
"594 1214 CURVE SMOOTH",
"474 1214 LINE",
"474 1407 LINE",
"671 1451 LINE",
"671 1523 LINE",
"66 1523 LINE",
"66 1451 LINE",
"202 1407 LINE",
"202 117 LINE",
"66 73 LINE",
"66 0 LINE"
);
},
{
closed = 1;
nodes = (
"474 1107 LINE",
"513 1107 LINE SMOOTH",
"610 1107 OFFCURVE",
"670 1084 OFFCURVE",
"710 1034 CURVE SMOOTH",
"749 985 OFFCURVE",
"770 900 OFFCURVE",
"770 780 CURVE SMOOTH",
"770 651 OFFCURVE",
"748 568 OFFCURVE",
"698 510 CURVE SMOOTH",
"650 456 OFFCURVE",
"583 430 OFFCURVE",
"485 430 CURVE SMOOTH",
"474 430 LINE"
);
}
);
width = 1102;
},
{
associatedMasterId = "FA6D65B5-4623-4FAC-A199-3F662257AC29";
layerId = "CBD44848-52BD-4DC5-BFA6-577546B7224D";
paths = (
{
closed = 1;
nodes = (
"698 0 LINE",
"698 45 LINE",
"473 83 LINE",
"473 330 LINE",
"683 330 LINE SMOOTH",
"1027 330 OFFCURVE",
"1241 477 OFFCURVE",
"1241 747 CURVE SMOOTH",
"1241 1041 OFFCURVE",
"1024 1201 OFFCURVE",
"713 1201 CURVE SMOOTH",
"473 1201 LINE",
"473 1441 LINE",
"698 1479 LINE",
"698 1523 LINE",
"97 1523 LINE",
"97 1479 LINE",
"265 1441 LINE",
"265 83 LINE",
"97 45 LINE",
"97 0 LINE"
);
},
{
closed = 1;
nodes = (
"473 1123 LINE",
"655 1123 LINE SMOOTH",
"737 1123 OFFCURVE",
"788 1117 OFFCURVE",
"831 1099 CURVE SMOOTH",
"945 1052 OFFCURVE",
"1013 937 OFFCURVE",
"1013 768 CURVE SMOOTH",
"1013 675 OFFCURVE",
"994 584 OFFCURVE",
"935 515 CURVE SMOOTH",
"877 448 OFFCURVE",
"788 408 OFFCURVE",
"622 408 CURVE SMOOTH",
"473 408 LINE"
);
}
);
width = 1316;
},
{
layerId = "7C8D72FA-6E62-4564-8BB2-D9F9BC4EB15A";
paths = (
{
closed = 1;
nodes = (
"574 0 LINE",
"574 48 LINE",
"391 88 LINE",
"391 329 LINE",
"549 329 LINE SMOOTH",
"829 329 OFFCURVE",
"1002 478 OFFCURVE",
"1002 750 CURVE SMOOTH",
"1002 1041 OFFCURVE",
"826 1202 OFFCURVE",
"574 1202 CURVE SMOOTH",
"391 1202 LINE",
"391 1436 LINE",
"574 1475 LINE",
"574 1523 LINE",
"75 1523 LINE",
"75 1475 LINE",
"211 1436 LINE",
"211 88 LINE",
"75 48 LINE",
"75 0 LINE"
);
},
{
closed = 1;
nodes = (
"391 1120 LINE",
"523 1120 LINE SMOOTH",
"592 1120 OFFCURVE",
"634 1112 OFFCURVE",
"670 1090 CURVE SMOOTH",
"755 1043 OFFCURVE",
"805 933 OFFCURVE",
"805 769 CURVE SMOOTH",
"805 671 OFFCURVE",
"789 582 OFFCURVE",
"741 515 CURVE SMOOTH",
"694 449 OFFCURVE",
"624 411 OFFCURVE",
"496 411 CURVE SMOOTH",
"391 411 LINE"
);
}
);
width = 1059;
}
);
leftKerningGroup = I;
unicode = 00DE;
},
{
glyphname = Q;
layers = (
{
layerId = "FA6D65B5-4623-4FAC-A199-3F662257AC29";
paths = (
{
closed = 1;
nodes = (
"472 -386 OFFCURVE",
"521 -326 OFFCURVE",
"521 -250 CURVE SMOOTH",
"521 -195 OFFCURVE",
"491 -169 OFFCURVE",
"491 -127 CURVE SMOOTH",
"491 -73 OFFCURVE",
"530 -44 OFFCURVE",
"584 -44 CURVE SMOOTH",
"659 -44 OFFCURVE",
"713 -85 OFFCURVE",
"805 -212 CURVE SMOOTH",
"898 -341 OFFCURVE",
"955 -383 OFFCURVE",
"1033 -383 CURVE SMOOTH",
"1148 -383 OFFCURVE",
"1269 -276 OFFCURVE",
"1338 -68 CURVE",
"1290 -28 LINE",
"1240 -91 OFFCURVE",
"1190 -113 OFFCURVE",
"1125 -113 CURVE SMOOTH",
"1009 -113 OFFCURVE",
"898 -41 OFFCURVE",
"819 -10 CURVE",
"819 -2 LINE",
"1130 70 OFFCURVE",
"1305 383 OFFCURVE",
"1305 762 CURVE SMOOTH",
"1305 1192 OFFCURVE",
"1085 1544 OFFCURVE",
"687 1544 CURVE SMOOTH",
"291 1544 OFFCURVE",
"71 1192 OFFCURVE",
"71 762 CURVE SMOOTH",
"71 419 OFFCURVE",
"218 127 OFFCURVE",
"475 22 CURVE",
"475 14 LINE",
"365 -41 OFFCURVE",
"296 -127 OFFCURVE",
"296 -234 CURVE SMOOTH",
"296 -320 OFFCURVE",
"340 -386 OFFCURVE",
"406 -386 CURVE SMOOTH"
);
},
{
closed = 1;
nodes = (
"432 75 OFFCURVE",
"383 479 OFFCURVE",
"383 758 CURVE SMOOTH",
"383 1033 OFFCURVE",
"431 1424 OFFCURVE",
"689 1424 CURVE SMOOTH",
"946 1424 OFFCURVE",
"993 1033 OFFCURVE",
"993 762 CURVE SMOOTH",
"993 479 OFFCURVE",
"943 75 OFFCURVE",
"687 75 CURVE SMOOTH"
);
}
);
width = 1375;
},
{
associatedMasterId = "FA6D65B5-4623-4FAC-A199-3F662257AC29";
layerId = "CBD44848-52BD-4DC5-BFA6-577546B7224D";
paths = (
{
closed = 1;
nodes = (
"564 -317 OFFCURVE",
"607 -275 OFFCURVE",
"607 -218 CURVE SMOOTH",
"607 -168 OFFCURVE",
"573 -159 OFFCURVE",
"573 -113 CURVE SMOOTH",
"573 -63 OFFCURVE",
"611 -24 OFFCURVE",
"697 -24 CURVE SMOOTH",
"930 -24 OFFCURVE",
"1000 -325 OFFCURVE",
"1247 -325 CURVE SMOOTH",
"1383 -325 OFFCURVE",
"1518 -234 OFFCURVE",
"1599 -47 CURVE",
"1546 -28 LINE",
"1492 -99 OFFCURVE",
"1441 -132 OFFCURVE",
"1352 -132 CURVE SMOOTH",
"1187 -132 OFFCURVE",
"1063 -25 OFFCURVE",
"928 6 CURVE",
"928 14 LINE",
"1297 44 OFFCURVE",
"1546 367 OFFCURVE",
"1546 762 CURVE SMOOTH",
"1546 1208 OFFCURVE",
"1237 1544 OFFCURVE",
"828 1544 CURVE SMOOTH",
"417 1544 OFFCURVE",
"109 1208 OFFCURVE",
"109 762 CURVE SMOOTH",
"109 402 OFFCURVE",
"317 101 OFFCURVE",
"625 33 CURVE",
"625 25 LINE",
"491 -25 OFFCURVE",
"408 -113 OFFCURVE",
"408 -208 CURVE SMOOTH",
"408 -273 OFFCURVE",
"448 -317 OFFCURVE",
"507 -317 CURVE SMOOTH"
);
},
{
closed = 1;
nodes = (
"534 70 OFFCURVE",
"359 330 OFFCURVE",
"359 763 CURVE SMOOTH",
"359 1198 OFFCURVE",
"534 1455 OFFCURVE",
"829 1455 CURVE SMOOTH",
"1123 1455 OFFCURVE",
"1297 1200 OFFCURVE",
"1297 766 CURVE SMOOTH",
"1297 330 OFFCURVE",
"1120 70 OFFCURVE",
"828 70 CURVE SMOOTH"
);
}
);
width = 1655;
},
{
layerId = "7C8D72FA-6E62-4564-8BB2-D9F9BC4EB15A";
paths = (
{
closed = 1;
nodes = (
"454 -326 OFFCURVE",
"490 -282 OFFCURVE",
"490 -222 CURVE SMOOTH",
"490 -175 OFFCURVE",
"463 -158 OFFCURVE",
"463 -114 CURVE SMOOTH",
"463 -64 OFFCURVE",
"494 -26 OFFCURVE",
"561 -26 CURVE SMOOTH",
"631 -26 OFFCURVE",
"685 -64 OFFCURVE",
"776 -176 CURVE SMOOTH",
"838 -254 OFFCURVE",
"902 -333 OFFCURVE",
"1002 -333 CURVE SMOOTH",
"1112 -333 OFFCURVE",
"1222 -240 OFFCURVE",
"1287 -50 CURVE",
"1244 -28 LINE",
"1200 -98 OFFCURVE",
"1157 -130 OFFCURVE",
"1087 -130 CURVE SMOOTH",
"962 -130 OFFCURVE",
"856 -29 OFFCURVE",
"753 3 CURVE",
"753 12 LINE",
"1050 47 OFFCURVE",
"1246 370 OFFCURVE",
"1246 762 CURVE SMOOTH",
"1246 1206 OFFCURVE",
"1002 1544 OFFCURVE",
"665 1544 CURVE SMOOTH",
"328 1544 OFFCURVE",
"85 1206 OFFCURVE",
"85 762 CURVE SMOOTH",
"85 404 OFFCURVE",
"249 105 OFFCURVE",
"497 32 CURVE",
"497 24 LINE",
"389 -28 OFFCURVE",
"322 -114 OFFCURVE",
"322 -212 CURVE SMOOTH",
"322 -280 OFFCURVE",
"355 -326 OFFCURVE",
"406 -326 CURVE SMOOTH"
);
},
{
closed = 1;
nodes = (
"428 70 OFFCURVE",
"299 350 OFFCURVE",
"299 762 CURVE SMOOTH",
"299 1176 OFFCURVE",
"427 1451 OFFCURVE",
"667 1451 CURVE SMOOTH",
"905 1451 OFFCURVE",
"1032 1178 OFFCURVE",
"1032 766 CURVE SMOOTH",
"1032 350 OFFCURVE",
"902 70 OFFCURVE",
"665 70 CURVE SMOOTH"
);
}
);
width = 1330;
}
);
leftKerningGroup = O;
rightKerningGroup = O;
unicode = 0051;
},
{
glyphname = R;
layers = (
{
anchors = (
{
name = bottom;
position = "{690, 0}";
},
{
name = topcap;
position = "{574, 1643}";
}
);
layerId = "FA6D65B5-4623-4FAC-A199-3F662257AC29";
paths = (
{
closed = 1;
nodes = (
"654 0 LINE",
"654 73 LINE",
"474 117 LINE",
"474 663 LINE",
"538 663 LINE",
"857 0 LINE",
"1289 0 LINE",
"1289 73 LINE",
"1144 112 LINE",
"839 705 LINE",
"979 768 OFFCURVE",
"1060 898 OFFCURVE",
"1060 1090 CURVE SMOOTH",
"1060 1371 OFFCURVE",
"887 1523 OFFCURVE",
"638 1523 CURVE SMOOTH",
"66 1523 LINE",
"66 1451 LINE",
"202 1409 LINE",
"202 117 LINE",
"66 73 LINE",
"66 0 LINE"
);
},
{
closed = 1;
nodes = (
"474 1416 LINE",
"506 1416 LINE SMOOTH",
"571 1416 OFFCURVE",
"610 1409 OFFCURVE",
"646 1391 CURVE SMOOTH",
"727 1350 OFFCURVE",
"784 1253 OFFCURVE",
"784 1110 CURVE SMOOTH",
"784 1026 OFFCURVE",
"766 942 OFFCURVE",
"720 877 CURVE SMOOTH",
"676 812 OFFCURVE",
"610 770 OFFCURVE",
"496 770 CURVE SMOOTH",
"474 770 LINE"
);
}
);
width = 1232;
},
{
anchors = (
{
name = bottom;
position = "{784, 0}";
},
{
name = topcap;
position = "{729, 1643}";
}
);
associatedMasterId = "FA6D65B5-4623-4FAC-A199-3F662257AC29";
layerId = "CBD44848-52BD-4DC5-BFA6-577546B7224D";
paths = (
{
closed = 1;
nodes = (
"698 0 LINE",
"698 45 LINE",
"473 83 LINE",
"473 693 LINE",
"663 693 LINE",
"1107 0 LINE",
"1536 0 LINE",
"1536 45 LINE",
"1310 83 LINE",
"888 716 LINE",
"1099 766 OFFCURVE",
"1222 892 OFFCURVE",
"1222 1090 CURVE SMOOTH",
"1222 1371 OFFCURVE",
"1003 1523 OFFCURVE",
"693 1523 CURVE SMOOTH",
"97 1523 LINE",
"97 1479 LINE",
"265 1441 LINE",
"265 83 LINE",
"97 45 LINE",
"97 0 LINE"
);
},
{
closed = 1;
nodes = (
"473 1445 LINE",
"636 1445 LINE SMOOTH",
"716 1445 OFFCURVE",
"766 1439 OFFCURVE",
"812 1421 CURVE SMOOTH",
"927 1375 OFFCURVE",
"994 1271 OFFCURVE",
"994 1110 CURVE SMOOTH",
"994 1026 OFFCURVE",
"972 942 OFFCURVE",
"914 877 CURVE SMOOTH",
"854 812 OFFCURVE",
"768 770 OFFCURVE",
"601 770 CURVE SMOOTH",
"473 770 LINE"
);
}
);
width = 1451;
},
{
anchors = (
{
name = bottom;
position = "{636, 0}";
},
{
name = topcap;
position = "{582, 1643}";
}
);
layerId = "7C8D72FA-6E62-4564-8BB2-D9F9BC4EB15A";
paths = (
{
closed = 1;
nodes = (
"571 0 LINE",
"571 48 LINE",
"391 88 LINE",
"391 689 LINE",
"531 689 LINE",
"882 0 LINE",
"1237 0 LINE",
"1237 48 LINE",
"1062 88 LINE",
"728 715 LINE",
"893 766 OFFCURVE",
"989 894 OFFCURVE",
"989 1090 CURVE SMOOTH",
"989 1371 OFFCURVE",
"814 1523 OFFCURVE",
"566 1523 CURVE SMOOTH",
"75 1523 LINE",
"75 1475 LINE",
"211 1436 LINE",
"211 88 LINE",
"75 48 LINE",
"75 0 LINE"
);
},
{
closed = 1;
nodes = (
"391 1442 LINE",
"507 1442 LINE SMOOTH",
"573 1442 OFFCURVE",
"613 1435 OFFCURVE",
"650 1417 CURVE SMOOTH",
"740 1371 OFFCURVE",
"794 1268 OFFCURVE",
"794 1110 CURVE SMOOTH",
"794 1026 OFFCURVE",
"776 942 OFFCURVE",
"730 877 CURVE SMOOTH",
"682 812 OFFCURVE",
"614 770 OFFCURVE",
"484 770 CURVE SMOOTH",
"391 770 LINE"
);
}
);
width = 1170;
}
);
leftKerningGroup = I;
rightKerningGroup = R;
unicode = 0052;
},
{
glyphname = S;
layers = (
{
anchors = (
{
name = bottom;
position = "{516, 0}";
},
{
name = topcap;
position = "{515, 1643}";
}
);
layerId = "FA6D65B5-4623-4FAC-A199-3F662257AC29";
paths = (
{
closed = 1;
nodes = (
"756 -18 OFFCURVE",
"943 176 OFFCURVE",
"943 432 CURVE SMOOTH",
"943 646 OFFCURVE",
"862 791 OFFCURVE",
"661 919 CURVE SMOOTH",
"534 1000 LINE SMOOTH",
"400 1085 OFFCURVE",
"352 1148 OFFCURVE",
"352 1239 CURVE SMOOTH",
"352 1356 OFFCURVE",
"416 1427 OFFCURVE",
"525 1427 CURVE SMOOTH",
"679 1427 OFFCURVE",
"779 1313 OFFCURVE",
"831 1088 CURVE",
"901 1088 LINE",
"886 1526 LINE",
"833 1526 LINE",
"795 1421 LINE",
"716 1505 OFFCURVE",
"626 1544 OFFCURVE",
"517 1544 CURVE SMOOTH",
"286 1544 OFFCURVE",
"110 1368 OFFCURVE",
"110 1126 CURVE SMOOTH",
"110 917 OFFCURVE",
"205 765 OFFCURVE",
"414 636 CURVE SMOOTH",
"543 556 LINE SMOOTH",
"680 473 OFFCURVE",
"730 406 OFFCURVE",
"730 322 CURVE SMOOTH",
"730 182 OFFCURVE",
"644 97 OFFCURVE",
"510 97 CURVE SMOOTH",
"323 97 OFFCURVE",
"218 223 OFFCURVE",
"150 520 CURVE",
"84 507 LINE",
"115 0 LINE",
"165 0 LINE",
"220 81 LINE",
"326 13 OFFCURVE",
"414 -18 OFFCURVE",
"513 -18 CURVE SMOOTH"
);
}
);
width = 1024;
},
{
anchors = (
{
name = bottom;
position = "{600, 0}";
},
{
name = topcap;
position = "{609, 1643}";
}
);
associatedMasterId = "FA6D65B5-4623-4FAC-A199-3F662257AC29";
layerId = "CBD44848-52BD-4DC5-BFA6-577546B7224D";
paths = (
{
closed = 1;
nodes = (
"861 -18 OFFCURVE",
"1067 176 OFFCURVE",
"1067 430 CURVE SMOOTH",
"1067 900 OFFCURVE",
"364 846 OFFCURVE",
"364 1232 CURVE SMOOTH",
"364 1373 OFFCURVE",
"457 1459 OFFCURVE",
"607 1459 CURVE SMOOTH",
"788 1459 OFFCURVE",
"903 1340 OFFCURVE",
"966 1088 CURVE",
"1018 1088 LINE",
"1000 1523 LINE",
"960 1523 LINE",
"896 1421 LINE",
"810 1505 OFFCURVE",
"716 1544 OFFCURVE",
"599 1544 CURVE SMOOTH",
"347 1544 OFFCURVE",
"157 1366 OFFCURVE",
"157 1126 CURVE SMOOTH",
"157 659 OFFCURVE",
"886 702 OFFCURVE",
"886 312 CURVE SMOOTH",
"886 161 OFFCURVE",
"772 68 OFFCURVE",
"590 68 CURVE SMOOTH",
"374 68 OFFCURVE",
"253 200 OFFCURVE",
"174 518 CURVE",
"124 507 LINE",
"161 0 LINE",
"200 0 LINE",
"279 81 LINE",
"392 13 OFFCURVE",
"489 -18 OFFCURVE",
"596 -18 CURVE SMOOTH"
);
}
);
width = 1185;
},
{
anchors = (
{
name = bottom;
position = "{485, 0}";
},
{
name = topcap;
position = "{491, 1643}";
}
);
layerId = "7C8D72FA-6E62-4564-8BB2-D9F9BC4EB15A";
paths = (
{
closed = 1;
nodes = (
"698 -18 OFFCURVE",
"866 176 OFFCURVE",
"866 430 CURVE SMOOTH",
"866 600 OFFCURVE",
"797 729 OFFCURVE",
"634 837 CURVE SMOOTH",
"514 917 LINE SMOOTH",
"358 1020 OFFCURVE",
"299 1109 OFFCURVE",
"299 1233 CURVE SMOOTH",
"299 1370 OFFCURVE",
"373 1454 OFFCURVE",
"491 1454 CURVE SMOOTH",
"637 1454 OFFCURVE",
"730 1337 OFFCURVE",
"780 1088 CURVE",
"826 1088 LINE",
"811 1525 LINE",
"777 1525 LINE",
"728 1421 LINE",
"657 1505 OFFCURVE",
"580 1544 OFFCURVE",
"484 1544 CURVE SMOOTH",
"278 1544 OFFCURVE",
"123 1366 OFFCURVE",
"123 1126 CURVE SMOOTH",
"123 948 OFFCURVE",
"202 826 OFFCURVE",
"402 692 CURVE SMOOTH",
"525 611 LINE SMOOTH",
"657 517 OFFCURVE",
"711 431 OFFCURVE",
"711 314 CURVE SMOOTH",
"711 164 OFFCURVE",
"621 71 OFFCURVE",
"476 71 CURVE SMOOTH",
"303 71 OFFCURVE",
"205 204 OFFCURVE",
"141 518 CURVE",
"98 507 LINE",
"127 0 LINE",
"160 0 LINE",
"223 81 LINE",
"315 13 OFFCURVE",
"394 -18 OFFCURVE",
"482 -18 CURVE SMOOTH"
);
}
);
width = 958;
},
{
anchors = (
{
name = bottom;
position = "{645, 0}";
},
{
name = topcap;
position = "{644, 1643}";
}
);
associatedMasterId = "FA6D65B5-4623-4FAC-A199-3F662257AC29";
layerId = "7F81D59E-4BE4-4EC1-9AB4-A0A267374C41";
name = "Jan 7 19, 12:32";
paths = (
{
closed = 1;
nodes = (
"945 -18 OFFCURVE",
"1179 176 OFFCURVE",
"1179 432 CURVE SMOOTH",
"1179 978 OFFCURVE",
"440 940 OFFCURVE",
"440 1239 CURVE SMOOTH",
"440 1356 OFFCURVE",
"520 1427 OFFCURVE",
"656 1427 CURVE SMOOTH",
"849 1427 OFFCURVE",
"974 1313 OFFCURVE",
"1039 1088 CURVE",
"1126 1088 LINE",
"1107 1526 LINE",
"1041 1526 LINE",
"994 1421 LINE",
"895 1505 OFFCURVE",
"782 1544 OFFCURVE",
"646 1544 CURVE SMOOTH",
"357 1544 OFFCURVE",
"138 1368 OFFCURVE",
"138 1126 CURVE SMOOTH",
"138 590 OFFCURVE",
"912 615 OFFCURVE",
"912 322 CURVE SMOOTH",
"912 182 OFFCURVE",
"805 97 OFFCURVE",
"638 97 CURVE SMOOTH",
"404 97 OFFCURVE",
"273 223 OFFCURVE",
"188 520 CURVE",
"105 507 LINE",
"144 0 LINE",
"206 0 LINE",
"275 81 LINE",
"408 13 OFFCURVE",
"518 -18 OFFCURVE",
"641 -18 CURVE SMOOTH"
);
}
);
width = 1280;
},
{
anchors = (
{
name = bottom;
position = "{606, 0}";
},
{
name = topcap;
position = "{614, 1643}";
}
);
associatedMasterId = "7C8D72FA-6E62-4564-8BB2-D9F9BC4EB15A";
layerId = "F4CC0A2C-F035-45D2-AECC-B4E90B321E76";
name = "Jan 7 19, 13:03";
paths = (
{
closed = 1;
nodes = (
"873 -18 OFFCURVE",
"1082 176 OFFCURVE",
"1082 430 CURVE SMOOTH",
"1082 911 OFFCURVE",
"374 859 OFFCURVE",
"374 1233 CURVE SMOOTH",
"374 1370 OFFCURVE",
"466 1454 OFFCURVE",
"614 1454 CURVE SMOOTH",
"796 1454 OFFCURVE",
"912 1337 OFFCURVE",
"975 1088 CURVE",
"1032 1088 LINE",
"1014 1525 LINE",
"971 1525 LINE",
"910 1421 LINE",
"821 1505 OFFCURVE",
"725 1544 OFFCURVE",
"605 1544 CURVE SMOOTH",
"348 1544 OFFCURVE",
"154 1366 OFFCURVE",
"154 1126 CURVE SMOOTH",
"154 649 OFFCURVE",
"889 691 OFFCURVE",
"889 314 CURVE SMOOTH",
"889 164 OFFCURVE",
"776 71 OFFCURVE",
"595 71 CURVE SMOOTH",
"379 71 OFFCURVE",
"256 204 OFFCURVE",
"176 518 CURVE",
"122 507 LINE",
"159 0 LINE",
"200 0 LINE",
"279 81 LINE",
"394 13 OFFCURVE",
"493 -18 OFFCURVE",
"602 -18 CURVE SMOOTH"
);
}
);
visible = 1;
width = 1198;
}
);
leftKerningGroup = S;
rightKerningGroup = S;
unicode = 0053;
},
{
glyphname = Schwa;
layers = (
{
layerId = "FA6D65B5-4623-4FAC-A199-3F662257AC29";
paths = (
{
closed = 1;
nodes = (
"930 -21 OFFCURVE",
"1181 303 OFFCURVE",
"1181 784 CURVE SMOOTH",
"1181 1239 OFFCURVE",
"956 1546 OFFCURVE",
"626 1546 CURVE SMOOTH",
"377 1546 OFFCURVE",
"160 1377 OFFCURVE",
"96 1133 CURVE",
"142 1094 LINE",
"236 1249 OFFCURVE",
"378 1338 OFFCURVE",
"534 1338 CURVE SMOOTH",
"760 1338 OFFCURVE",
"872 1130 OFFCURVE",
"872 713 CURVE SMOOTH",
"872 311 OFFCURVE",
"768 99 OFFCURVE",
"568 99 CURVE SMOOTH",
"427 99 OFFCURVE",
"350 208 OFFCURVE",
"350 406 CURVE SMOOTH",
"350 440 OFFCURVE",
"353 481 OFFCURVE",
"357 512 CURVE",
"990 540 LINE",
"990 641 LINE",
"69 641 LINE",
"53 623 LINE",
"57 211 OFFCURVE",
"234 -21 OFFCURVE",
"553 -21 CURVE SMOOTH"
);
}
);
width = 1254;
},
{
associatedMasterId = "FA6D65B5-4623-4FAC-A199-3F662257AC29";
layerId = "CBD44848-52BD-4DC5-BFA6-577546B7224D";
paths = (
{
closed = 1;
nodes = (
"1118 -21 OFFCURVE",
"1416 307 OFFCURVE",
"1416 786 CURVE SMOOTH",
"1416 1239 OFFCURVE",
"1150 1546 OFFCURVE",
"755 1546 CURVE SMOOTH",
"477 1546 OFFCURVE",
"231 1398 OFFCURVE",
"140 1175 CURVE SMOOTH",
"124 1133 LINE",
"172 1104 LINE",
"206 1148 LINE SMOOTH",
"320 1300 OFFCURVE",
"474 1377 OFFCURVE",
"667 1377 CURVE SMOOTH",
"991 1377 OFFCURVE",
"1168 1142 OFFCURVE",
"1168 714 CURVE SMOOTH",
"1168 299 OFFCURVE",
"1002 70 OFFCURVE",
"698 70 CURVE SMOOTH",
"471 70 OFFCURVE",
"352 188 OFFCURVE",
"352 413 CURVE SMOOTH",
"352 471 OFFCURVE",
"360 510 OFFCURVE",
"360 537 CURVE",
"1189 564 LINE",
"1189 641 LINE",
"113 641 LINE",
"93 623 LINE",
"101 203 OFFCURVE",
"303 -21 OFFCURVE",
"677 -21 CURVE SMOOTH"
);
}
);
width = 1528;
},
{
layerId = "7C8D72FA-6E62-4564-8BB2-D9F9BC4EB15A";
paths = (
{
closed = 1;
nodes = (
"899 -21 OFFCURVE",
"1139 306 OFFCURVE",
"1139 785 CURVE SMOOTH",
"1139 1239 OFFCURVE",
"925 1546 OFFCURVE",
"607 1546 CURVE SMOOTH",
"350 1546 OFFCURVE",
"172 1388 OFFCURVE",
"99 1133 CURVE",
"138 1103 LINE",
"245 1290 OFFCURVE",
"366 1373 OFFCURVE",
"534 1373 CURVE SMOOTH",
"790 1373 OFFCURVE",
"926 1141 OFFCURVE",
"926 714 CURVE SMOOTH",
"926 301 OFFCURVE",
"797 74 OFFCURVE",
"560 74 CURVE SMOOTH",
"383 74 OFFCURVE",
"291 190 OFFCURVE",
"291 412 CURVE SMOOTH",
"291 468 OFFCURVE",
"294 507 OFFCURVE",
"297 533 CURVE",
"957 561 LINE",
"957 641 LINE",
"87 641 LINE",
"72 623 LINE",
"78 204 OFFCURVE",
"242 -21 OFFCURVE",
"542 -21 CURVE SMOOTH"
);
}
);
width = 1227;
},
{
associatedMasterId = "7C8D72FA-6E62-4564-8BB2-D9F9BC4EB15A";
layerId = "CF48896F-2BD3-42F6-BF7B-6BB773587460";
name = "Jan 7 19, 13:06";
paths = (
{
closed = 1;
nodes = (
"1124 -21 OFFCURVE",
"1424 306 OFFCURVE",
"1424 785 CURVE SMOOTH",
"1424 1239 OFFCURVE",
"1156 1546 OFFCURVE",
"759 1546 CURVE SMOOTH",
"478 1546 OFFCURVE",
"230 1397 OFFCURVE",
"139 1175 CURVE SMOOTH",
"124 1133 LINE",
"173 1103 LINE",
"207 1147 LINE SMOOTH",
"319 1294 OFFCURVE",
"477 1373 OFFCURVE",
"667 1373 CURVE SMOOTH",
"987 1373 OFFCURVE",
"1157 1141 OFFCURVE",
"1157 714 CURVE SMOOTH",
"1157 301 OFFCURVE",
"996 74 OFFCURVE",
"700 74 CURVE SMOOTH",
"479 74 OFFCURVE",
"364 190 OFFCURVE",
"364 412 CURVE SMOOTH",
"364 468 OFFCURVE",
"367 507 OFFCURVE",
"371 533 CURVE",
"1196 561 LINE",
"1196 641 LINE",
"109 641 LINE",
"90 623 LINE",
"97 204 OFFCURVE",
"302 -21 OFFCURVE",
"678 -21 CURVE SMOOTH"
);
}
);
visible = 1;
width = 1534;
},
{
associatedMasterId = "FA6D65B5-4623-4FAC-A199-3F662257AC29";
layerId = "F34E63B7-3038-473A-9096-18807603FB47";
name = "Jan 7 19, 13:07";
paths = (
{
closed = 1;
nodes = (
"1162 -21 OFFCURVE",
"1476 303 OFFCURVE",
"1476 784 CURVE SMOOTH",
"1476 1239 OFFCURVE",
"1195 1546 OFFCURVE",
"782 1546 CURVE SMOOTH",
"489 1546 OFFCURVE",
"221 1393 OFFCURVE",
"135 1175 CURVE SMOOTH",
"120 1133 LINE",
"177 1094 LINE",
"214 1138 LINE SMOOTH",
"312 1259 OFFCURVE",
"491 1338 OFFCURVE",
"667 1338 CURVE SMOOTH",
"950 1338 OFFCURVE",
"1090 1130 OFFCURVE",
"1090 713 CURVE SMOOTH",
"1090 311 OFFCURVE",
"960 99 OFFCURVE",
"710 99 CURVE SMOOTH",
"534 99 OFFCURVE",
"438 208 OFFCURVE",
"438 406 CURVE SMOOTH",
"438 440 OFFCURVE",
"441 481 OFFCURVE",
"446 512 CURVE",
"1237 540 LINE",
"1237 641 LINE",
"86 641 LINE",
"66 623 LINE",
"71 211 OFFCURVE",
"292 -21 OFFCURVE",
"691 -21 CURVE SMOOTH"
);
}
);
width = 1567;
}
);
rightKerningGroup = O;
unicode = 018F;
},
{
glyphname = T;
layers = (
{
anchors = (
{
name = bottom;
position = "{616, -5}";
},
{
name = topcap;
position = "{616, 1643}";
}
);
layerId = "FA6D65B5-4623-4FAC-A199-3F662257AC29";
paths = (
{
closed = 1;
nodes = (
"942 0 LINE",
"942 73 LINE",
"754 117 LINE",
"754 1415 LINE",
"1012 1415 LINE",
"1080 1307 OFFCURVE",
"1121 1177 OFFCURVE",
"1153 1069 CURVE",
"1214 1069 LINE",
"1156 1523 LINE",
"75 1523 LINE",
"18 1069 LINE",
"79 1069 LINE",
"110 1177 OFFCURVE",
"157 1307 OFFCURVE",
"225 1415 CURVE",
"482 1415 LINE",
"482 117 LINE",
"293 73 LINE",
"293 0 LINE"
);
}
);
width = 1232;
},
{
anchors = (
{
name = bottom;
position = "{750, -5}";
},
{
name = topcap;
position = "{750, 1643}";
}
);
associatedMasterId = "FA6D65B5-4623-4FAC-A199-3F662257AC29";
layerId = "CBD44848-52BD-4DC5-BFA6-577546B7224D";
paths = (
{
closed = 1;
nodes = (
"1069 0 LINE",
"1069 45 LINE",
"853 83 LINE",
"853 1445 LINE",
"1245 1445 LINE",
"1330 1331 OFFCURVE",
"1388 1201 OFFCURVE",
"1427 1088 CURVE",
"1474 1088 LINE",
"1401 1523 LINE",
"91 1523 LINE",
"18 1088 LINE",
"66 1088 LINE",
"105 1201 OFFCURVE",
"162 1331 OFFCURVE",
"248 1445 CURVE",
"646 1445 LINE",
"646 83 LINE",
"427 45 LINE",
"427 0 LINE"
);
}
);
width = 1492;
},
{
anchors = (
{
name = bottom;
position = "{602, -5}";
},
{
name = topcap;
position = "{602, 1643}";
}
);
layerId = "7C8D72FA-6E62-4564-8BB2-D9F9BC4EB15A";
paths = (
{
closed = 1;
nodes = (
"866 0 LINE",
"866 48 LINE",
"692 88 LINE",
"692 1441 LINE",
"998 1441 LINE",
"1066 1328 OFFCURVE",
"1112 1198 OFFCURVE",
"1143 1086 CURVE",
"1184 1086 LINE",
"1126 1523 LINE",
"73 1523 LINE",
"14 1086 LINE",
"56 1086 LINE",
"87 1198 OFFCURVE",
"134 1328 OFFCURVE",
"202 1441 CURVE",
"512 1441 LINE",
"512 88 LINE",
"335 48 LINE",
"335 0 LINE"
);
}
);
width = 1198;
}
);
leftKerningGroup = T;
rightKerningGroup = T;
unicode = 0054;
},
{
glyphname = Tbar;
layers = (
{
components = (
{
name = T;
transform = "{1, 0, 0, 1, 2, 0}";
}
);
layerId = "FA6D65B5-4623-4FAC-A199-3F662257AC29";
paths = (
{
closed = 1;
nodes = (
"1009 727 LINE",
"1009 895 LINE",
"233 895 LINE",
"233 727 LINE"
);
}
);
width = 1235;
},
{
associatedMasterId = "FA6D65B5-4623-4FAC-A199-3F662257AC29";
components = (
{
name = T;
}
);
layerId = "CBD44848-52BD-4DC5-BFA6-577546B7224D";
paths = (
{
closed = 1;
nodes = (
"1170 746 LINE",
"1170 875 LINE",
"328 875 LINE",
"328 746 LINE"
);
}
);
width = 1492;
},
{
components = (
{
alignment = -1;
name = T;
}
);
layerId = "7C8D72FA-6E62-4564-8BB2-D9F9BC4EB15A";
paths = (
{
closed = 1;
nodes = (
"945 744 LINE",
"945 877 LINE",
"259 877 LINE",
"259 744 LINE"
);
}
);
width = 1199;
}
);
leftKerningGroup = T;
rightKerningGroup = T;
unicode = 0166;
},
{
glyphname = U;
layers = (
{
anchors = (
{
name = bottom;
position = "{716, 0}";
},
{
name = ogonekcurvecap;
position = "{979, 94}";
},
{
name = topcap;
position = "{738, 1643}";
}
);
layerId = "FA6D65B5-4623-4FAC-A199-3F662257AC29";
paths = (
{
closed = 1;
nodes = (
"854 -21 OFFCURVE",
"979 50 OFFCURVE",
"1052 190 CURVE SMOOTH",
"1098 283 OFFCURVE",
"1125 409 OFFCURVE",
"1125 560 CURVE SMOOTH",
"1125 1414 LINE",
"1265 1451 LINE",
"1265 1523 LINE",
"875 1523 LINE",
"875 1451 LINE",
"1015 1414 LINE",
"1015 672 LINE SMOOTH",
"1015 443 OFFCURVE",
"994 312 OFFCURVE",
"945 227 CURVE SMOOTH",
"898 146 OFFCURVE",
"823 104 OFFCURVE",
"727 104 CURVE SMOOTH",
"551 104 OFFCURVE",
"451 260 OFFCURVE",
"451 529 CURVE SMOOTH",
"451 1414 LINE",
"590 1451 LINE",
"590 1523 LINE",
"42 1523 LINE",
"42 1451 LINE",
"175 1414 LINE",
"175 529 LINE SMOOTH",
"175 364 OFFCURVE",
"194 268 OFFCURVE",
"244 192 CURVE SMOOTH",
"327 55 OFFCURVE",
"479 -21 OFFCURVE",
"670 -21 CURVE SMOOTH"
);
}
);
width = 1300;
},
{
anchors = (
{
name = bottom;
position = "{793, 0}";
},
{
name = topcap;
position = "{843, 1643}";
}
);
associatedMasterId = "FA6D65B5-4623-4FAC-A199-3F662257AC29";
layerId = "CBD44848-52BD-4DC5-BFA6-577546B7224D";
paths = (
{
closed = 1;
nodes = (
"978 -21 OFFCURVE",
"1133 45 OFFCURVE",
"1211 159 CURVE SMOOTH",
"1263 235 OFFCURVE",
"1286 344 OFFCURVE",
"1286 510 CURVE SMOOTH",
"1286 1441 LINE",
"1464 1479 LINE",
"1464 1523 LINE",
"1032 1523 LINE",
"1032 1479 LINE",
"1208 1441 LINE",
"1208 594 LINE SMOOTH",
"1208 383 OFFCURVE",
"1185 264 OFFCURVE",
"1132 192 CURVE SMOOTH",
"1073 112 OFFCURVE",
"962 70 OFFCURVE",
"820 70 CURVE SMOOTH",
"596 70 OFFCURVE",
"451 198 OFFCURVE",
"451 450 CURVE SMOOTH",
"451 1441 LINE",
"628 1479 LINE",
"628 1523 LINE",
"66 1523 LINE",
"66 1479 LINE",
"243 1441 LINE",
"243 479 LINE SMOOTH",
"243 314 OFFCURVE",
"268 231 OFFCURVE",
"320 162 CURVE SMOOTH",
"408 47 OFFCURVE",
"573 -21 OFFCURVE",
"778 -21 CURVE SMOOTH"
);
}
);
width = 1531;
},
{
anchors = (
{
name = bottom;
position = "{646, 0}";
},
{
name = ogonekcurvecap;
position = "{930, 94}";
},
{
name = topcap;
position = "{683, 1643}";
}
);
layerId = "7C8D72FA-6E62-4564-8BB2-D9F9BC4EB15A";
paths = (
{
closed = 1;
nodes = (
"791 -21 OFFCURVE",
"917 46 OFFCURVE",
"980 162 CURVE SMOOTH",
"1022 242 OFFCURVE",
"1042 352 OFFCURVE",
"1042 517 CURVE SMOOTH",
"1042 1437 LINE",
"1184 1475 LINE",
"1184 1523 LINE",
"832 1523 LINE",
"832 1475 LINE",
"973 1437 LINE",
"973 605 LINE SMOOTH",
"973 392 OFFCURVE",
"954 269 OFFCURVE",
"911 197 CURVE SMOOTH",
"863 116 OFFCURVE",
"777 74 OFFCURVE",
"665 74 CURVE SMOOTH",
"486 74 OFFCURVE",
"373 206 OFFCURVE",
"373 461 CURVE SMOOTH",
"373 1437 LINE",
"514 1475 LINE",
"514 1523 LINE",
"50 1523 LINE",
"50 1475 LINE",
"192 1437 LINE",
"192 486 LINE SMOOTH",
"192 321 OFFCURVE",
"212 236 OFFCURVE",
"254 166 CURVE SMOOTH",
"327 48 OFFCURVE",
"462 -21 OFFCURVE",
"629 -21 CURVE SMOOTH"
);
}
);
width = 1235;
}
);
leftKerningGroup = U;
rightKerningGroup = U;
unicode = 0055;
},
{
glyphname = V;
layers = (
{
layerId = "FA6D65B5-4623-4FAC-A199-3F662257AC29";
paths = (
{
closed = 1;
nodes = (
"662 -21 LINE",
"1053 1231 LINE SMOOTH",
"1103 1393 OFFCURVE",
"1132 1422 OFFCURVE",
"1275 1451 CURVE",
"1275 1523 LINE",
"786 1523 LINE",
"786 1451 LINE",
"951 1423 OFFCURVE",
"986 1375 OFFCURVE",
"945 1234 CURVE SMOOTH",
"728 501 LINE",
"710 503 LINE",
"475 1318 LINE SMOOTH",
"448 1413 OFFCURVE",
"474 1437 OFFCURVE",
"621 1451 CURVE",
"621 1523 LINE",
"-31 1523 LINE",
"-31 1451 LINE",
"81 1441 OFFCURVE",
"109 1419 OFFCURVE",
"139 1330 CURVE SMOOTH",
"586 -21 LINE"
);
}
);
width = 1237;
},
{
associatedMasterId = "FA6D65B5-4623-4FAC-A199-3F662257AC29";
layerId = "CBD44848-52BD-4DC5-BFA6-577546B7224D";
paths = (
{
closed = 1;
nodes = (
"737 -21 LINE",
"1189 1259 LINE SMOOTH",
"1239 1399 OFFCURVE",
"1267 1447 OFFCURVE",
"1476 1479 CURVE",
"1476 1523 LINE",
"920 1523 LINE",
"920 1479 LINE",
"1071 1459 OFFCURVE",
"1123 1422 OFFCURVE",
"1123 1356 CURVE SMOOTH",
"1123 1330 OFFCURVE",
"1115 1299 OFFCURVE",
"1102 1263 CURVE SMOOTH",
"790 362 LINE",
"780 362 LINE",
"446 1325 LINE SMOOTH",
"433 1362 OFFCURVE",
"419 1398 OFFCURVE",
"419 1416 CURVE SMOOTH",
"419 1461 OFFCURVE",
"450 1468 OFFCURVE",
"628 1479 CURVE",
"628 1523 LINE",
"-16 1523 LINE",
"-16 1479 LINE",
"122 1468 OFFCURVE",
"153 1449 OFFCURVE",
"185 1358 CURVE SMOOTH",
"702 -21 LINE"
);
}
);
width = 1427;
},
{
layerId = "7C8D72FA-6E62-4564-8BB2-D9F9BC4EB15A";
paths = (
{
closed = 1;
nodes = (
"598 -21 LINE",
"966 1255 LINE SMOOTH",
"1006 1398 OFFCURVE",
"1029 1444 OFFCURVE",
"1194 1475 CURVE",
"1194 1523 LINE",
"742 1523 LINE",
"742 1475 LINE",
"901 1446 OFFCURVE",
"930 1403 OFFCURVE",
"890 1259 CURVE SMOOTH",
"644 382 LINE",
"634 381 LINE",
"366 1348 LINE SMOOTH",
"336 1453 OFFCURVE",
"347 1462 OFFCURVE",
"518 1475 CURVE",
"518 1523 LINE",
"-14 1523 LINE",
"-14 1475 LINE",
"96 1465 OFFCURVE",
"121 1444 OFFCURVE",
"147 1354 CURVE SMOOTH",
"566 -21 LINE"
);
}
);
width = 1154;
},
{
associatedMasterId = "7C8D72FA-6E62-4564-8BB2-D9F9BC4EB15A";
layerId = "5BADCB50-D09D-42B1-A6FD-C0E5A93851AF";
name = "Jan 7 19, 14:20";
paths = (
{
closed = 1;
nodes = (
"748 -21 LINE",
"1207 1255 LINE SMOOTH",
"1257 1398 OFFCURVE",
"1286 1444 OFFCURVE",
"1492 1475 CURVE",
"1492 1523 LINE",
"928 1523 LINE",
"928 1475 LINE",
"1080 1454 OFFCURVE",
"1133 1419 OFFCURVE",
"1133 1352 CURVE SMOOTH",
"1133 1327 OFFCURVE",
"1125 1295 OFFCURVE",
"1112 1259 CURVE SMOOTH",
"804 381 LINE",
"793 381 LINE",
"465 1324 LINE SMOOTH",
"454 1359 OFFCURVE",
"441 1392 OFFCURVE",
"441 1411 CURVE SMOOTH",
"441 1455 OFFCURVE",
"473 1465 OFFCURVE",
"647 1475 CURVE",
"647 1523 LINE",
"-18 1523 LINE",
"-18 1475 LINE",
"120 1465 OFFCURVE",
"151 1444 OFFCURVE",
"184 1354 CURVE SMOOTH",
"707 -21 LINE"
);
}
);
width = 1443;
},
{
associatedMasterId = "FA6D65B5-4623-4FAC-A199-3F662257AC29";
layerId = "165C2C47-ED19-4EBB-84D3-9FA62CEFF1E6";
name = "Jan 7 19, 14:22";
paths = (
{
closed = 1;
nodes = (
"828 -21 LINE",
"1316 1231 LINE SMOOTH",
"1379 1393 OFFCURVE",
"1415 1422 OFFCURVE",
"1594 1451 CURVE",
"1594 1523 LINE",
"982 1523 LINE",
"982 1451 LINE",
"1143 1429 OFFCURVE",
"1201 1396 OFFCURVE",
"1201 1323 CURVE SMOOTH",
"1201 1300 OFFCURVE",
"1195 1271 OFFCURVE",
"1181 1234 CURVE SMOOTH",
"900 503 LINE",
"888 503 LINE",
"594 1318 LINE SMOOTH",
"560 1413 OFFCURVE",
"592 1437 OFFCURVE",
"776 1451 CURVE",
"776 1523 LINE",
"-39 1523 LINE",
"-39 1451 LINE",
"101 1441 OFFCURVE",
"136 1419 OFFCURVE",
"174 1330 CURVE SMOOTH",
"732 -21 LINE"
);
}
);
visible = 1;
width = 1546;
}
);
unicode = 0056;
},
{
glyphname = W;
layers = (
{
anchors = (
{
name = topcap;
position = "{1005, 1643}";
}
);
layerId = "FA6D65B5-4623-4FAC-A199-3F662257AC29";
paths = (
{
closed = 1;
nodes = (
"644 -21 LINE",
"958 983 LINE",
"1273 -21 LINE",
"1350 -21 LINE",
"1740 1231 LINE SMOOTH",
"1789 1391 OFFCURVE",
"1824 1424 OFFCURVE",
"1962 1451 CURVE",
"1962 1523 LINE",
"1473 1523 LINE",
"1473 1451 LINE",
"1642 1424 OFFCURVE",
"1674 1379 OFFCURVE",
"1632 1234 CURVE SMOOTH",
"1418 499 LINE",
"1398 503 LINE",
"1186 1318 LINE SMOOTH",
"1157 1415 OFFCURVE",
"1186 1442 OFFCURVE",
"1331 1451 CURVE",
"1331 1523 LINE",
"679 1523 LINE",
"679 1451 LINE",
"791 1441 OFFCURVE",
"822 1419 OFFCURVE",
"850 1330 CURVE SMOOTH",
"904 1158 LINE",
"703 503 LINE",
"694 503 LINE",
"481 1318 LINE SMOOTH",
"455 1421 OFFCURVE",
"473 1437 OFFCURVE",
"627 1451 CURVE",
"627 1523 LINE",
"-25 1523 LINE",
"-25 1451 LINE",
"87 1441 OFFCURVE",
"117 1419 OFFCURVE",
"146 1330 CURVE SMOOTH",
"568 -21 LINE"
);
}
);
width = 1919;
},
{
anchors = (
{
name = topcap;
position = "{1076, 1643}";
}
);
associatedMasterId = "FA6D65B5-4623-4FAC-A199-3F662257AC29";
layerId = "CBD44848-52BD-4DC5-BFA6-577546B7224D";
paths = (
{
closed = 1;
nodes = (
"738 -21 LINE",
"1069 1016 LINE",
"1457 -21 LINE",
"1503 -21 LINE",
"1909 1259 LINE SMOOTH",
"1955 1401 OFFCURVE",
"1987 1447 OFFCURVE",
"2197 1479 CURVE",
"2197 1523 LINE",
"1641 1523 LINE",
"1641 1479 LINE",
"1794 1457 OFFCURVE",
"1841 1424 OFFCURVE",
"1841 1358 CURVE SMOOTH",
"1841 1328 OFFCURVE",
"1835 1300 OFFCURVE",
"1823 1263 CURVE SMOOTH",
"1544 362 LINE",
"1534 362 LINE",
"1200 1325 LINE SMOOTH",
"1185 1365 OFFCURVE",
"1177 1391 OFFCURVE",
"1177 1414 CURVE SMOOTH",
"1177 1453 OFFCURVE",
"1192 1466 OFFCURVE",
"1381 1479 CURVE",
"1381 1523 LINE",
"738 1523 LINE",
"738 1479 LINE",
"877 1468 OFFCURVE",
"906 1449 OFFCURVE",
"940 1358 CURVE SMOOTH",
"1021 1140 LINE",
"780 362 LINE",
"770 362 LINE",
"435 1325 LINE SMOOTH",
"416 1381 OFFCURVE",
"409 1399 OFFCURVE",
"409 1419 CURVE SMOOTH",
"409 1455 OFFCURVE",
"432 1464 OFFCURVE",
"617 1479 CURVE",
"617 1523 LINE",
"-25 1523 LINE",
"-25 1479 LINE",
"113 1468 OFFCURVE",
"143 1449 OFFCURVE",
"176 1358 CURVE SMOOTH",
"693 -21 LINE"
);
}
);
width = 2157;
},
{
anchors = (
{
name = topcap;
position = "{880, 1643}";
}
);
layerId = "7C8D72FA-6E62-4564-8BB2-D9F9BC4EB15A";
paths = (
{
closed = 1;
nodes = (
"597 -21 LINE",
"869 1011 LINE",
"1179 -21 LINE",
"1222 -21 LINE",
"1556 1255 LINE SMOOTH",
"1594 1400 OFFCURVE",
"1622 1444 OFFCURVE",
"1786 1475 CURVE",
"1786 1523 LINE",
"1334 1523 LINE",
"1334 1475 LINE",
"1490 1447 OFFCURVE",
"1521 1401 OFFCURVE",
"1482 1259 CURVE SMOOTH",
"1239 388 LINE",
"1250 381 LINE",
"990 1324 LINE SMOOTH",
"953 1451 OFFCURVE",
"963 1461 OFFCURVE",
"1135 1475 CURVE",
"1135 1523 LINE",
"602 1523 LINE",
"602 1475 LINE",
"714 1465 OFFCURVE",
"738 1444 OFFCURVE",
"766 1354 CURVE SMOOTH",
"828 1142 LINE",
"634 381 LINE",
"626 381 LINE",
"363 1333 LINE SMOOTH",
"330 1455 OFFCURVE",
"333 1458 OFFCURVE",
"511 1475 CURVE",
"511 1523 LINE",
"-21 1523 LINE",
"-21 1475 LINE",
"90 1465 OFFCURVE",
"114 1444 OFFCURVE",
"142 1354 CURVE SMOOTH",
"557 -21 LINE"
);
}
);
width = 1751;
},
{
anchors = (
{
name = topcap;
position = "{1256, 1643}";
}
);
associatedMasterId = "FA6D65B5-4623-4FAC-A199-3F662257AC29";
layerId = "ABFE13B6-93B8-4B3B-9D71-6302F024CC27";
name = "Jan 7 19, 14:23";
paths = (
{
closed = 1;
nodes = (
"805 -21 LINE",
"1198 983 LINE",
"1591 -21 LINE",
"1687 -21 LINE",
"2175 1231 LINE SMOOTH",
"2236 1391 OFFCURVE",
"2280 1424 OFFCURVE",
"2453 1451 CURVE",
"2453 1523 LINE",
"1841 1523 LINE",
"1841 1451 LINE",
"2005 1430 OFFCURVE",
"2062 1396 OFFCURVE",
"2062 1328 CURVE SMOOTH",
"2062 1302 OFFCURVE",
"2052 1267 OFFCURVE",
"2040 1234 CURVE SMOOTH",
"1759 503 LINE",
"1748 503 LINE",
"1482 1318 LINE SMOOTH",
"1474 1340 OFFCURVE",
"1470 1360 OFFCURVE",
"1470 1375 CURVE SMOOTH",
"1470 1427 OFFCURVE",
"1520 1443 OFFCURVE",
"1664 1451 CURVE",
"1664 1523 LINE",
"849 1523 LINE",
"849 1451 LINE",
"989 1441 OFFCURVE",
"1027 1419 OFFCURVE",
"1063 1330 CURVE SMOOTH",
"1130 1158 LINE",
"879 503 LINE",
"867 503 LINE",
"601 1318 LINE SMOOTH",
"594 1340 OFFCURVE",
"590 1360 OFFCURVE",
"590 1375 CURVE SMOOTH",
"590 1422 OFFCURVE",
"615 1441 OFFCURVE",
"784 1451 CURVE",
"784 1523 LINE",
"-31 1523 LINE",
"-31 1451 LINE",
"109 1441 OFFCURVE",
"146 1419 OFFCURVE",
"182 1330 CURVE SMOOTH",
"710 -21 LINE"
);
}
);
visible = 1;
width = 2399;
},
{
anchors = (
{
name = topcap;
position = "{1100, 1643}";
}
);
associatedMasterId = "7C8D72FA-6E62-4564-8BB2-D9F9BC4EB15A";
layerId = "A974E619-2AB6-44AE-A071-2906AAB377E2";
name = "Jan 7 19, 14:23";
paths = (
{
closed = 1;
nodes = (
"746 -21 LINE",
"1086 1011 LINE",
"1474 -21 LINE",
"1527 -21 LINE",
"1945 1255 LINE SMOOTH",
"1993 1400 OFFCURVE",
"2027 1444 OFFCURVE",
"2232 1475 CURVE",
"2232 1523 LINE",
"1667 1523 LINE",
"1667 1475 LINE",
"1822 1453 OFFCURVE",
"1870 1421 OFFCURVE",
"1870 1353 CURVE SMOOTH",
"1870 1324 OFFCURVE",
"1864 1295 OFFCURVE",
"1852 1259 CURVE SMOOTH",
"1573 381 LINE",
"1563 381 LINE",
"1238 1324 LINE SMOOTH",
"1224 1361 OFFCURVE",
"1216 1386 OFFCURVE",
"1216 1408 CURVE SMOOTH",
"1216 1450 OFFCURVE",
"1236 1464 OFFCURVE",
"1419 1475 CURVE",
"1419 1523 LINE",
"753 1523 LINE",
"753 1475 LINE",
"892 1465 OFFCURVE",
"922 1444 OFFCURVE",
"957 1354 CURVE SMOOTH",
"1035 1142 LINE",
"792 381 LINE",
"783 381 LINE",
"457 1324 LINE SMOOTH",
"440 1376 OFFCURVE",
"433 1393 OFFCURVE",
"433 1413 CURVE SMOOTH",
"433 1451 OFFCURVE",
"456 1461 OFFCURVE",
"639 1475 CURVE",
"639 1523 LINE",
"-26 1523 LINE",
"-26 1475 LINE",
"112 1465 OFFCURVE",
"143 1444 OFFCURVE",
"177 1354 CURVE SMOOTH",
"696 -21 LINE"
);
}
);
width = 2189;
}
);
leftKerningGroup = W;
rightKerningGroup = W;
unicode = 0057;
},
{
glyphname = X;
layers = (
{
layerId = "FA6D65B5-4623-4FAC-A199-3F662257AC29";
paths = (
{
closed = 1;
nodes = (
"454 0 LINE",
"454 73 LINE",
"317 91 OFFCURVE",
"293 123 OFFCURVE",
"348 216 CURVE SMOOTH",
"592 628 LINE",
"833 180 LINE SMOOTH",
"869 113 OFFCURVE",
"869 86 OFFCURVE",
"703 73 CURVE",
"703 0 LINE",
"1361 0 LINE",
"1361 73 LINE",
"1262 83 OFFCURVE",
"1221 99 OFFCURVE",
"1190 159 CURVE SMOOTH",
"804 877 LINE",
"1066 1315 LINE SMOOTH",
"1117 1396 OFFCURVE",
"1148 1421 OFFCURVE",
"1284 1451 CURVE",
"1284 1523 LINE",
"839 1523 LINE",
"839 1451 LINE",
"973 1434 OFFCURVE",
"999 1398 OFFCURVE",
"946 1308 CURVE SMOOTH",
"750 978 LINE",
"557 1344 LINE SMOOTH",
"514 1424 OFFCURVE",
"534 1443 OFFCURVE",
"676 1451 CURVE",
"676 1523 LINE",
"17 1523 LINE",
"17 1451 LINE",
"146 1430 OFFCURVE",
"170 1416 OFFCURVE",
"198 1366 CURVE SMOOTH",
"537 732 LINE",
"227 214 LINE SMOOTH",
"178 130 OFFCURVE",
"126 94 OFFCURVE",
"-11 73 CURVE",
"-11 0 LINE"
);
}
);
width = 1330;
},
{
associatedMasterId = "FA6D65B5-4623-4FAC-A199-3F662257AC29";
layerId = "CBD44848-52BD-4DC5-BFA6-577546B7224D";
paths = (
{
closed = 1;
nodes = (
"516 0 LINE",
"516 39 LINE",
"402 52 OFFCURVE",
"351 71 OFFCURVE",
"351 105 CURVE SMOOTH",
"351 122 OFFCURVE",
"360 151 OFFCURVE",
"383 182 CURVE SMOOTH",
"747 671 LINE",
"1090 151 LINE SMOOTH",
"1115 115 OFFCURVE",
"1123 97 OFFCURVE",
"1123 83 CURVE SMOOTH",
"1123 62 OFFCURVE",
"1093 54 OFFCURVE",
"968 44 CURVE",
"968 0 LINE",
"1561 0 LINE",
"1561 44 LINE",
"1439 54 OFFCURVE",
"1388 70 OFFCURVE",
"1348 128 CURVE SMOOTH",
"887 834 LINE",
"1265 1341 LINE",
"1340 1430 OFFCURVE",
"1393 1453 OFFCURVE",
"1536 1479 CURVE",
"1536 1523 LINE",
"1044 1523 LINE",
"1044 1479 LINE",
"1148 1466 OFFCURVE",
"1192 1443 OFFCURVE",
"1192 1407 CURVE SMOOTH",
"1192 1385 OFFCURVE",
"1179 1365 OFFCURVE",
"1160 1336 CURVE SMOOTH",
"841 903 LINE",
"534 1371 LINE SMOOTH",
"515 1404 OFFCURVE",
"508 1421 OFFCURVE",
"508 1439 CURVE SMOOTH",
"508 1461 OFFCURVE",
"529 1472 OFFCURVE",
"646 1479 CURVE",
"646 1523 LINE",
"47 1523 LINE",
"47 1479 LINE",
"204 1461 OFFCURVE",
"242 1445 OFFCURVE",
"275 1393 CURVE SMOOTH",
"698 746 LINE",
"279 180 LINE SMOOTH",
"212 89 OFFCURVE",
"132 60 OFFCURVE",
"-21 39 CURVE",
"-21 0 LINE"
);
}
);
width = 1558;
},
{
layerId = "7C8D72FA-6E62-4564-8BB2-D9F9BC4EB15A";
paths = (
{
closed = 1;
nodes = (
"418 0 LINE",
"418 44 LINE",
"286 62 OFFCURVE",
"257 99 OFFCURVE",
"312 187 CURVE SMOOTH",
"609 654 LINE",
"868 154 LINE SMOOTH",
"905 82 OFFCURVE",
"896 56 OFFCURVE",
"765 47 CURVE",
"765 0 LINE",
"1264 0 LINE",
"1264 47 LINE",
"1166 58 OFFCURVE",
"1125 74 OFFCURVE",
"1094 132 CURVE SMOOTH",
"722 839 LINE",
"1020 1338 LINE",
"1078 1426 OFFCURVE",
"1119 1449 OFFCURVE",
"1236 1475 CURVE",
"1236 1523 LINE",
"837 1523 LINE",
"837 1475 LINE",
"957 1458 OFFCURVE",
"981 1422 OFFCURVE",
"930 1332 CURVE SMOOTH",
"683 913 LINE",
"444 1368 LINE SMOOTH",
"403 1453 OFFCURVE",
"414 1466 OFFCURVE",
"538 1475 CURVE",
"538 1523 LINE",
"35 1523 LINE",
"35 1475 LINE",
"160 1457 OFFCURVE",
"190 1442 OFFCURVE",
"218 1390 CURVE SMOOTH",
"555 745 LINE",
"224 184 LINE SMOOTH",
"170 94 OFFCURVE",
"109 64 OFFCURVE",
"-16 44 CURVE",
"-16 0 LINE"
);
}
);
width = 1258;
},
{
associatedMasterId = "FA6D65B5-4623-4FAC-A199-3F662257AC29";
layerId = "6BC71C91-3B48-4DD9-A837-BF50476A7F4F";
name = "Jan 7 19, 14:26";
paths = (
{
closed = 1;
nodes = (
"568 0 LINE",
"568 73 LINE",
"454 85 OFFCURVE",
"402 105 OFFCURVE",
"402 138 CURVE SMOOTH",
"402 157 OFFCURVE",
"411 184 OFFCURVE",
"435 216 CURVE SMOOTH",
"740 628 LINE",
"1041 180 LINE SMOOTH",
"1065 144 OFFCURVE",
"1073 124 OFFCURVE",
"1073 113 CURVE SMOOTH",
"1073 91 OFFCURVE",
"1034 83 OFFCURVE",
"879 73 CURVE",
"879 0 LINE",
"1701 0 LINE",
"1701 73 LINE",
"1578 83 OFFCURVE",
"1526 99 OFFCURVE",
"1487 159 CURVE SMOOTH",
"1005 877 LINE",
"1333 1315 LINE SMOOTH",
"1396 1396 OFFCURVE",
"1435 1421 OFFCURVE",
"1605 1451 CURVE",
"1605 1523 LINE",
"1049 1523 LINE",
"1049 1451 LINE",
"1166 1439 OFFCURVE",
"1216 1415 OFFCURVE",
"1216 1379 CURVE SMOOTH",
"1216 1358 OFFCURVE",
"1203 1336 OFFCURVE",
"1183 1308 CURVE SMOOTH",
"937 978 LINE",
"696 1344 LINE SMOOTH",
"675 1375 OFFCURVE",
"669 1391 OFFCURVE",
"669 1409 CURVE SMOOTH",
"669 1435 OFFCURVE",
"702 1445 OFFCURVE",
"845 1451 CURVE",
"845 1523 LINE",
"21 1523 LINE",
"21 1451 LINE",
"182 1430 OFFCURVE",
"212 1416 OFFCURVE",
"248 1366 CURVE SMOOTH",
"671 732 LINE",
"284 214 LINE SMOOTH",
"223 130 OFFCURVE",
"157 94 OFFCURVE",
"-14 73 CURVE",
"-14 0 LINE"
);
}
);
width = 1662;
},
{
associatedMasterId = "7C8D72FA-6E62-4564-8BB2-D9F9BC4EB15A";
layerId = "FF948E43-3A43-4DD0-BA8E-8F998A9A986B";
name = "Jan 7 19, 14:27";
paths = (
{
closed = 1;
nodes = (
"523 0 LINE",
"523 44 LINE",
"409 56 OFFCURVE",
"358 75 OFFCURVE",
"358 109 CURVE SMOOTH",
"358 127 OFFCURVE",
"366 155 OFFCURVE",
"390 187 CURVE SMOOTH",
"747 666 LINE",
"1085 154 LINE SMOOTH",
"1108 119 OFFCURVE",
"1116 100 OFFCURVE",
"1116 88 CURVE SMOOTH",
"1116 66 OFFCURVE",
"1085 58 OFFCURVE",
"956 47 CURVE",
"956 0 LINE",
"1580 0 LINE",
"1580 47 LINE",
"1458 58 OFFCURVE",
"1406 74 OFFCURVE",
"1367 132 CURVE SMOOTH",
"902 839 LINE",
"1275 1338 LINE",
"1347 1426 OFFCURVE",
"1399 1449 OFFCURVE",
"1545 1475 CURVE",
"1545 1523 LINE",
"1046 1523 LINE",
"1046 1475 LINE",
"1150 1462 OFFCURVE",
"1195 1439 OFFCURVE",
"1195 1404 CURVE SMOOTH",
"1195 1382 OFFCURVE",
"1183 1360 OFFCURVE",
"1163 1332 CURVE SMOOTH",
"854 913 LINE",
"555 1368 LINE SMOOTH",
"537 1399 OFFCURVE",
"530 1417 OFFCURVE",
"530 1435 CURVE SMOOTH",
"530 1458 OFFCURVE",
"552 1468 OFFCURVE",
"672 1475 CURVE",
"672 1523 LINE",
"44 1523 LINE",
"44 1475 LINE",
"200 1457 OFFCURVE",
"237 1442 OFFCURVE",
"272 1390 CURVE SMOOTH",
"694 745 LINE",
"280 184 LINE SMOOTH",
"213 94 OFFCURVE",
"136 64 OFFCURVE",
"-20 44 CURVE",
"-20 0 LINE"
);
}
);
visible = 1;
width = 1572;
}
);
unicode = 0058;
},
{
glyphname = Y;
layers = (
{
anchors = (
{
name = topcap;
position = "{676, 1643}";
}
);
layerId = "FA6D65B5-4623-4FAC-A199-3F662257AC29";
paths = (
{
closed = 1;
nodes = (
"862 0 LINE",
"862 73 LINE",
"729 115 LINE",
"729 661 LINE",
"974 1231 LINE SMOOTH",
"1056 1421 OFFCURVE",
"1072 1437 OFFCURVE",
"1204 1451 CURVE",
"1204 1523 LINE",
"725 1523 LINE",
"725 1451 LINE",
"900 1446 OFFCURVE",
"937 1390 OFFCURVE",
"870 1234 CURVE SMOOTH",
"689 801 LINE",
"682 801 LINE",
"480 1299 LINE SMOOTH",
"438 1392 OFFCURVE",
"482 1437 OFFCURVE",
"626 1451 CURVE",
"626 1523 LINE",
"-29 1523 LINE",
"-29 1451 LINE",
"83 1441 OFFCURVE",
"109 1429 OFFCURVE",
"154 1330 CURVE SMOOTH",
"456 663 LINE",
"456 115 LINE",
"322 73 LINE",
"322 0 LINE"
);
}
);
width = 1179;
},
{
anchors = (
{
name = topcap;
position = "{790, 1643}";
}
);
associatedMasterId = "FA6D65B5-4623-4FAC-A199-3F662257AC29";
layerId = "CBD44848-52BD-4DC5-BFA6-577546B7224D";
paths = (
{
closed = 1;
nodes = (
"978 0 LINE",
"978 45 LINE",
"801 83 LINE",
"801 611 LINE",
"1150 1259 LINE SMOOTH",
"1222 1390 OFFCURVE",
"1226 1447 OFFCURVE",
"1437 1479 CURVE",
"1437 1523 LINE",
"879 1523 LINE",
"879 1479 LINE",
"1016 1468 OFFCURVE",
"1084 1421 OFFCURVE",
"1084 1348 CURVE SMOOTH",
"1084 1322 OFFCURVE",
"1077 1294 OFFCURVE",
"1061 1263 CURVE SMOOTH",
"786 743 LINE",
"778 743 LINE",
"451 1325 LINE SMOOTH",
"435 1356 OFFCURVE",
"425 1383 OFFCURVE",
"425 1406 CURVE SMOOTH",
"425 1445 OFFCURVE",
"461 1468 OFFCURVE",
"633 1479 CURVE",
"633 1523 LINE",
"-16 1523 LINE",
"-16 1479 LINE",
"122 1468 OFFCURVE",
"144 1441 OFFCURVE",
"192 1358 CURVE SMOOTH",
"594 648 LINE",
"594 83 LINE",
"416 45 LINE",
"416 0 LINE"
);
}
);
width = 1404;
},
{
anchors = (
{
name = topcap;
position = "{638, 1643}";
}
);
layerId = "7C8D72FA-6E62-4564-8BB2-D9F9BC4EB15A";
paths = (
{
closed = 1;
nodes = (
"792 0 LINE",
"792 48 LINE",
"653 88 LINE",
"653 618 LINE",
"928 1255 LINE SMOOTH",
"987 1394 OFFCURVE",
"994 1446 OFFCURVE",
"1157 1475 CURVE",
"1157 1523 LINE",
"706 1523 LINE",
"706 1475 LINE",
"853 1464 OFFCURVE",
"902 1390 OFFCURVE",
"851 1259 CURVE SMOOTH",
"637 750 LINE",
"631 750 LINE",
"377 1322 LINE SMOOTH",
"330 1435 OFFCURVE",
"358 1462 OFFCURVE",
"522 1475 CURVE",
"522 1523 LINE",
"-14 1523 LINE",
"-14 1475 LINE",
"96 1465 OFFCURVE",
"114 1439 OFFCURVE",
"154 1354 CURVE SMOOTH",
"473 649 LINE",
"473 88 LINE",
"332 48 LINE",
"332 0 LINE"
);
}
);
width = 1130;
},
{
anchors = (
{
name = topcap;
position = "{845, 1643}";
}
);
associatedMasterId = "FA6D65B5-4623-4FAC-A199-3F662257AC29";
layerId = "FF123EB3-717F-41DE-91F1-9AD46AFBB2AD";
name = "Jan 7 19, 14:33";
paths = (
{
closed = 1;
nodes = (
"1077 0 LINE",
"1077 73 LINE",
"911 115 LINE",
"911 661 LINE",
"1217 1231 LINE SMOOTH",
"1320 1421 OFFCURVE",
"1340 1437 OFFCURVE",
"1505 1451 CURVE",
"1505 1523 LINE",
"906 1523 LINE",
"906 1451 LINE",
"1069 1447 OFFCURVE",
"1126 1416 OFFCURVE",
"1126 1354 CURVE SMOOTH",
"1126 1325 OFFCURVE",
"1115 1284 OFFCURVE",
"1088 1234 CURVE SMOOTH",
"861 801 LINE",
"853 801 LINE",
"600 1299 LINE SMOOTH",
"588 1320 OFFCURVE",
"582 1338 OFFCURVE",
"582 1356 CURVE SMOOTH",
"582 1404 OFFCURVE",
"622 1439 OFFCURVE",
"782 1451 CURVE",
"782 1523 LINE",
"-36 1523 LINE",
"-36 1451 LINE",
"104 1441 OFFCURVE",
"136 1429 OFFCURVE",
"192 1330 CURVE SMOOTH",
"570 663 LINE",
"570 115 LINE",
"402 73 LINE",
"402 0 LINE"
);
}
);
visible = 1;
width = 1474;
},
{
anchors = (
{
name = topcap;
position = "{797, 1643}";
}
);
associatedMasterId = "7C8D72FA-6E62-4564-8BB2-D9F9BC4EB15A";
layerId = "70888B9A-CEDB-4DC8-8676-D70E2E1723CE";
name = "Jan 7 19, 14:33";
paths = (
{
closed = 1;
nodes = (
"990 0 LINE",
"990 48 LINE",
"816 88 LINE",
"816 618 LINE",
"1160 1255 LINE SMOOTH",
"1234 1394 OFFCURVE",
"1242 1446 OFFCURVE",
"1446 1475 CURVE",
"1446 1523 LINE",
"882 1523 LINE",
"882 1475 LINE",
"1023 1466 OFFCURVE",
"1089 1421 OFFCURVE",
"1089 1350 CURVE SMOOTH",
"1089 1323 OFFCURVE",
"1081 1293 OFFCURVE",
"1064 1259 CURVE SMOOTH",
"796 750 LINE",
"789 750 LINE",
"471 1322 LINE SMOOTH",
"456 1352 OFFCURVE",
"446 1377 OFFCURVE",
"446 1399 CURVE SMOOTH",
"446 1439 OFFCURVE",
"482 1465 OFFCURVE",
"653 1475 CURVE",
"653 1523 LINE",
"-18 1523 LINE",
"-18 1475 LINE",
"120 1465 OFFCURVE",
"143 1439 OFFCURVE",
"192 1354 CURVE SMOOTH",
"591 649 LINE",
"591 88 LINE",
"415 48 LINE",
"415 0 LINE"
);
}
);
width = 1413;
}
);
leftKerningGroup = Y;
rightKerningGroup = Y;
unicode = 0059;
},
{
glyphname = Z;
layers = (
{
anchors = (
{
name = bottom;
position = "{504, 0}";
},
{
name = topcap;
position = "{614, 1643}";
}
);
layerId = "FA6D65B5-4623-4FAC-A199-3F662257AC29";
paths = (
{
closed = 1;
nodes = (
"1007 0 LINE",
"1106 514 LINE",
"1040 518 LINE",
"991 359 OFFCURVE",
"948 256 OFFCURVE",
"867 109 CURVE",
"410 109 LINE",
"1075 1451 LINE",
"1075 1523 LINE",
"157 1523 LINE",
"75 1076 LINE",
"141 1071 LINE",
"162 1153 OFFCURVE",
"209 1275 OFFCURVE",
"273 1415 CURVE",
"705 1415 LINE",
"43 75 LINE",
"43 0 LINE"
);
}
);
width = 1156;
},
{
anchors = (
{
name = bottom;
position = "{630, 0}";
},
{
name = topcap;
position = "{706, 1643}";
}
);
associatedMasterId = "FA6D65B5-4623-4FAC-A199-3F662257AC29";
layerId = "CBD44848-52BD-4DC5-BFA6-577546B7224D";
paths = (
{
closed = 1;
nodes = (
"1148 0 LINE",
"1251 482 LINE",
"1200 489 LINE",
"1164 401 OFFCURVE",
"1101 256 OFFCURVE",
"1008 115 CURVE SMOOTH",
"983 78 LINE",
"322 78 LINE",
"1232 1470 LINE",
"1232 1523 LINE",
"204 1523 LINE",
"120 1093 LINE",
"172 1090 LINE",
"192 1150 OFFCURVE",
"237 1261 OFFCURVE",
"314 1401 CURVE SMOOTH",
"339 1445 LINE",
"968 1445 LINE",
"62 55 LINE",
"62 0 LINE"
);
}
);
width = 1338;
},
{
anchors = (
{
name = bottom;
position = "{504, 0}";
},
{
name = topcap;
position = "{571, 1643}";
}
);
layerId = "7C8D72FA-6E62-4564-8BB2-D9F9BC4EB15A";
paths = (
{
closed = 1;
nodes = (
"930 0 LINE",
"1014 487 LINE",
"971 493 LINE",
"914 322 OFFCURVE",
"871 220 OFFCURVE",
"798 83 CURVE",
"278 83 LINE",
"998 1468 LINE",
"998 1523 LINE",
"162 1523 LINE",
"93 1090 LINE",
"138 1088 LINE",
"160 1172 OFFCURVE",
"202 1284 OFFCURVE",
"271 1441 CURVE",
"766 1441 LINE",
"49 58 LINE",
"49 0 LINE"
);
}
);
width = 1082;
}
);
leftKerningGroup = Z;
rightKerningGroup = Z;
unicode = 005A;
},
{
glyphname = a;
layers = (
{
anchors = (
{
name = bottom;
position = "{462, 0}";
},
{
name = ogonekcurve;
position = "{905, 77}";
},
{
name = top;
position = "{408, 1289}";
}
);
layerId = "FA6D65B5-4623-4FAC-A199-3F662257AC29";
paths = (
{
closed = 1;
nodes = (
"366 -21 OFFCURVE",
"450 29 OFFCURVE",
"529 136 CURVE",
"535 136 LINE",
"551 31 OFFCURVE",
"602 -21 OFFCURVE",
"705 -21 CURVE SMOOTH",
"795 -21 OFFCURVE",
"867 22 OFFCURVE",
"936 113 CURVE",
"900 177 LINE",
"877 146 OFFCURVE",
"854 130 OFFCURVE",
"829 130 CURVE SMOOTH",
"786 130 OFFCURVE",
"770 180 OFFCURVE",
"770 297 CURVE SMOOTH",
"770 705 LINE SMOOTH",
"770 851 OFFCURVE",
"758 920 OFFCURVE",
"734 970 CURVE SMOOTH",
"698 1034 OFFCURVE",
"630 1069 OFFCURVE",
"517 1069 CURVE SMOOTH",
"402 1069 OFFCURVE",
"298 1034 OFFCURVE",
"217 970 CURVE SMOOTH",
"138 904 OFFCURVE",
"92 818 OFFCURVE",
"92 735 CURVE SMOOTH",
"92 655 OFFCURVE",
"134 600 OFFCURVE",
"196 600 CURVE SMOOTH",
"258 600 OFFCURVE",
"306 656 OFFCURVE",
"306 732 CURVE SMOOTH",
"306 760 OFFCURVE",
"299 790 OFFCURVE",
"299 820 CURVE SMOOTH",
"299 903 OFFCURVE",
"348 953 OFFCURVE",
"427 953 CURVE SMOOTH",
"504 953 OFFCURVE",
"524 906 OFFCURVE",
"524 727 CURVE SMOOTH",
"524 582 LINE",
"205 526 OFFCURVE",
"60 411 OFFCURVE",
"60 214 CURVE SMOOTH",
"60 68 OFFCURVE",
"139 -21 OFFCURVE",
"269 -21 CURVE SMOOTH"
);
},
{
closed = 1;
nodes = (
"353 167 OFFCURVE",
"325 208 OFFCURVE",
"325 295 CURVE SMOOTH",
"325 406 OFFCURVE",
"370 451 OFFCURVE",
"524 489 CURVE",
"524 223 LINE",
"496 185 OFFCURVE",
"458 167 OFFCURVE",
"414 167 CURVE SMOOTH"
);
}
);
width = 926;
},
{
anchors = (
{
name = bottom;
position = "{812, 0}";
},
{
name = top;
position = "{523, 1289}";
}
);
associatedMasterId = "FA6D65B5-4623-4FAC-A199-3F662257AC29";
layerId = "CBD44848-52BD-4DC5-BFA6-577546B7224D";
paths = (
{
closed = 1;
nodes = (
"450 -21 OFFCURVE",
"565 50 OFFCURVE",
"644 162 CURVE",
"648 159 LINE",
"663 37 OFFCURVE",
"721 -21 OFFCURVE",
"826 -21 CURVE SMOOTH",
"911 -21 OFFCURVE",
"970 18 OFFCURVE",
"1032 113 CURVE",
"997 143 LINE",
"964 101 OFFCURVE",
"937 85 OFFCURVE",
"900 85 CURVE SMOOTH",
"843 85 OFFCURVE",
"828 120 OFFCURVE",
"828 252 CURVE SMOOTH",
"828 705 LINE SMOOTH",
"828 871 OFFCURVE",
"823 919 OFFCURVE",
"801 964 CURVE SMOOTH",
"768 1032 OFFCURVE",
"685 1069 OFFCURVE",
"572 1069 CURVE SMOOTH",
"487 1069 OFFCURVE",
"398 1047 OFFCURVE",
"320 1008 CURVE SMOOTH",
"192 942 OFFCURVE",
"107 841 OFFCURVE",
"107 754 CURVE SMOOTH",
"107 697 OFFCURVE",
"144 659 OFFCURVE",
"198 659 CURVE SMOOTH",
"258 659 OFFCURVE",
"302 706 OFFCURVE",
"302 774 CURVE SMOOTH",
"302 796 OFFCURVE",
"297 821 OFFCURVE",
"297 843 CURVE SMOOTH",
"297 936 OFFCURVE",
"367 994 OFFCURVE",
"481 994 CURVE SMOOTH",
"596 994 OFFCURVE",
"639 933 OFFCURVE",
"639 766 CURVE SMOOTH",
"639 572 LINE",
"242 487 OFFCURVE",
"97 394 OFFCURVE",
"97 221 CURVE SMOOTH",
"97 78 OFFCURVE",
"193 -21 OFFCURVE",
"334 -21 CURVE SMOOTH"
);
},
{
closed = 1;
nodes = (
"326 97 OFFCURVE",
"273 157 OFFCURVE",
"273 264 CURVE SMOOTH",
"273 401 OFFCURVE",
"360 458 OFFCURVE",
"639 515 CURVE",
"639 229 LINE",
"588 146 OFFCURVE",
"507 97 OFFCURVE",
"421 97 CURVE SMOOTH"
);
}
);
width = 1039;
},
{
anchors = (
{
name = bottom;
position = "{414, 0}";
},
{
name = ogonekcurve;
position = "{816, 77}";
},
{
name = top;
position = "{418, 1289}";
}
);
layerId = "7C8D72FA-6E62-4564-8BB2-D9F9BC4EB15A";
paths = (
{
closed = 1;
nodes = (
"361 -21 OFFCURVE",
"452 47 OFFCURVE",
"513 157 CURVE",
"518 157 LINE",
"534 37 OFFCURVE",
"580 -21 OFFCURVE",
"666 -21 CURVE SMOOTH",
"738 -21 OFFCURVE",
"788 18 OFFCURVE",
"840 113 CURVE",
"811 147 LINE",
"785 107 OFFCURVE",
"764 91 OFFCURVE",
"735 91 CURVE SMOOTH",
"690 91 OFFCURVE",
"676 128 OFFCURVE",
"676 258 CURVE SMOOTH",
"676 705 LINE SMOOTH",
"676 868 OFFCURVE",
"671 919 OFFCURVE",
"654 965 CURVE SMOOTH",
"626 1032 OFFCURVE",
"559 1069 OFFCURVE",
"466 1069 CURVE SMOOTH",
"391 1069 OFFCURVE",
"316 1046 OFFCURVE",
"251 1003 CURVE SMOOTH",
"152 937 OFFCURVE",
"86 838 OFFCURVE",
"86 752 CURVE SMOOTH",
"86 692 OFFCURVE",
"118 651 OFFCURVE",
"163 651 CURVE SMOOTH",
"213 651 OFFCURVE",
"250 700 OFFCURVE",
"250 768 CURVE SMOOTH",
"250 791 OFFCURVE",
"246 816 OFFCURVE",
"246 841 CURVE SMOOTH",
"246 932 OFFCURVE",
"302 989 OFFCURVE",
"390 989 CURVE SMOOTH",
"480 989 OFFCURVE",
"513 929 OFFCURVE",
"513 760 CURVE SMOOTH",
"513 573 LINE",
"195 492 OFFCURVE",
"75 396 OFFCURVE",
"75 220 CURVE SMOOTH",
"75 77 OFFCURVE",
"153 -21 OFFCURVE",
"267 -21 CURVE SMOOTH"
);
},
{
closed = 1;
nodes = (
"273 106 OFFCURVE",
"233 164 OFFCURVE",
"233 267 CURVE SMOOTH",
"233 401 OFFCURVE",
"298 458 OFFCURVE",
"513 511 CURVE",
"513 229 LINE",
"474 152 OFFCURVE",
"413 106 OFFCURVE",
"347 106 CURVE SMOOTH"
);
}
);
width = 844;
}
);
leftKerningGroup = a;
rightKerningGroup = a;
unicode = 0061;
userData = {
com.typemytype.robofont.guides = (
{
angle = 359.5;
isGlobal = 0;
magnetic = 5;
x = 0;
y = 84;
}
);
};
},
{
glyphname = ae;
layers = (
{
layerId = "FA6D65B5-4623-4FAC-A199-3F662257AC29";
paths = (
{
closed = 1;
nodes = (
"786 834 OFFCURVE",
"857 968 OFFCURVE",
"978 968 CURVE SMOOTH",
"1070 968 OFFCURVE",
"1118 895 OFFCURVE",
"1118 758 CURVE SMOOTH",
"1118 732 OFFCURVE",
"1114 697 OFFCURVE",
"1112 683 CURVE",
"774 668 LINE",
"772 573 LINE",
"1362 573 LINE",
"1374 586 LINE",
"1367 903 OFFCURVE",
"1239 1069 OFFCURVE",
"998 1069 CURVE SMOOTH",
"893 1069 OFFCURVE",
"800 1036 OFFCURVE",
"725 980 CURVE",
"679 1043 OFFCURVE",
"619 1069 OFFCURVE",
"518 1069 CURVE SMOOTH",
"400 1069 OFFCURVE",
"294 1033 OFFCURVE",
"217 970 CURVE SMOOTH",
"139 904 OFFCURVE",
"92 813 OFFCURVE",
"92 732 CURVE SMOOTH",
"92 655 OFFCURVE",
"134 600 OFFCURVE",
"196 600 CURVE SMOOTH",
"258 600 OFFCURVE",
"306 656 OFFCURVE",
"306 732 CURVE SMOOTH",
"306 760 OFFCURVE",
"299 790 OFFCURVE",
"299 820 CURVE SMOOTH",
"299 903 OFFCURVE",
"348 953 OFFCURVE",
"427 953 CURVE SMOOTH",
"504 953 OFFCURVE",
"524 906 OFFCURVE",
"524 727 CURVE SMOOTH",
"524 582 LINE",
"202 526 OFFCURVE",
"60 411 OFFCURVE",
"60 212 CURVE SMOOTH",
"60 66 OFFCURVE",
"138 -21 OFFCURVE",
"275 -21 CURVE SMOOTH",
"390 -21 OFFCURVE",
"482 39 OFFCURVE",
"597 182 CURVE",
"603 182 LINE",
"678 55 OFFCURVE",
"802 -21 OFFCURVE",
"958 -21 CURVE SMOOTH",
"1147 -21 OFFCURVE",
"1290 91 OFFCURVE",
"1348 283 CURVE",
"1303 330 LINE",
"1241 236 OFFCURVE",
"1146 184 OFFCURVE",
"1034 184 CURVE SMOOTH",
"866 184 OFFCURVE",
"786 318 OFFCURVE",
"786 600 CURVE SMOOTH"
);
},
{
closed = 1;
nodes = (
"361 167 OFFCURVE",
"325 212 OFFCURVE",
"325 289 CURVE SMOOTH",
"325 392 OFFCURVE",
"386 456 OFFCURVE",
"522 489 CURVE",
"524 408 OFFCURVE",
"538 326 OFFCURVE",
"565 258 CURVE",
"515 196 OFFCURVE",
"467 167 OFFCURVE",
"419 167 CURVE SMOOTH"
);
}
);
width = 1422;
},
{
associatedMasterId = "FA6D65B5-4623-4FAC-A199-3F662257AC29";
layerId = "CBD44848-52BD-4DC5-BFA6-577546B7224D";
paths = (
{
closed = 1;
nodes = (
"458 -21 OFFCURVE",
"606 68 OFFCURVE",
"700 214 CURVE",
"708 214 LINE",
"788 68 OFFCURVE",
"933 -21 OFFCURVE",
"1115 -21 CURVE SMOOTH",
"1308 -21 OFFCURVE",
"1470 78 OFFCURVE",
"1540 240 CURVE SMOOTH",
"1552 267 LINE",
"1518 287 LINE",
"1495 258 LINE SMOOTH",
"1427 174 OFFCURVE",
"1307 124 OFFCURVE",
"1177 124 CURVE SMOOTH",
"942 124 OFFCURVE",
"837 275 OFFCURVE",
"837 609 CURVE",
"1559 609 LINE",
"1573 622 LINE",
"1567 914 OFFCURVE",
"1427 1069 OFFCURVE",
"1168 1069 CURVE SMOOTH",
"1024 1069 OFFCURVE",
"903 1021 OFFCURVE",
"812 937 CURVE",
"778 1032 OFFCURVE",
"685 1069 OFFCURVE",
"572 1069 CURVE SMOOTH",
"487 1069 OFFCURVE",
"398 1047 OFFCURVE",
"320 1008 CURVE SMOOTH",
"192 942 OFFCURVE",
"107 841 OFFCURVE",
"107 754 CURVE SMOOTH",
"107 697 OFFCURVE",
"144 659 OFFCURVE",
"198 659 CURVE SMOOTH",
"258 659 OFFCURVE",
"302 706 OFFCURVE",
"302 774 CURVE SMOOTH",
"302 796 OFFCURVE",
"297 821 OFFCURVE",
"297 843 CURVE SMOOTH",
"297 936 OFFCURVE",
"367 994 OFFCURVE",
"481 994 CURVE SMOOTH",
"596 994 OFFCURVE",
"639 933 OFFCURVE",
"639 766 CURVE SMOOTH",
"639 572 LINE",
"240 487 OFFCURVE",
"97 394 OFFCURVE",
"97 219 CURVE SMOOTH",
"97 78 OFFCURVE",
"196 -21 OFFCURVE",
"336 -21 CURVE SMOOTH"
);
},
{
closed = 1;
nodes = (
"326 97 OFFCURVE",
"273 159 OFFCURVE",
"273 264 CURVE SMOOTH",
"273 401 OFFCURVE",
"360 458 OFFCURVE",
"639 515 CURVE",
"639 421 OFFCURVE",
"653 342 OFFCURVE",
"681 273 CURVE",
"615 168 OFFCURVE",
"510 97 OFFCURVE",
"419 97 CURVE SMOOTH"
);
},
{
closed = 1;
nodes = (
"867 886 OFFCURVE",
"976 1008 OFFCURVE",
"1150 1008 CURVE SMOOTH",
"1292 1008 OFFCURVE",
"1366 925 OFFCURVE",
"1366 762 CURVE SMOOTH",
"1366 730 OFFCURVE",
"1365 697 OFFCURVE",
"1360 683 CURVE",
"841 664 LINE"
);
}
);
width = 1655;
},
{
layerId = "7C8D72FA-6E62-4564-8BB2-D9F9BC4EB15A";
paths = (
{
closed = 1;
nodes = (
"686 813 OFFCURVE",
"754 1002 OFFCURVE",
"928 1002 CURVE SMOOTH",
"1039 1002 OFFCURVE",
"1096 922 OFFCURVE",
"1096 762 CURVE SMOOTH",
"1096 731 OFFCURVE",
"1094 705 OFFCURVE",
"1090 683 CURVE",
"678 666 LINE",
"675 605 LINE",
"1263 605 LINE",
"1274 617 LINE",
"1270 913 OFFCURVE",
"1155 1069 OFFCURVE",
"943 1069 CURVE SMOOTH",
"830 1069 OFFCURVE",
"732 1024 OFFCURVE",
"658 945 CURVE",
"629 1033 OFFCURVE",
"557 1069 OFFCURVE",
"466 1069 CURVE SMOOTH",
"390 1069 OFFCURVE",
"315 1046 OFFCURVE",
"251 1003 CURVE SMOOTH",
"152 937 OFFCURVE",
"86 837 OFFCURVE",
"86 752 CURVE SMOOTH",
"86 692 OFFCURVE",
"118 651 OFFCURVE",
"163 651 CURVE SMOOTH",
"213 651 OFFCURVE",
"250 700 OFFCURVE",
"250 768 CURVE SMOOTH",
"250 791 OFFCURVE",
"246 816 OFFCURVE",
"246 841 CURVE SMOOTH",
"246 932 OFFCURVE",
"302 989 OFFCURVE",
"390 989 CURVE SMOOTH",
"480 989 OFFCURVE",
"513 929 OFFCURVE",
"513 760 CURVE SMOOTH",
"513 573 LINE",
"194 492 OFFCURVE",
"75 396 OFFCURVE",
"75 219 CURVE SMOOTH",
"75 77 OFFCURVE",
"154 -21 OFFCURVE",
"270 -21 CURVE SMOOTH",
"370 -21 OFFCURVE",
"485 63 OFFCURVE",
"566 210 CURVE",
"571 210 LINE",
"637 66 OFFCURVE",
"754 -21 OFFCURVE",
"901 -21 CURVE SMOOTH",
"1070 -21 OFFCURVE",
"1199 85 OFFCURVE",
"1255 269 CURVE",
"1226 292 LINE",
"1166 188 OFFCURVE",
"1070 132 OFFCURVE",
"956 132 CURVE SMOOTH",
"778 132 OFFCURVE",
"686 281 OFFCURVE",
"686 567 CURVE SMOOTH"
);
},
{
closed = 1;
nodes = (
"274 106 OFFCURVE",
"233 166 OFFCURVE",
"233 267 CURVE SMOOTH",
"233 400 OFFCURVE",
"302 458 OFFCURVE",
"512 511 CURVE",
"513 420 OFFCURVE",
"525 340 OFFCURVE",
"547 271 CURVE",
"494 173 OFFCURVE",
"416 106 OFFCURVE",
"346 106 CURVE SMOOTH"
);
}
);
width = 1337;
},
{
associatedMasterId = "7C8D72FA-6E62-4564-8BB2-D9F9BC4EB15A";
layerId = "31185475-9B13-491A-BD70-90092102E026";
name = "Jan 7 19, 14:43";
paths = (
{
closed = 1;
nodes = (
"463 -21 OFFCURVE",
"606 63 OFFCURVE",
"707 210 CURVE",
"715 210 LINE",
"796 66 OFFCURVE",
"942 -21 OFFCURVE",
"1125 -21 CURVE SMOOTH",
"1323 -21 OFFCURVE",
"1488 79 OFFCURVE",
"1558 242 CURVE SMOOTH",
"1569 269 LINE",
"1533 292 LINE",
"1511 265 LINE SMOOTH",
"1443 182 OFFCURVE",
"1322 132 OFFCURVE",
"1193 132 CURVE SMOOTH",
"962 132 OFFCURVE",
"857 281 OFFCURVE",
"856 605 CURVE",
"1579 605 LINE",
"1593 617 LINE",
"1587 913 OFFCURVE",
"1443 1069 OFFCURVE",
"1178 1069 CURVE SMOOTH",
"1035 1069 OFFCURVE",
"917 1024 OFFCURVE",
"824 943 CURVE",
"788 1033 OFFCURVE",
"697 1069 OFFCURVE",
"583 1069 CURVE SMOOTH",
"488 1069 OFFCURVE",
"394 1046 OFFCURVE",
"314 1003 CURVE SMOOTH",
"190 937 OFFCURVE",
"108 837 OFFCURVE",
"108 752 CURVE SMOOTH",
"108 692 OFFCURVE",
"147 651 OFFCURVE",
"204 651 CURVE SMOOTH",
"266 651 OFFCURVE",
"312 700 OFFCURVE",
"312 768 CURVE SMOOTH",
"312 791 OFFCURVE",
"307 816 OFFCURVE",
"307 841 CURVE SMOOTH",
"307 932 OFFCURVE",
"377 989 OFFCURVE",
"488 989 CURVE SMOOTH",
"600 989 OFFCURVE",
"641 929 OFFCURVE",
"641 760 CURVE SMOOTH",
"641 573 LINE",
"242 492 OFFCURVE",
"94 396 OFFCURVE",
"94 219 CURVE SMOOTH",
"94 77 OFFCURVE",
"192 -21 OFFCURVE",
"337 -21 CURVE SMOOTH"
);
},
{
closed = 1;
nodes = (
"343 106 OFFCURVE",
"291 166 OFFCURVE",
"291 267 CURVE SMOOTH",
"291 400 OFFCURVE",
"377 458 OFFCURVE",
"640 511 CURVE",
"641 420 OFFCURVE",
"656 340 OFFCURVE",
"684 271 CURVE",
"618 173 OFFCURVE",
"520 106 OFFCURVE",
"433 106 CURVE SMOOTH"
);
},
{
closed = 1;
nodes = (
"886 882 OFFCURVE",
"990 1002 OFFCURVE",
"1160 1002 CURVE SMOOTH",
"1298 1002 OFFCURVE",
"1369 920 OFFCURVE",
"1369 762 CURVE SMOOTH",
"1369 730 OFFCURVE",
"1368 698 OFFCURVE",
"1363 683 CURVE",
"860 664 LINE"
);
}
);
width = 1671;
},
{
associatedMasterId = "FA6D65B5-4623-4FAC-A199-3F662257AC29";
layerId = "F182206B-4591-4B02-AF8B-214E477D2075";
name = "Jan 7 19, 14:43";
paths = (
{
closed = 1;
nodes = (
"487 -21 OFFCURVE",
"603 39 OFFCURVE",
"746 182 CURVE",
"754 182 LINE",
"849 52 OFFCURVE",
"1005 -21 OFFCURVE",
"1193 -21 CURVE SMOOTH",
"1419 -21 OFFCURVE",
"1602 85 OFFCURVE",
"1674 260 CURVE SMOOTH",
"1685 283 LINE",
"1628 330 LINE",
"1614 314 LINE SMOOTH",
"1544 234 OFFCURVE",
"1421 184 OFFCURVE",
"1292 184 CURVE SMOOTH",
"1086 184 OFFCURVE",
"983 312 OFFCURVE",
"982 573 CURVE",
"1703 573 LINE",
"1718 586 LINE",
"1708 904 OFFCURVE",
"1546 1069 OFFCURVE",
"1247 1069 CURVE SMOOTH",
"1117 1069 OFFCURVE",
"1002 1039 OFFCURVE",
"906 980 CURVE",
"849 1043 OFFCURVE",
"774 1069 OFFCURVE",
"648 1069 CURVE SMOOTH",
"500 1069 OFFCURVE",
"367 1033 OFFCURVE",
"271 970 CURVE SMOOTH",
"174 904 OFFCURVE",
"115 813 OFFCURVE",
"115 732 CURVE SMOOTH",
"115 655 OFFCURVE",
"168 600 OFFCURVE",
"245 600 CURVE SMOOTH",
"322 600 OFFCURVE",
"382 656 OFFCURVE",
"382 732 CURVE SMOOTH",
"382 760 OFFCURVE",
"374 790 OFFCURVE",
"374 820 CURVE SMOOTH",
"374 903 OFFCURVE",
"435 953 OFFCURVE",
"534 953 CURVE SMOOTH",
"630 953 OFFCURVE",
"655 906 OFFCURVE",
"655 727 CURVE SMOOTH",
"655 582 LINE",
"253 526 OFFCURVE",
"75 411 OFFCURVE",
"75 212 CURVE SMOOTH",
"75 66 OFFCURVE",
"172 -21 OFFCURVE",
"344 -21 CURVE SMOOTH"
);
},
{
closed = 1;
nodes = (
"451 167 OFFCURVE",
"406 212 OFFCURVE",
"406 289 CURVE SMOOTH",
"406 392 OFFCURVE",
"482 456 OFFCURVE",
"653 489 CURVE",
"655 408 OFFCURVE",
"672 326 OFFCURVE",
"706 258 CURVE",
"644 196 OFFCURVE",
"584 167 OFFCURVE",
"524 167 CURVE SMOOTH"
);
},
{
closed = 1;
nodes = (
"1002 861 OFFCURVE",
"1086 968 OFFCURVE",
"1224 968 CURVE SMOOTH",
"1336 968 OFFCURVE",
"1398 895 OFFCURVE",
"1398 762 CURVE SMOOTH",
"1398 732 OFFCURVE",
"1393 702 OFFCURVE",
"1390 683 CURVE",
"985 667 LINE"
);
}
);
visible = 1;
width = 1777;
}
);
leftKerningGroup = a;
rightKerningGroup = e;
unicode = 00E6;
userData = {
com.typemytype.robofont.guides = (
{
angle = 90;
isGlobal = 0;
magnetic = 5;
x = -118;
y = 0;
}
);
};
},
{
glyphname = b;
layers = (
{
layerId = "FA6D65B5-4623-4FAC-A199-3F662257AC29";
paths = (
{
closed = 1;
nodes = (
"796 -21 OFFCURVE",
"983 234 OFFCURVE",
"983 568 CURVE SMOOTH",
"983 865 OFFCURVE",
"841 1069 OFFCURVE",
"634 1069 CURVE SMOOTH",
"531 1069 OFFCURVE",
"442 1016 OFFCURVE",
"370 928 CURVE",
"370 1643 LINE",
"335 1643 LINE",
"-8 1546 LINE",
"-8 1500 LINE",
"126 1447 LINE",
"126 0 LINE",
"171 0 LINE",
"306 71 LINE",
"317 71 LINE",
"385 13 OFFCURVE",
"469 -21 OFFCURVE",
"554 -21 CURVE SMOOTH"
);
},
{
closed = 1;
nodes = (
"431 86 OFFCURVE",
"370 185 OFFCURVE",
"370 336 CURVE SMOOTH",
"370 799 LINE",
"408 871 OFFCURVE",
"461 914 OFFCURVE",
"524 914 CURVE SMOOTH",
"646 914 OFFCURVE",
"716 763 OFFCURVE",
"716 512 CURVE SMOOTH",
"716 258 OFFCURVE",
"639 86 OFFCURVE",
"522 86 CURVE SMOOTH"
);
}
);
width = 1042;
},
{
associatedMasterId = "FA6D65B5-4623-4FAC-A199-3F662257AC29";
layerId = "CBD44848-52BD-4DC5-BFA6-577546B7224D";
paths = (
{
closed = 1;
nodes = (
"875 -21 OFFCURVE",
"1101 234 OFFCURVE",
"1101 568 CURVE SMOOTH",
"1101 865 OFFCURVE",
"922 1069 OFFCURVE",
"663 1069 CURVE SMOOTH",
"547 1069 OFFCURVE",
"446 1024 OFFCURVE",
"362 935 CURVE",
"362 1643 LINE",
"342 1643 LINE",
"28 1546 LINE",
"28 1520 LINE",
"172 1466 LINE",
"172 0 LINE",
"204 0 LINE",
"295 71 LINE",
"305 71 LINE",
"383 13 OFFCURVE",
"479 -21 OFFCURVE",
"578 -21 CURVE SMOOTH"
);
},
{
closed = 1;
nodes = (
"448 47 OFFCURVE",
"362 146 OFFCURVE",
"362 297 CURVE SMOOTH",
"362 859 LINE",
"413 922 OFFCURVE",
"491 962 OFFCURVE",
"580 962 CURVE SMOOTH",
"772 962 OFFCURVE",
"888 792 OFFCURVE",
"888 512 CURVE SMOOTH",
"888 234 OFFCURVE",
"766 47 OFFCURVE",
"578 47 CURVE SMOOTH"
);
}
);
width = 1192;
},
{
layerId = "7C8D72FA-6E62-4564-8BB2-D9F9BC4EB15A";
paths = (
{
closed = 1;
nodes = (
"713 -21 OFFCURVE",
"894 234 OFFCURVE",
"894 568 CURVE SMOOTH",
"894 865 OFFCURVE",
"752 1069 OFFCURVE",
"545 1069 CURVE SMOOTH",
"450 1069 OFFCURVE",
"367 1023 OFFCURVE",
"300 934 CURVE",
"300 1643 LINE",
"282 1643 LINE",
"18 1546 LINE",
"18 1518 LINE",
"136 1464 LINE",
"136 0 LINE",
"164 0 LINE",
"245 71 LINE",
"254 71 LINE",
"317 13 OFFCURVE",
"394 -21 OFFCURVE",
"474 -21 CURVE SMOOTH"
);
},
{
closed = 1;
nodes = (
"367 53 OFFCURVE",
"300 152 OFFCURVE",
"300 302 CURVE SMOOTH",
"300 851 LINE",
"342 915 OFFCURVE",
"402 955 OFFCURVE",
"473 955 CURVE SMOOTH",
"621 955 OFFCURVE",
"711 788 OFFCURVE",
"711 512 CURVE SMOOTH",
"711 237 OFFCURVE",
"616 53 OFFCURVE",
"470 53 CURVE SMOOTH"
);
}
);
width = 966;
}
);
leftKerningGroup = b;
rightKerningGroup = b;
unicode = 0062;
},
{
glyphname = c;
layers = (
{
anchors = (
{
name = bottom;
position = "{497, 0}";
},
{
name = top;
position = "{515, 1289}";
}
);
layerId = "FA6D65B5-4623-4FAC-A199-3F662257AC29";
paths = (
{
closed = 1;
nodes = (
"654 -21 OFFCURVE",
"771 78 OFFCURVE",
"838 286 CURVE",
"793 329 LINE",
"726 230 OFFCURVE",
"650 184 OFFCURVE",
"549 184 CURVE SMOOTH",
"400 184 OFFCURVE",
"323 318 OFFCURVE",
"323 572 CURVE SMOOTH",
"323 823 OFFCURVE",
"397 966 OFFCURVE",
"524 966 CURVE SMOOTH",
"603 966 OFFCURVE",
"621 889 OFFCURVE",
"631 788 CURVE SMOOTH",
"638 729 OFFCURVE",
"656 659 OFFCURVE",
"735 659 CURVE SMOOTH",
"801 659 OFFCURVE",
"842 710 OFFCURVE",
"842 791 CURVE SMOOTH",
"842 950 OFFCURVE",
"702 1069 OFFCURVE",
"516 1069 CURVE SMOOTH",
"248 1069 OFFCURVE",
"57 836 OFFCURVE",
"57 510 CURVE SMOOTH",
"57 203 OFFCURVE",
"230 -21 OFFCURVE",
"474 -21 CURVE SMOOTH"
);
}
);
width = 882;
},
{
anchors = (
{
name = bottom;
position = "{576, 0}";
},
{
name = top;
position = "{609, 1289}";
}
);
associatedMasterId = "FA6D65B5-4623-4FAC-A199-3F662257AC29";
layerId = "CBD44848-52BD-4DC5-BFA6-577546B7224D";
paths = (
{
closed = 1;
nodes = (
"766 -21 OFFCURVE",
"914 78 OFFCURVE",
"982 253 CURVE SMOOTH",
"991 279 LINE",
"953 299 LINE",
"933 268 LINE SMOOTH",
"861 172 OFFCURVE",
"752 124 OFFCURVE",
"633 124 CURVE SMOOTH",
"417 124 OFFCURVE",
"292 281 OFFCURVE",
"292 550 CURVE SMOOTH",
"292 828 OFFCURVE",
"413 1005 OFFCURVE",
"623 1005 CURVE SMOOTH",
"713 1005 OFFCURVE",
"750 978 OFFCURVE",
"766 846 CURVE SMOOTH",
"776 762 OFFCURVE",
"813 722 OFFCURVE",
"883 722 CURVE SMOOTH",
"940 722 OFFCURVE",
"974 768 OFFCURVE",
"974 836 CURVE SMOOTH",
"974 962 OFFCURVE",
"820 1069 OFFCURVE",
"617 1069 CURVE SMOOTH",
"310 1069 OFFCURVE",
"91 837 OFFCURVE",
"91 510 CURVE SMOOTH",
"91 198 OFFCURVE",
"291 -21 OFFCURVE",
"573 -21 CURVE SMOOTH"
);
}
);
width = 1059;
},
{
anchors = (
{
name = bottom;
position = "{466, 0}";
},
{
name = top;
position = "{485, 1289}";
}
);
layerId = "7C8D72FA-6E62-4564-8BB2-D9F9BC4EB15A";
paths = (
{
closed = 1;
nodes = (
"606 -21 OFFCURVE",
"727 86 OFFCURVE",
"786 275 CURVE",
"754 298 LINE",
"687 183 OFFCURVE",
"604 138 OFFCURVE",
"498 138 CURVE SMOOTH",
"336 138 OFFCURVE",
"246 287 OFFCURVE",
"246 556 CURVE SMOOTH",
"246 824 OFFCURVE",
"334 1000 OFFCURVE",
"485 1000 CURVE SMOOTH",
"560 1000 OFFCURVE",
"590 965 OFFCURVE",
"602 833 CURVE SMOOTH",
"610 745 OFFCURVE",
"636 705 OFFCURVE",
"691 705 CURVE SMOOTH",
"742 705 OFFCURVE",
"774 747 OFFCURVE",
"774 820 CURVE SMOOTH",
"774 953 OFFCURVE",
"648 1069 OFFCURVE",
"480 1069 CURVE SMOOTH",
"241 1069 OFFCURVE",
"71 831 OFFCURVE",
"71 504 CURVE SMOOTH",
"71 193 OFFCURVE",
"226 -21 OFFCURVE",
"444 -21 CURVE SMOOTH"
);
}
);
width = 840;
},
{
anchors = (
{
name = bottom;
position = "{621, 0}";
},
{
name = top;
position = "{644, 1289}";
}
);
associatedMasterId = "FA6D65B5-4623-4FAC-A199-3F662257AC29";
layerId = "82E8C230-52A6-4E98-B82A-B16808911FDA";
name = "Jan 7 19, 14:38";
paths = (
{
closed = 1;
nodes = (
"818 -21 OFFCURVE",
"972 73 OFFCURVE",
"1051 264 CURVE SMOOTH",
"1061 287 LINE",
"1005 330 LINE",
"991 314 LINE SMOOTH",
"919 229 OFFCURVE",
"818 184 OFFCURVE",
"698 184 CURVE SMOOTH",
"503 184 OFFCURVE",
"404 318 OFFCURVE",
"404 572 CURVE SMOOTH",
"404 823 OFFCURVE",
"501 966 OFFCURVE",
"667 966 CURVE SMOOTH",
"774 966 OFFCURVE",
"799 895 OFFCURVE",
"812 801 CURVE SMOOTH",
"820 743 OFFCURVE",
"843 672 OFFCURVE",
"942 672 CURVE SMOOTH",
"1024 672 OFFCURVE",
"1076 724 OFFCURVE",
"1076 805 CURVE SMOOTH",
"1076 956 OFFCURVE",
"896 1069 OFFCURVE",
"656 1069 CURVE SMOOTH",
"314 1069 OFFCURVE",
"71 836 OFFCURVE",
"71 510 CURVE SMOOTH",
"71 203 OFFCURVE",
"292 -21 OFFCURVE",
"603 -21 CURVE SMOOTH"
);
}
);
width = 1130;
},
{
anchors = (
{
name = bottom;
position = "{582, 0}";
},
{
name = top;
position = "{614, 1289}";
}
);
associatedMasterId = "7C8D72FA-6E62-4564-8BB2-D9F9BC4EB15A";
layerId = "297B9158-4541-48B2-A41E-57E553896057";
name = "Jan 7 19, 14:40";
paths = (
{
closed = 1;
nodes = (
"773 -21 OFFCURVE",
"922 78 OFFCURVE",
"991 254 CURVE SMOOTH",
"1001 280 LINE",
"960 303 LINE",
"940 275 LINE SMOOTH",
"869 180 OFFCURVE",
"761 132 OFFCURVE",
"641 132 CURVE SMOOTH",
"428 132 OFFCURVE",
"307 286 OFFCURVE",
"307 553 CURVE SMOOTH",
"307 827 OFFCURVE",
"425 1000 OFFCURVE",
"629 1000 CURVE SMOOTH",
"721 1000 OFFCURVE",
"757 966 OFFCURVE",
"772 841 CURVE SMOOTH",
"782 760 OFFCURVE",
"818 715 OFFCURVE",
"891 715 CURVE SMOOTH",
"951 715 OFFCURVE",
"987 762 OFFCURVE",
"987 831 CURVE SMOOTH",
"987 960 OFFCURVE",
"830 1069 OFFCURVE",
"623 1069 CURVE SMOOTH",
"310 1069 OFFCURVE",
"89 836 OFFCURVE",
"89 510 CURVE SMOOTH",
"89 198 OFFCURVE",
"291 -21 OFFCURVE",
"578 -21 CURVE SMOOTH"
);
}
);
width = 1069;
},
{
anchors = (
{
name = bottom;
position = "{582, 0}";
},
{
name = top;
position = "{614, 1289}";
}
);
associatedMasterId = "7C8D72FA-6E62-4564-8BB2-D9F9BC4EB15A";
layerId = "C8A78D21-83DD-4FB8-94F0-B9B1DAA82189";
name = "Jan 23 19, 15:28";
paths = (
{
closed = 1;
nodes = (
"784 -21 OFFCURVE",
"929 82 OFFCURVE",
"1001 280 CURVE",
"960 303 LINE",
"882 188 OFFCURVE",
"778 132 OFFCURVE",
"641 132 CURVE SMOOTH",
"428 132 OFFCURVE",
"307 286 OFFCURVE",
"307 553 CURVE SMOOTH",
"307 827 OFFCURVE",
"425 1000 OFFCURVE",
"629 1000 CURVE SMOOTH",
"721 1000 OFFCURVE",
"757 966 OFFCURVE",
"772 841 CURVE SMOOTH",
"782 760 OFFCURVE",
"818 715 OFFCURVE",
"891 715 CURVE SMOOTH",
"951 715 OFFCURVE",
"987 762 OFFCURVE",
"987 831 CURVE SMOOTH",
"987 960 OFFCURVE",
"830 1069 OFFCURVE",
"623 1069 CURVE SMOOTH",
"310 1069 OFFCURVE",
"89 836 OFFCURVE",
"89 510 CURVE SMOOTH",
"89 198 OFFCURVE",
"291 -21 OFFCURVE",
"578 -21 CURVE SMOOTH"
);
}
);
visible = 1;
width = 1069;
},
{
anchors = (
{
name = bottom;
position = "{621, 0}";
},
{
name = top;
position = "{644, 1289}";
}
);
associatedMasterId = "FA6D65B5-4623-4FAC-A199-3F662257AC29";
layerId = "56C6FCA9-1083-40D9-A145-AA43492AA204";
name = "Jan 23 19, 15:28";
paths = (
{
closed = 1;
nodes = (
"831 -21 OFFCURVE",
"979 78 OFFCURVE",
"1061 287 CURVE",
"1005 330 LINE",
"922 230 OFFCURVE",
"827 184 OFFCURVE",
"698 184 CURVE SMOOTH",
"503 184 OFFCURVE",
"404 318 OFFCURVE",
"404 572 CURVE SMOOTH",
"404 823 OFFCURVE",
"501 966 OFFCURVE",
"667 966 CURVE SMOOTH",
"774 966 OFFCURVE",
"799 895 OFFCURVE",
"812 801 CURVE SMOOTH",
"820 743 OFFCURVE",
"843 672 OFFCURVE",
"942 672 CURVE SMOOTH",
"1024 672 OFFCURVE",
"1076 724 OFFCURVE",
"1076 805 CURVE SMOOTH",
"1076 956 OFFCURVE",
"896 1069 OFFCURVE",
"656 1069 CURVE SMOOTH",
"314 1069 OFFCURVE",
"71 836 OFFCURVE",
"71 510 CURVE SMOOTH",
"71 203 OFFCURVE",
"292 -21 OFFCURVE",
"603 -21 CURVE SMOOTH"
);
}
);
width = 1130;
}
);
leftKerningGroup = e;
rightKerningGroup = c;
unicode = 0063;
},
{
glyphname = d;
layers = (
{
anchors = (
{
name = bottom;
position = "{402, 0}";
}
);
layerId = "FA6D65B5-4623-4FAC-A199-3F662257AC29";
paths = (
{
closed = 1;
nodes = (
"522 -21 OFFCURVE",
"614 25 OFFCURVE",
"679 105 CURVE",
"687 101 LINE",
"687 -21 LINE",
"716 -21 LINE",
"1046 104 LINE",
"1046 144 LINE",
"920 193 LINE",
"920 1643 LINE",
"886 1643 LINE",
"540 1546 LINE",
"540 1500 LINE",
"674 1445 LINE",
"674 1019 LINE",
"614 1052 OFFCURVE",
"551 1069 OFFCURVE",
"491 1069 CURVE SMOOTH",
"236 1069 OFFCURVE",
"58 839 OFFCURVE",
"58 507 CURVE SMOOTH",
"58 204 OFFCURVE",
"217 -21 OFFCURVE",
"419 -21 CURVE SMOOTH"
);
},
{
closed = 1;
nodes = (
"400 122 OFFCURVE",
"329 284 OFFCURVE",
"329 540 CURVE SMOOTH",
"329 792 OFFCURVE",
"406 962 OFFCURVE",
"522 962 CURVE SMOOTH",
"614 962 OFFCURVE",
"674 862 OFFCURVE",
"674 716 CURVE SMOOTH",
"674 226 LINE",
"637 162 OFFCURVE",
"584 122 OFFCURVE",
"521 122 CURVE SMOOTH"
);
}
);
width = 1066;
},
{
anchors = (
{
name = bottom;
position = "{503, 0}";
}
);
associatedMasterId = "FA6D65B5-4623-4FAC-A199-3F662257AC29";
layerId = "CBD44848-52BD-4DC5-BFA6-577546B7224D";
paths = (
{
closed = 1;
nodes = (
"633 -21 OFFCURVE",
"750 37 OFFCURVE",
"834 154 CURVE",
"841 151 LINE",
"841 -21 LINE",
"854 -21 LINE",
"1148 104 LINE",
"1148 124 LINE",
"1013 154 LINE",
"1013 1643 LINE",
"994 1643 LINE",
"683 1546 LINE",
"683 1520 LINE",
"828 1464 LINE",
"828 1039 LINE",
"758 1059 OFFCURVE",
"683 1069 OFFCURVE",
"614 1069 CURVE SMOOTH",
"305 1069 OFFCURVE",
"93 839 OFFCURVE",
"93 507 CURVE SMOOTH",
"93 204 OFFCURVE",
"268 -21 OFFCURVE",
"503 -21 CURVE SMOOTH"
);
},
{
closed = 1;
nodes = (
"408 109 OFFCURVE",
"302 273 OFFCURVE",
"302 539 CURVE SMOOTH",
"302 823 OFFCURVE",
"425 1010 OFFCURVE",
"609 1010 CURVE SMOOTH",
"752 1010 OFFCURVE",
"828 935 OFFCURVE",
"828 792 CURVE SMOOTH",
"828 226 LINE",
"782 154 OFFCURVE",
"689 109 OFFCURVE",
"586 109 CURVE SMOOTH"
);
}
);
width = 1201;
},
{
anchors = (
{
name = bottom;
position = "{402, 0}";
}
);
layerId = "7C8D72FA-6E62-4564-8BB2-D9F9BC4EB15A";
paths = (
{
closed = 1;
nodes = (
"509 -21 OFFCURVE",
"602 36 OFFCURVE",
"668 147 CURVE",
"675 144 LINE",
"675 -21 LINE",
"688 -21 LINE",
"935 104 LINE",
"935 128 LINE",
"826 159 LINE",
"826 1643 LINE",
"807 1643 LINE",
"546 1546 LINE",
"546 1518 LINE",
"664 1461 LINE",
"664 1036 LINE",
"607 1058 OFFCURVE",
"546 1069 OFFCURVE",
"491 1069 CURVE SMOOTH",
"242 1069 OFFCURVE",
"73 839 OFFCURVE",
"73 507 CURVE SMOOTH",
"73 204 OFFCURVE",
"215 -21 OFFCURVE",
"405 -21 CURVE SMOOTH"
);
},
{
closed = 1;
nodes = (
"336 111 OFFCURVE",
"253 275 OFFCURVE",
"253 539 CURVE SMOOTH",
"253 819 OFFCURVE",
"349 1003 OFFCURVE",
"492 1003 CURVE SMOOTH",
"603 1003 OFFCURVE",
"664 925 OFFCURVE",
"664 782 CURVE SMOOTH",
"664 226 LINE",
"626 155 OFFCURVE",
"554 111 OFFCURVE",
"475 111 CURVE SMOOTH"
);
}
);
width = 974;
}
);
leftKerningGroup = d;
rightKerningGroup = d;
unicode = 0064;
},
{
glyphname = eth;
layers = (
{
layerId = "FA6D65B5-4623-4FAC-A199-3F662257AC29";
paths = (
{
closed = 1;
nodes = (
"689 -21 OFFCURVE",
"886 196 OFFCURVE",
"886 580 CURVE SMOOTH",
"886 1026 OFFCURVE",
"663 1373 OFFCURVE",
"256 1544 CURVE",
"205 1445 LINE",
"440 1292 OFFCURVE",
"571 1080 OFFCURVE",
"603 831 CURVE",
"565 896 OFFCURVE",
"494 935 OFFCURVE",
"406 935 CURVE SMOOTH",
"205 935 OFFCURVE",
"57 737 OFFCURVE",
"57 466 CURVE SMOOTH",
"57 177 OFFCURVE",
"226 -21 OFFCURVE",
"454 -21 CURVE SMOOTH {name = hr00;}"
);
},
{
closed = 1;
nodes = (
"373 99 OFFCURVE",
"317 227 OFFCURVE",
"317 433 CURVE SMOOTH",
"317 648 OFFCURVE",
"378 786 OFFCURVE",
"477 786 CURVE SMOOTH",
"530 786 OFFCURVE",
"579 746 OFFCURVE",
"606 679 CURVE",
"619 620 OFFCURVE",
"626 545 OFFCURVE",
"626 471 CURVE SMOOTH",
"626 242 OFFCURVE",
"564 99 OFFCURVE",
"466 99 CURVE SMOOTH"
);
},
{
closed = 1;
nodes = (
"765 1412 LINE",
"695 1531 LINE",
"248 1138 LINE",
"315 1016 LINE"
);
}
);
width = 961;
},
{
associatedMasterId = "FA6D65B5-4623-4FAC-A199-3F662257AC29";
layerId = "CBD44848-52BD-4DC5-BFA6-577546B7224D";
paths = (
{
closed = 1;
nodes = (
"862 -21 OFFCURVE",
"1071 214 OFFCURVE",
"1071 552 CURVE SMOOTH",
"1071 976 OFFCURVE",
"760 1383 OFFCURVE",
"314 1544 CURVE",
"279 1474 LINE",
"531 1354 OFFCURVE",
"786 1044 OFFCURVE",
"821 815 CURVE",
"770 873 OFFCURVE",
"644 919 OFFCURVE",
"534 919 CURVE SMOOTH",
"291 919 OFFCURVE",
"94 708 OFFCURVE",
"94 450 CURVE SMOOTH",
"94 177 OFFCURVE",
"291 -21 OFFCURVE",
"562 -21 CURVE SMOOTH {name = hr00;}"
);
},
{
closed = 1;
nodes = (
"421 70 OFFCURVE",
"330 204 OFFCURVE",
"330 417 CURVE SMOOTH",
"330 648 OFFCURVE",
"443 805 OFFCURVE",
"607 805 CURVE SMOOTH",
"691 805 OFFCURVE",
"778 763 OFFCURVE",
"826 698 CURVE",
"839 639 OFFCURVE",
"849 549 OFFCURVE",
"849 481 CURVE SMOOTH",
"849 243 OFFCURVE",
"729 70 OFFCURVE",
"564 70 CURVE SMOOTH"
);
},
{
closed = 1;
nodes = (
"875 1430 LINE",
"815 1521 LINE",
"307 1192 LINE",
"364 1101 LINE"
);
}
);
width = 1168;
},
{
layerId = "7C8D72FA-6E62-4564-8BB2-D9F9BC4EB15A";
paths = (
{
closed = 1;
nodes = (
"690 -21 OFFCURVE",
"861 211 OFFCURVE",
"861 556 CURVE SMOOTH",
"861 982 OFFCURVE",
"615 1382 OFFCURVE",
"253 1544 CURVE",
"220 1470 LINE",
"426 1346 OFFCURVE",
"621 1049 OFFCURVE",
"650 818 CURVE",
"610 876 OFFCURVE",
"512 921 OFFCURVE",
"425 921 CURVE SMOOTH",
"230 921 OFFCURVE",
"73 712 OFFCURVE",
"73 453 CURVE SMOOTH",
"73 177 OFFCURVE",
"232 -21 OFFCURVE",
"450 -21 CURVE SMOOTH {name = hr00;}"
);
},
{
closed = 1;
nodes = (
"342 74 OFFCURVE",
"272 206 OFFCURVE",
"272 419 CURVE SMOOTH",
"272 648 OFFCURVE",
"358 803 OFFCURVE",
"485 803 CURVE SMOOTH",
"549 803 OFFCURVE",
"618 761 OFFCURVE",
"653 696 CURVE",
"664 636 OFFCURVE",
"671 548 OFFCURVE",
"671 480 CURVE SMOOTH",
"671 243 OFFCURVE",
"580 74 OFFCURVE",
"454 74 CURVE SMOOTH"
);
},
{
closed = 1;
nodes = (
"709 1428 LINE",
"658 1522 LINE",
"246 1185 LINE",
"294 1089 LINE"
);
}
);
width = 938;
}
);
leftKerningGroup = o;
unicode = 00F0;
},
{
glyphname = dcroat;
layers = (
{
components = (
{
name = d;
}
);
layerId = "FA6D65B5-4623-4FAC-A199-3F662257AC29";
paths = (
{
closed = 1;
nodes = (
"1046 1185 LINE",
"1046 1354 LINE",
"496 1354 LINE",
"496 1185 LINE"
);
}
);
width = 1066;
},
{
associatedMasterId = "FA6D65B5-4623-4FAC-A199-3F662257AC29";
components = (
{
name = d;
}
);
layerId = "CBD44848-52BD-4DC5-BFA6-577546B7224D";
paths = (
{
closed = 1;
nodes = (
"1150 1206 LINE",
"1150 1333 LINE",
"542 1333 LINE",
"542 1206 LINE"
);
}
);
width = 1201;
},
{
components = (
{
alignment = -1;
name = d;
}
);
layerId = "7C8D72FA-6E62-4564-8BB2-D9F9BC4EB15A";
paths = (
{
closed = 1;
nodes = (
"937 1203 LINE",
"937 1337 LINE",
"442 1337 LINE",
"442 1203 LINE"
);
}
);
width = 974;
}
);
leftKerningGroup = d;
rightKerningGroup = d;
unicode = 0111;
},
{
glyphname = e;
layers = (
{
anchors = (
{
name = bottom;
position = "{472, 0}";
},
{
name = ogonekcurve;
position = "{754, 77}";
},
{
name = top;
position = "{509, 1289}";
}
);
layerId = "FA6D65B5-4623-4FAC-A199-3F662257AC29";
paths = (
{
closed = 1;
nodes = (
"681 -21 OFFCURVE",
"825 91 OFFCURVE",
"882 283 CURVE",
"838 330 LINE",
"774 236 OFFCURVE",
"680 184 OFFCURVE",
"568 184 CURVE SMOOTH",
"402 184 OFFCURVE",
"321 314 OFFCURVE",
"321 584 CURVE SMOOTH",
"321 829 OFFCURVE",
"388 968 OFFCURVE",
"511 968 CURVE SMOOTH",
"603 968 OFFCURVE",
"652 895 OFFCURVE",
"652 758 CURVE SMOOTH",
"652 724 OFFCURVE",
"650 696 OFFCURVE",
"646 683 CURVE",
"205 663 LINE",
"205 573 LINE",
"896 573 LINE",
"908 586 LINE",
"901 903 OFFCURVE",
"773 1069 OFFCURVE",
"531 1069 CURVE SMOOTH",
"250 1069 OFFCURVE",
"57 841 OFFCURVE",
"57 508 CURVE SMOOTH",
"57 193 OFFCURVE",
"230 -21 OFFCURVE",
"492 -21 CURVE SMOOTH"
);
}
);
width = 956;
},
{
anchors = (
{
name = bottom;
position = "{570, 0}";
},
{
name = top;
position = "{615, 1289}";
}
);
associatedMasterId = "FA6D65B5-4623-4FAC-A199-3F662257AC29";
layerId = "CBD44848-52BD-4DC5-BFA6-577546B7224D";
paths = (
{
closed = 1;
nodes = (
"762 -21 OFFCURVE",
"925 78 OFFCURVE",
"994 240 CURVE SMOOTH",
"1005 267 LINE",
"972 287 LINE",
"948 258 LINE SMOOTH",
"879 174 OFFCURVE",
"762 124 OFFCURVE",
"633 124 CURVE SMOOTH",
"408 124 OFFCURVE",
"291 275 OFFCURVE",
"291 564 CURVE SMOOTH",
"291 846 OFFCURVE",
"404 1008 OFFCURVE",
"603 1008 CURVE SMOOTH",
"746 1008 OFFCURVE",
"820 927 OFFCURVE",
"820 763 CURVE SMOOTH",
"820 732 OFFCURVE",
"818 698 OFFCURVE",
"813 683 CURVE",
"252 663 LINE",
"252 609 LINE",
"1013 609 LINE",
"1027 622 LINE",
"1021 914 OFFCURVE",
"881 1069 OFFCURVE",
"622 1069 CURVE SMOOTH",
"307 1069 OFFCURVE",
"93 841 OFFCURVE",
"93 508 CURVE SMOOTH",
"93 193 OFFCURVE",
"284 -21 OFFCURVE",
"568 -21 CURVE SMOOTH"
);
}
);
width = 1109;
},
{
anchors = (
{
name = bottom;
position = "{458, 0}";
},
{
name = ogonekcurve;
position = "{701, 77}";
},
{
name = top;
position = "{494, 1289}";
}
);
layerId = "7C8D72FA-6E62-4564-8BB2-D9F9BC4EB15A";
paths = (
{
closed = 1;
nodes = (
"628 -21 OFFCURVE",
"758 85 OFFCURVE",
"814 269 CURVE",
"785 292 LINE",
"724 188 OFFCURVE",
"629 132 OFFCURVE",
"515 132 CURVE SMOOTH",
"336 132 OFFCURVE",
"245 281 OFFCURVE",
"245 567 CURVE SMOOTH",
"245 844 OFFCURVE",
"332 1002 OFFCURVE",
"486 1002 CURVE SMOOTH",
"598 1002 OFFCURVE",
"655 922 OFFCURVE",
"655 762 CURVE SMOOTH",
"655 731 OFFCURVE",
"653 698 OFFCURVE",
"650 683 CURVE",
"202 663 LINE",
"202 605 LINE",
"822 605 LINE",
"833 617 LINE",
"828 913 OFFCURVE",
"714 1069 OFFCURVE",
"502 1069 CURVE SMOOTH",
"246 1069 OFFCURVE",
"72 841 OFFCURVE",
"72 508 CURVE SMOOTH",
"72 193 OFFCURVE",
"227 -21 OFFCURVE",
"460 -21 CURVE SMOOTH"
);
}
);
width = 896;
},
{
anchors = (
{
name = bottom;
position = "{590, 0}";
},
{
name = top;
position = "{636, 1289}";
}
);
associatedMasterId = "FA6D65B5-4623-4FAC-A199-3F662257AC29";
layerId = "8C02BBE7-42F6-4BE5-BB27-BFB8EC1741EF";
name = "Jan 7 19, 14:40";
paths = (
{
closed = 1;
nodes = (
"831 -21 OFFCURVE",
"1019 81 OFFCURVE",
"1093 260 CURVE SMOOTH",
"1102 283 LINE",
"1047 330 LINE",
"1033 314 LINE SMOOTH",
"956 227 OFFCURVE",
"826 184 OFFCURVE",
"710 184 CURVE SMOOTH",
"503 184 OFFCURVE",
"401 314 OFFCURVE",
"401 584 CURVE SMOOTH",
"401 829 OFFCURVE",
"485 968 OFFCURVE",
"639 968 CURVE SMOOTH",
"754 968 OFFCURVE",
"815 895 OFFCURVE",
"815 758 CURVE SMOOTH",
"815 724 OFFCURVE",
"812 696 OFFCURVE",
"807 683 CURVE",
"256 663 LINE",
"256 573 LINE",
"1120 573 LINE",
"1135 586 LINE",
"1126 903 OFFCURVE",
"966 1069 OFFCURVE",
"664 1069 CURVE SMOOTH",
"312 1069 OFFCURVE",
"71 841 OFFCURVE",
"71 508 CURVE SMOOTH",
"71 193 OFFCURVE",
"287 -21 OFFCURVE",
"615 -21 CURVE SMOOTH"
);
}
);
visible = 1;
width = 1195;
},
{
anchors = (
{
name = bottom;
position = "{572, 0}";
},
{
name = top;
position = "{618, 1289}";
}
);
associatedMasterId = "7C8D72FA-6E62-4564-8BB2-D9F9BC4EB15A";
layerId = "CA178C85-2D92-48A3-9F7E-0674D9E4867A";
name = "Jan 7 19, 14:40";
paths = (
{
closed = 1;
nodes = (
"772 -21 OFFCURVE",
"937 79 OFFCURVE",
"1008 242 CURVE SMOOTH",
"1018 269 LINE",
"981 292 LINE",
"959 265 LINE SMOOTH",
"889 181 OFFCURVE",
"770 132 OFFCURVE",
"644 132 CURVE SMOOTH",
"420 132 OFFCURVE",
"306 281 OFFCURVE",
"306 567 CURVE SMOOTH",
"306 844 OFFCURVE",
"415 1002 OFFCURVE",
"608 1002 CURVE SMOOTH",
"747 1002 OFFCURVE",
"819 922 OFFCURVE",
"819 762 CURVE SMOOTH",
"819 731 OFFCURVE",
"816 698 OFFCURVE",
"812 683 CURVE",
"252 663 LINE",
"252 605 LINE",
"1027 605 LINE",
"1041 617 LINE",
"1035 913 OFFCURVE",
"892 1069 OFFCURVE",
"628 1069 CURVE SMOOTH",
"307 1069 OFFCURVE",
"90 841 OFFCURVE",
"90 508 CURVE SMOOTH",
"90 193 OFFCURVE",
"284 -21 OFFCURVE",
"575 -21 CURVE SMOOTH"
);
}
);
width = 1120;
}
);
leftKerningGroup = e;
rightKerningGroup = e;
unicode = 0065;
},
{
glyphname = schwa;
layers = (
{
layerId = "FA6D65B5-4623-4FAC-A199-3F662257AC29";
paths = (
{
closed = 1;
nodes = (
"274 1069 OFFCURVE",
"130 957 OFFCURVE",
"73 765 CURVE",
"117 717 LINE",
"180 812 OFFCURVE",
"274 864 OFFCURVE",
"386 864 CURVE SMOOTH",
"552 864 OFFCURVE",
"634 734 OFFCURVE",
"634 464 CURVE SMOOTH",
"634 219 OFFCURVE",
"566 79 OFFCURVE",
"443 79 CURVE SMOOTH",
"351 79 OFFCURVE",
"302 153 OFFCURVE",
"302 290 CURVE SMOOTH",
"302 324 OFFCURVE",
"305 352 OFFCURVE",
"309 365 CURVE",
"750 385 LINE",
"750 474 LINE",
"58 474 LINE",
"46 462 LINE",
"54 145 OFFCURVE",
"182 -21 OFFCURVE",
"423 -21 CURVE SMOOTH",
"705 -21 OFFCURVE",
"898 207 OFFCURVE",
"898 540 CURVE SMOOTH",
"898 854 OFFCURVE",
"725 1069 OFFCURVE",
"462 1069 CURVE SMOOTH"
);
}
);
width = 954;
},
{
associatedMasterId = "FA6D65B5-4623-4FAC-A199-3F662257AC29";
layerId = "CBD44848-52BD-4DC5-BFA6-577546B7224D";
paths = (
{
closed = 1;
nodes = (
"801 -21 OFFCURVE",
"1016 208 OFFCURVE",
"1016 540 CURVE SMOOTH",
"1016 854 OFFCURVE",
"823 1069 OFFCURVE",
"540 1069 CURVE SMOOTH",
"347 1069 OFFCURVE",
"184 970 OFFCURVE",
"115 810 CURVE SMOOTH",
"104 782 LINE",
"136 762 LINE",
"161 792 LINE SMOOTH",
"229 875 OFFCURVE",
"347 925 OFFCURVE",
"474 925 CURVE SMOOTH",
"700 925 OFFCURVE",
"818 774 OFFCURVE",
"818 485 CURVE SMOOTH",
"818 203 OFFCURVE",
"705 41 OFFCURVE",
"504 41 CURVE SMOOTH",
"362 41 OFFCURVE",
"289 122 OFFCURVE",
"289 284 CURVE SMOOTH",
"289 317 OFFCURVE",
"291 351 OFFCURVE",
"295 366 CURVE",
"857 386 LINE",
"857 440 LINE",
"94 440 LINE",
"81 427 LINE",
"86 135 OFFCURVE",
"227 -21 OFFCURVE",
"487 -21 CURVE SMOOTH"
);
}
);
width = 1109;
},
{
layerId = "7C8D72FA-6E62-4564-8BB2-D9F9BC4EB15A";
paths = (
{
closed = 1;
nodes = (
"267 1069 OFFCURVE",
"138 963 OFFCURVE",
"81 778 CURVE",
"110 755 LINE",
"171 860 OFFCURVE",
"266 915 OFFCURVE",
"381 915 CURVE SMOOTH",
"559 915 OFFCURVE",
"650 767 OFFCURVE",
"650 481 CURVE SMOOTH",
"650 204 OFFCURVE",
"564 46 OFFCURVE",
"409 46 CURVE SMOOTH",
"298 46 OFFCURVE",
"241 126 OFFCURVE",
"241 286 CURVE SMOOTH",
"241 317 OFFCURVE",
"242 350 OFFCURVE",
"246 365 CURVE",
"694 385 LINE",
"694 443 LINE",
"74 443 LINE",
"62 431 LINE",
"67 135 OFFCURVE",
"182 -21 OFFCURVE",
"394 -21 CURVE SMOOTH",
"650 -21 OFFCURVE",
"823 207 OFFCURVE",
"823 540 CURVE SMOOTH",
"823 854 OFFCURVE",
"668 1069 OFFCURVE",
"436 1069 CURVE SMOOTH"
);
}
);
width = 896;
}
);
rightKerningGroup = o;
unicode = 0259;
},
{
glyphname = f;
layers = (
{
layerId = "FA6D65B5-4623-4FAC-A199-3F662257AC29";
paths = (
{
closed = 1;
nodes = (
"633 0 LINE",
"633 70 LINE",
"438 109 LINE",
"438 1158 LINE SMOOTH",
"438 1292 OFFCURVE",
"440 1390 OFFCURVE",
"457 1451 CURVE SMOOTH",
"474 1513 OFFCURVE",
"516 1542 OFFCURVE",
"562 1542 CURVE SMOOTH",
"610 1542 OFFCURVE",
"633 1513 OFFCURVE",
"649 1439 CURVE SMOOTH",
"665 1362 OFFCURVE",
"705 1318 OFFCURVE",
"759 1318 CURVE SMOOTH",
"825 1318 OFFCURVE",
"870 1371 OFFCURVE",
"870 1449 CURVE SMOOTH",
"870 1565 OFFCURVE",
"758 1643 OFFCURVE",
"592 1643 CURVE SMOOTH",
"418 1643 OFFCURVE",
"270 1544 OFFCURVE",
"220 1391 CURVE SMOOTH",
"197 1328 OFFCURVE",
"193 1259 OFFCURVE",
"193 1021 CURVE SMOOTH",
"193 109 LINE",
"59 70 LINE",
"59 0 LINE"
);
},
{
closed = 1;
nodes = (
"630 956 LINE",
"652 1049 LINE",
"54 1049 LINE",
"31 956 LINE"
);
}
);
width = 669;
},
{
associatedMasterId = "FA6D65B5-4623-4FAC-A199-3F662257AC29";
layerId = "CBD44848-52BD-4DC5-BFA6-577546B7224D";
paths = (
{
closed = 1;
nodes = (
"617 0 LINE",
"617 37 LINE",
"408 68 LINE",
"408 1158 LINE SMOOTH",
"408 1328 OFFCURVE",
"421 1424 OFFCURVE",
"450 1484 CURVE SMOOTH",
"481 1555 OFFCURVE",
"537 1581 OFFCURVE",
"596 1581 CURVE SMOOTH",
"659 1581 OFFCURVE",
"681 1550 OFFCURVE",
"696 1479 CURVE SMOOTH",
"705 1429 OFFCURVE",
"727 1377 OFFCURVE",
"792 1377 CURVE SMOOTH",
"849 1377 OFFCURVE",
"888 1416 OFFCURVE",
"888 1474 CURVE SMOOTH",
"888 1571 OFFCURVE",
"776 1643 OFFCURVE",
"633 1643 CURVE SMOOTH",
"466 1643 OFFCURVE",
"303 1546 OFFCURVE",
"250 1399 CURVE SMOOTH",
"223 1328 OFFCURVE",
"219 1232 OFFCURVE",
"219 1021 CURVE SMOOTH",
"219 68 LINE",
"71 37 LINE",
"71 0 LINE"
);
},
{
closed = 1;
nodes = (
"639 985 LINE",
"663 1049 LINE",
"70 1049 LINE",
"45 985 LINE"
);
}
);
width = 696;
},
{
layerId = "7C8D72FA-6E62-4564-8BB2-D9F9BC4EB15A";
paths = (
{
closed = 1;
nodes = (
"511 0 LINE",
"511 41 LINE",
"340 73 LINE",
"340 1158 LINE SMOOTH",
"340 1323 OFFCURVE",
"350 1420 OFFCURVE",
"371 1480 CURVE SMOOTH",
"396 1549 OFFCURVE",
"439 1575 OFFCURVE",
"487 1575 CURVE SMOOTH",
"537 1575 OFFCURVE",
"554 1545 OFFCURVE",
"567 1474 CURVE SMOOTH",
"577 1420 OFFCURVE",
"596 1369 OFFCURVE",
"649 1369 CURVE SMOOTH",
"698 1369 OFFCURVE",
"730 1411 OFFCURVE",
"730 1470 CURVE SMOOTH",
"730 1571 OFFCURVE",
"638 1643 OFFCURVE",
"517 1643 CURVE SMOOTH",
"378 1643 OFFCURVE",
"244 1546 OFFCURVE",
"201 1398 CURVE SMOOTH",
"181 1328 OFFCURVE",
"177 1236 OFFCURVE",
"177 1021 CURVE SMOOTH",
"177 73 LINE",
"55 41 LINE",
"55 0 LINE"
);
},
{
closed = 1;
nodes = (
"526 981 LINE",
"546 1049 LINE",
"54 1049 LINE",
"34 981 LINE"
);
}
);
width = 571;
}
);
leftKerningGroup = f;
rightKerningGroup = f;
unicode = 0066;
},
{
glyphname = g;
layers = (
{
anchors = (
{
name = top;
position = "{458, 1289}";
}
);
layerId = "FA6D65B5-4623-4FAC-A199-3F662257AC29";
paths = (
{
closed = 1;
nodes = (
"698 951 LINE",
"706 1005 OFFCURVE",
"718 1054 OFFCURVE",
"758 1054 CURVE SMOOTH",
"798 1054 OFFCURVE",
"807 1002 OFFCURVE",
"861 1002 CURVE SMOOTH",
"918 1002 OFFCURVE",
"949 1059 OFFCURVE",
"949 1117 CURVE SMOOTH",
"949 1189 OFFCURVE",
"900 1234 OFFCURVE",
"835 1234 CURVE SMOOTH",
"730 1234 OFFCURVE",
"674 1105 OFFCURVE",
"642 995 CURVE"
);
},
{
closed = 1;
nodes = (
"357 416 OFFCURVE",
"337 577 OFFCURVE",
"337 684 CURVE SMOOTH",
"337 797 OFFCURVE",
"360 983 OFFCURVE",
"452 983 CURVE SMOOTH",
"542 983 OFFCURVE",
"558 814 OFFCURVE",
"558 708 CURVE SMOOTH",
"558 580 OFFCURVE",
"534 416 OFFCURVE",
"445 416 CURVE SMOOTH"
);
},
{
closed = 1;
nodes = (
"337 373 LINE",
"172 350 OFFCURVE",
"90 259 OFFCURVE",
"90 147 CURVE SMOOTH",
"90 38 OFFCURVE",
"158 -38 OFFCURVE",
"348 -83 CURVE SMOOTH",
"479 -114 LINE SMOOTH",
"655 -154 OFFCURVE",
"703 -199 OFFCURVE",
"703 -268 CURVE SMOOTH",
"703 -378 OFFCURVE",
"546 -423 OFFCURVE",
"423 -423 CURVE SMOOTH",
"305 -423 OFFCURVE",
"193 -367 OFFCURVE",
"193 -238 CURVE SMOOTH",
"193 -162 OFFCURVE",
"225 -85 OFFCURVE",
"280 -40 CURVE",
"213 -6 LINE",
"56 -82 OFFCURVE",
"-5 -164 OFFCURVE",
"-5 -267 CURVE SMOOTH",
"-5 -455 OFFCURVE",
"193 -524 OFFCURVE",
"378 -524 CURVE SMOOTH",
"622 -524 OFFCURVE",
"883 -434 OFFCURVE",
"883 -162 CURVE SMOOTH",
"883 -9 OFFCURVE",
"794 82 OFFCURVE",
"604 122 CURVE SMOOTH",
"489 147 LINE SMOOTH",
"332 181 OFFCURVE",
"288 203 OFFCURVE",
"288 252 CURVE SMOOTH",
"288 294 OFFCURVE",
"322 327 OFFCURVE",
"444 327 CURVE"
);
},
{
closed = 1;
nodes = (
"256 327 OFFCURVE",
"444 327 CURVE SMOOTH",
"663 327 OFFCURVE",
"809 519 OFFCURVE",
"809 704 CURVE SMOOTH",
"809 922 OFFCURVE",
"638 1069 OFFCURVE",
"443 1069 CURVE SMOOTH",
"239 1069 OFFCURVE",
"86 912 OFFCURVE",
"86 700 CURVE SMOOTH",
"86 466 OFFCURVE"
);
}
);
width = 926;
},
{
anchors = (
{
name = top;
position = "{512, 1289}";
}
);
associatedMasterId = "FA6D65B5-4623-4FAC-A199-3F662257AC29";
layerId = "CBD44848-52BD-4DC5-BFA6-577546B7224D";
paths = (
{
closed = 1;
nodes = (
"576 -515 OFFCURVE",
"747 -477 OFFCURVE",
"859 -388 CURVE SMOOTH",
"925 -334 OFFCURVE",
"968 -264 OFFCURVE",
"968 -162 CURVE SMOOTH",
"968 -73 OFFCURVE",
"935 41 OFFCURVE",
"716 91 CURVE SMOOTH",
"580 122 OFFCURVE",
"291 146 OFFCURVE",
"291 256 CURVE SMOOTH",
"291 322 OFFCURVE",
"404 372 OFFCURVE",
"504 380 CURVE SMOOTH",
"738 398 OFFCURVE",
"898 556 OFFCURVE",
"898 730 CURVE SMOOTH",
"898 823 OFFCURVE",
"853 914 OFFCURVE",
"776 978 CURVE",
"790 1032 OFFCURVE",
"820 1079 OFFCURVE",
"851 1079 CURVE SMOOTH",
"900 1079 OFFCURVE",
"895 1027 OFFCURVE",
"952 1027 CURVE SMOOTH",
"1003 1027 OFFCURVE",
"1044 1067 OFFCURVE",
"1044 1120 CURVE SMOOTH",
"1044 1181 OFFCURVE",
"989 1219 OFFCURVE",
"930 1219 CURVE SMOOTH",
"828 1219 OFFCURVE",
"766 1101 OFFCURVE",
"735 1005 CURVE",
"671 1044 OFFCURVE",
"592 1069 OFFCURVE",
"503 1069 CURVE SMOOTH",
"284 1069 OFFCURVE",
"120 927 OFFCURVE",
"120 730 CURVE SMOOTH",
"120 565 OFFCURVE",
"234 448 OFFCURVE",
"386 406 CURVE",
"168 336 OFFCURVE",
"124 234 OFFCURVE",
"124 169 CURVE SMOOTH",
"124 105 OFFCURVE",
"169 47 OFFCURVE",
"260 8 CURVE",
"78 -70 OFFCURVE",
"14 -151 OFFCURVE",
"14 -256 CURVE SMOOTH",
"14 -342 OFFCURVE",
"60 -404 OFFCURVE",
"128 -446 CURVE SMOOTH",
"216 -497 OFFCURVE",
"341 -515 OFFCURVE",
"435 -515 CURVE SMOOTH"
);
},
{
closed = 1;
nodes = (
"390 -451 OFFCURVE",
"318 -433 OFFCURVE",
"265 -398 CURVE SMOOTH",
"208 -360 OFFCURVE",
"174 -303 OFFCURVE",
"174 -231 CURVE SMOOTH",
"174 -140 OFFCURVE",
"231 -54 OFFCURVE",
"325 -13 CURVE",
"378 -28 OFFCURVE",
"448 -44 OFFCURVE",
"516 -58 CURVE SMOOTH",
"747 -104 OFFCURVE",
"815 -144 OFFCURVE",
"815 -237 CURVE SMOOTH",
"815 -314 OFFCURVE",
"770 -370 OFFCURVE",
"700 -404 CURVE SMOOTH",
"638 -435 OFFCURVE",
"552 -451 OFFCURVE",
"473 -451 CURVE SMOOTH"
);
},
{
closed = 1;
nodes = (
"355 443 OFFCURVE",
"322 607 OFFCURVE",
"322 714 CURVE SMOOTH",
"322 826 OFFCURVE",
"357 1013 OFFCURVE",
"515 1013 CURVE SMOOTH",
"667 1013 OFFCURVE",
"697 841 OFFCURVE",
"697 735 CURVE SMOOTH",
"697 606 OFFCURVE",
"655 443 OFFCURVE",
"504 443 CURVE SMOOTH"
);
}
);
width = 1018;
},
{
anchors = (
{
name = top;
position = "{428, 1289}";
}
);
layerId = "7C8D72FA-6E62-4564-8BB2-D9F9BC4EB15A";
paths = (
{
closed = 1;
nodes = (
"629 960 LINE",
"638 1018 OFFCURVE",
"664 1073 OFFCURVE",
"693 1073 CURVE SMOOTH",
"732 1073 OFFCURVE",
"730 1021 OFFCURVE",
"777 1021 CURVE SMOOTH",
"819 1021 OFFCURVE",
"852 1064 OFFCURVE",
"852 1118 CURVE SMOOTH",
"852 1180 OFFCURVE",
"808 1219 OFFCURVE",
"758 1219 CURVE SMOOTH",
"667 1219 OFFCURVE",
"614 1092 OFFCURVE",
"587 995 CURVE"
);
},
{
closed = 1;
nodes = (
"294 401 OFFCURVE",
"269 577 OFFCURVE",
"269 691 CURVE SMOOTH",
"269 811 OFFCURVE",
"296 1006 OFFCURVE",
"424 1006 CURVE SMOOTH",
"546 1006 OFFCURVE",
"571 826 OFFCURVE",
"571 712 CURVE SMOOTH",
"571 575 OFFCURVE",
"537 401 OFFCURVE",
"415 401 CURVE SMOOTH"
);
},
{
closed = 1;
nodes = (
"329 371 LINE",
"135 336 OFFCURVE",
"98 240 OFFCURVE",
"98 173 CURVE SMOOTH",
"98 74 OFFCURVE",
"168 1 OFFCURVE",
"308 -32 CURVE SMOOTH",
"440 -63 LINE SMOOTH",
"653 -113 OFFCURVE",
"694 -165 OFFCURVE",
"694 -238 CURVE SMOOTH",
"694 -383 OFFCURVE",
"539 -446 OFFCURVE",
"385 -446 CURVE SMOOTH",
"256 -446 OFFCURVE",
"146 -377 OFFCURVE",
"146 -231 CURVE SMOOTH",
"146 -137 OFFCURVE",
"194 -47 OFFCURVE",
"275 -8 CURVE",
"226 17 LINE",
"67 -63 OFFCURVE",
"10 -147 OFFCURVE",
"10 -256 CURVE SMOOTH",
"10 -442 OFFCURVE",
"184 -515 OFFCURVE",
"352 -515 CURVE SMOOTH",
"582 -515 OFFCURVE",
"825 -405 OFFCURVE",
"825 -161 CURVE SMOOTH",
"825 -15 OFFCURVE",
"739 69 OFFCURVE",
"554 105 CURVE SMOOTH",
"439 130 LINE SMOOTH",
"283 159 OFFCURVE",
"242 187 OFFCURVE",
"242 235 CURVE SMOOTH",
"242 303 OFFCURVE",
"303 335 OFFCURVE",
"416 335 CURVE"
);
},
{
closed = 1;
nodes = (
"229 335 OFFCURVE",
"416 335 CURVE SMOOTH",
"613 335 OFFCURVE",
"743 509 OFFCURVE",
"743 707 CURVE SMOOTH",
"743 917 OFFCURVE",
"600 1069 OFFCURVE",
"418 1069 CURVE SMOOTH",
"234 1069 OFFCURVE",
"97 913 OFFCURVE",
"97 701 CURVE SMOOTH",
"97 481 OFFCURVE"
);
}
);
width = 844;
},
{
anchors = (
{
name = top;
position = "{572, 1289}";
}
);
associatedMasterId = "FA6D65B5-4623-4FAC-A199-3F662257AC29";
layerId = "48B225CD-3B3F-445F-9150-FF09420DC2A9";
name = "Jan 7 19, 14:51";
paths = (
{
closed = 1;
nodes = (
"638 -512 OFFCURVE",
"839 -479 OFFCURVE",
"966 -390 CURVE SMOOTH",
"1047 -333 OFFCURVE",
"1090 -260 OFFCURVE",
"1090 -153 CURVE SMOOTH",
"1090 -54 OFFCURVE",
"1052 73 OFFCURVE",
"792 132 CURVE SMOOTH",
"631 168 OFFCURVE",
"344 190 OFFCURVE",
"344 281 CURVE SMOOTH",
"344 325 OFFCURVE",
"409 370 OFFCURVE",
"564 386 CURVE SMOOTH",
"834 413 OFFCURVE",
"1011 562 OFFCURVE",
"1011 732 CURVE SMOOTH",
"1011 821 OFFCURVE",
"962 909 OFFCURVE",
"877 970 CURVE",
"892 1008 OFFCURVE",
"920 1039 OFFCURVE",
"962 1039 CURVE SMOOTH",
"1013 1039 OFFCURVE",
"1024 987 OFFCURVE",
"1090 987 CURVE SMOOTH",
"1162 987 OFFCURVE",
"1201 1044 OFFCURVE",
"1201 1102 CURVE SMOOTH",
"1201 1175 OFFCURVE",
"1140 1219 OFFCURVE",
"1059 1219 CURVE SMOOTH",
"935 1219 OFFCURVE",
"854 1110 OFFCURVE",
"810 1011 CURVE",
"738 1047 OFFCURVE",
"651 1069 OFFCURVE",
"554 1069 CURVE SMOOTH",
"299 1069 OFFCURVE",
"107 925 OFFCURVE",
"107 729 CURVE SMOOTH",
"107 564 OFFCURVE",
"243 446 OFFCURVE",
"417 406 CURVE",
"190 328 OFFCURVE",
"113 276 OFFCURVE",
"113 167 CURVE SMOOTH",
"113 77 OFFCURVE",
"165 29 OFFCURVE",
"240 -5 CURVE",
"63 -78 OFFCURVE",
"-6 -157 OFFCURVE",
"-6 -256 CURVE SMOOTH",
"-6 -349 OFFCURVE",
"54 -406 OFFCURVE",
"124 -443 CURVE SMOOTH",
"234 -501 OFFCURVE",
"374 -512 OFFCURVE",
"473 -512 CURVE SMOOTH"
);
},
{
closed = 1;
nodes = (
"448 -411 OFFCURVE",
"375 -396 OFFCURVE",
"322 -367 CURVE SMOOTH",
"261 -336 OFFCURVE",
"229 -292 OFFCURVE",
"229 -227 CURVE SMOOTH",
"229 -157 OFFCURVE",
"267 -85 OFFCURVE",
"333 -39 CURVE",
"421 -62 OFFCURVE",
"501 -78 OFFCURVE",
"599 -101 CURVE SMOOTH",
"808 -150 OFFCURVE",
"865 -181 OFFCURVE",
"865 -250 CURVE SMOOTH",
"865 -307 OFFCURVE",
"820 -344 OFFCURVE",
"760 -370 CURVE SMOOTH",
"689 -401 OFFCURVE",
"599 -411 OFFCURVE",
"529 -411 CURVE SMOOTH"
);
},
{
closed = 1;
nodes = (
"446 473 OFFCURVE",
"421 617 OFFCURVE",
"421 713 CURVE SMOOTH",
"421 815 OFFCURVE",
"450 983 OFFCURVE",
"565 983 CURVE SMOOTH",
"677 983 OFFCURVE",
"698 831 OFFCURVE",
"698 737 CURVE SMOOTH",
"698 622 OFFCURVE",
"667 473 OFFCURVE",
"556 473 CURVE SMOOTH"
);
}
);
width = 1156;
},
{
anchors = (
{
name = top;
position = "{520, 1289}";
}
);
associatedMasterId = "7C8D72FA-6E62-4564-8BB2-D9F9BC4EB15A";
layerId = "4FB85BBB-52BD-4086-BC03-117EC6318AF1";
name = "Jan 7 19, 14:53";
paths = (
{
closed = 1;
nodes = (
"584 -515 OFFCURVE",
"760 -477 OFFCURVE",
"873 -388 CURVE SMOOTH",
"941 -334 OFFCURVE",
"985 -263 OFFCURVE",
"985 -161 CURVE SMOOTH",
"985 -70 OFFCURVE",
"950 46 OFFCURVE",
"727 97 CURVE SMOOTH",
"587 129 OFFCURVE",
"298 152 OFFCURVE",
"298 259 CURVE SMOOTH",
"298 324 OFFCURVE",
"404 372 OFFCURVE",
"512 381 CURVE SMOOTH",
"751 401 OFFCURVE",
"913 557 OFFCURVE",
"913 730 CURVE SMOOTH",
"913 823 OFFCURVE",
"868 913 OFFCURVE",
"790 976 CURVE",
"804 1028 OFFCURVE",
"834 1073 OFFCURVE",
"866 1073 CURVE SMOOTH",
"915 1073 OFFCURVE",
"912 1021 OFFCURVE",
"971 1021 CURVE SMOOTH",
"1024 1021 OFFCURVE",
"1065 1064 OFFCURVE",
"1065 1118 CURVE SMOOTH",
"1065 1180 OFFCURVE",
"1010 1219 OFFCURVE",
"948 1219 CURVE SMOOTH",
"842 1219 OFFCURVE",
"777 1102 OFFCURVE",
"744 1006 CURVE",
"681 1044 OFFCURVE",
"600 1069 OFFCURVE",
"510 1069 CURVE SMOOTH",
"287 1069 OFFCURVE",
"117 926 OFFCURVE",
"117 730 CURVE SMOOTH",
"117 565 OFFCURVE",
"235 447 OFFCURVE",
"390 406 CURVE",
"172 335 OFFCURVE",
"123 240 OFFCURVE",
"123 169 CURVE SMOOTH",
"123 101 OFFCURVE",
"169 45 OFFCURVE",
"257 6 CURVE",
"77 -71 OFFCURVE",
"12 -152 OFFCURVE",
"12 -256 CURVE SMOOTH",
"12 -343 OFFCURVE",
"59 -404 OFFCURVE",
"128 -444 CURVE SMOOTH",
"219 -497 OFFCURVE",
"345 -515 OFFCURVE",
"440 -515 CURVE SMOOTH"
);
},
{
closed = 1;
nodes = (
"398 -446 OFFCURVE",
"326 -428 OFFCURVE",
"273 -394 CURVE SMOOTH",
"215 -357 OFFCURVE",
"182 -302 OFFCURVE",
"182 -231 CURVE SMOOTH",
"182 -143 OFFCURVE",
"236 -59 OFFCURVE",
"326 -16 CURVE",
"383 -32 OFFCURVE",
"455 -48 OFFCURVE",
"527 -63 CURVE SMOOTH",
"752 -108 OFFCURVE",
"822 -147 OFFCURVE",
"822 -238 CURVE SMOOTH",
"822 -314 OFFCURVE",
"777 -366 OFFCURVE",
"708 -400 CURVE SMOOTH",
"645 -431 OFFCURVE",
"558 -446 OFFCURVE",
"481 -446 CURVE SMOOTH"
);
},
{
closed = 1;
nodes = (
"366 447 OFFCURVE",
"336 609 OFFCURVE",
"336 714 CURVE SMOOTH",
"336 824 OFFCURVE",
"368 1009 OFFCURVE",
"522 1009 CURVE SMOOTH",
"668 1009 OFFCURVE",
"698 839 OFFCURVE",
"698 735 CURVE SMOOTH",
"698 608 OFFCURVE",
"658 447 OFFCURVE",
"511 447 CURVE SMOOTH"
);
}
);
width = 1036;
},
{
anchors = (
{
name = top;
position = "{520, 1289}";
}
);
associatedMasterId = "7C8D72FA-6E62-4564-8BB2-D9F9BC4EB15A";
layerId = "4A4054F2-95DB-4C05-9F11-6682A03215D6";
name = "Jan 23 19, 15:09";
paths = (
{
closed = 1;
nodes = (
"751 401 OFFCURVE",
"913 557 OFFCURVE",
"913 730 CURVE SMOOTH",
"913 823 OFFCURVE",
"868 913 OFFCURVE",
"790 976 CURVE",
"804 1028 OFFCURVE",
"834 1073 OFFCURVE",
"866 1073 CURVE SMOOTH",
"915 1073 OFFCURVE",
"912 1021 OFFCURVE",
"971 1021 CURVE SMOOTH",
"1024 1021 OFFCURVE",
"1065 1064 OFFCURVE",
"1065 1118 CURVE SMOOTH",
"1065 1180 OFFCURVE",
"1010 1219 OFFCURVE",
"948 1219 CURVE SMOOTH",
"842 1219 OFFCURVE",
"777 1102 OFFCURVE",
"744 1006 CURVE",
"681 1044 OFFCURVE",
"600 1069 OFFCURVE",
"510 1069 CURVE SMOOTH",
"287 1069 OFFCURVE",
"117 926 OFFCURVE",
"117 730 CURVE SMOOTH",
"117 565 OFFCURVE",
"235 447 OFFCURVE",
"390 406 CURVE",
"172 335 OFFCURVE",
"123 240 OFFCURVE",
"123 169 CURVE SMOOTH",
"123 71 OFFCURVE",
"210 6 OFFCURVE",
"385 -32 CURVE SMOOTH",
"550 -68 LINE SMOOTH",
"762 -114 OFFCURVE",
"822 -152 OFFCURVE",
"822 -238 CURVE SMOOTH",
"822 -314 OFFCURVE",
"777 -366 OFFCURVE",
"708 -400 CURVE SMOOTH",
"645 -431 OFFCURVE",
"558 -446 OFFCURVE",
"481 -446 CURVE SMOOTH",
"398 -446 OFFCURVE",
"326 -428 OFFCURVE",
"273 -394 CURVE SMOOTH",
"215 -357 OFFCURVE",
"182 -302 OFFCURVE",
"182 -231 CURVE SMOOTH",
"182 -137 OFFCURVE",
"243 -47 OFFCURVE",
"344 -8 CURVE",
"283 17 LINE",
"84 -63 OFFCURVE",
"12 -147 OFFCURVE",
"12 -256 CURVE SMOOTH",
"12 -343 OFFCURVE",
"59 -404 OFFCURVE",
"128 -444 CURVE SMOOTH",
"219 -497 OFFCURVE",
"345 -515 OFFCURVE",
"440 -515 CURVE SMOOTH",
"584 -515 OFFCURVE",
"760 -477 OFFCURVE",
"873 -388 CURVE SMOOTH",
"941 -334 OFFCURVE",
"985 -263 OFFCURVE",
"985 -161 CURVE SMOOTH",
"985 -18 OFFCURVE",
"887 70 OFFCURVE",
"692 105 CURVE SMOOTH",
"549 130 LINE SMOOTH",
"381 159 OFFCURVE",
"298 203 OFFCURVE",
"298 259 CURVE SMOOTH",
"298 324 OFFCURVE",
"404 372 OFFCURVE",
"512 381 CURVE SMOOTH"
);
},
{
closed = 1;
nodes = (
"366 447 OFFCURVE",
"336 609 OFFCURVE",
"336 714 CURVE SMOOTH",
"336 824 OFFCURVE",
"368 1009 OFFCURVE",
"522 1009 CURVE SMOOTH",
"668 1009 OFFCURVE",
"698 839 OFFCURVE",
"698 735 CURVE SMOOTH",
"698 608 OFFCURVE",
"658 447 OFFCURVE",
"511 447 CURVE SMOOTH"
);
}
);
width = 1036;
},
{
anchors = (
{
name = top;
position = "{572, 1289}";
}
);
associatedMasterId = "FA6D65B5-4623-4FAC-A199-3F662257AC29";
layerId = "41DEBBC2-FC61-463C-AA39-FF4B783FD7A6";
name = "Jan 23 19, 15:11";
paths = (
{
closed = 1;
nodes = (
"834 413 OFFCURVE",
"1011 562 OFFCURVE",
"1011 732 CURVE SMOOTH",
"1011 821 OFFCURVE",
"962 909 OFFCURVE",
"877 970 CURVE",
"892 1008 OFFCURVE",
"920 1039 OFFCURVE",
"962 1039 CURVE SMOOTH",
"1013 1039 OFFCURVE",
"1024 987 OFFCURVE",
"1090 987 CURVE SMOOTH",
"1162 987 OFFCURVE",
"1201 1044 OFFCURVE",
"1201 1102 CURVE SMOOTH",
"1201 1175 OFFCURVE",
"1140 1219 OFFCURVE",
"1059 1219 CURVE SMOOTH",
"935 1219 OFFCURVE",
"854 1110 OFFCURVE",
"810 1011 CURVE",
"738 1047 OFFCURVE",
"651 1069 OFFCURVE",
"554 1069 CURVE SMOOTH",
"299 1069 OFFCURVE",
"107 925 OFFCURVE",
"107 729 CURVE SMOOTH",
"107 564 OFFCURVE",
"243 446 OFFCURVE",
"417 406 CURVE",
"190 328 OFFCURVE",
"113 276 OFFCURVE",
"113 167 CURVE SMOOTH",
"113 47 OFFCURVE",
"196 -10 OFFCURVE",
"435 -64 CURVE SMOOTH",
"599 -101 LINE SMOOTH",
"808 -149 OFFCURVE",
"865 -181 OFFCURVE",
"865 -250 CURVE SMOOTH",
"865 -307 OFFCURVE",
"820 -344 OFFCURVE",
"760 -370 CURVE SMOOTH",
"689 -401 OFFCURVE",
"599 -411 OFFCURVE",
"529 -411 CURVE SMOOTH",
"448 -411 OFFCURVE",
"375 -396 OFFCURVE",
"322 -367 CURVE SMOOTH",
"261 -336 OFFCURVE",
"229 -292 OFFCURVE",
"229 -227 CURVE SMOOTH",
"229 -151 OFFCURVE",
"274 -74 OFFCURVE",
"350 -29 CURVE",
"266 6 LINE",
"70 -70 OFFCURVE",
"-6 -152 OFFCURVE",
"-6 -256 CURVE SMOOTH",
"-6 -349 OFFCURVE",
"54 -406 OFFCURVE",
"124 -443 CURVE SMOOTH",
"234 -501 OFFCURVE",
"374 -512 OFFCURVE",
"473 -512 CURVE SMOOTH",
"638 -512 OFFCURVE",
"839 -479 OFFCURVE",
"966 -390 CURVE SMOOTH",
"1047 -333 OFFCURVE",
"1090 -260 OFFCURVE",
"1090 -153 CURVE SMOOTH",
"1090 8 OFFCURVE",
"982 102 OFFCURVE",
"755 142 CURVE SMOOTH",
"611 166 LINE SMOOTH",
"425 198 OFFCURVE",
"344 233 OFFCURVE",
"344 281 CURVE SMOOTH",
"344 325 OFFCURVE",
"409 370 OFFCURVE",
"564 386 CURVE SMOOTH"
);
},
{
closed = 1;
nodes = (
"446 473 OFFCURVE",
"421 617 OFFCURVE",
"421 713 CURVE SMOOTH",
"421 815 OFFCURVE",
"450 983 OFFCURVE",
"565 983 CURVE SMOOTH",
"677 983 OFFCURVE",
"698 831 OFFCURVE",
"698 737 CURVE SMOOTH",
"698 622 OFFCURVE",
"667 473 OFFCURVE",
"556 473 CURVE SMOOTH"
);
}
);
width = 1156;
}
);
leftKerningGroup = g;
rightKerningGroup = g;
unicode = 0067;
},
{
glyphname = gcommaaccent;
layers = (
{
components = (
{
name = g;
}
);
layerId = "FA6D65B5-4623-4FAC-A199-3F662257AC29";
paths = (
{
closed = 1;
nodes = (
"529 1289 OFFCURVE",
"573 1333 OFFCURVE",
"573 1393 CURVE SMOOTH",
"573 1479 OFFCURVE",
"498 1480 OFFCURVE",
"498 1538 CURVE SMOOTH",
"498 1567 OFFCURVE",
"521 1614 OFFCURVE",
"553 1654 CURVE",
"517 1703 LINE",
"416 1647 OFFCURVE",
"360 1555 OFFCURVE",
"360 1443 CURVE SMOOTH",
"360 1348 OFFCURVE",
"401 1289 OFFCURVE",
"467 1289 CURVE SMOOTH"
);
}
);
width = 925;
},
{
associatedMasterId = "FA6D65B5-4623-4FAC-A199-3F662257AC29";
components = (
{
name = g;
}
);
layerId = "CBD44848-52BD-4DC5-BFA6-577546B7224D";
paths = (
{
closed = 1;
nodes = (
"592 1289 OFFCURVE",
"639 1331 OFFCURVE",
"639 1390 CURVE SMOOTH",
"639 1482 OFFCURVE",
"542 1466 OFFCURVE",
"542 1538 CURVE SMOOTH",
"542 1563 OFFCURVE",
"578 1607 OFFCURVE",
"628 1641 CURVE",
"596 1688 LINE",
"481 1620 OFFCURVE",
"421 1531 OFFCURVE",
"421 1419 CURVE SMOOTH",
"421 1348 OFFCURVE",
"465 1289 OFFCURVE",
"529 1289 CURVE SMOOTH"
);
}
);
width = 1018;
},
{
components = (
{
alignment = -1;
name = g;
}
);
layerId = "7C8D72FA-6E62-4564-8BB2-D9F9BC4EB15A";
paths = (
{
closed = 1;
nodes = (
"481 1289 OFFCURVE",
"519 1332 OFFCURVE",
"519 1390 CURVE SMOOTH",
"519 1482 OFFCURVE",
"442 1468 OFFCURVE",
"442 1538 CURVE SMOOTH",
"442 1564 OFFCURVE",
"470 1607 OFFCURVE",
"509 1642 CURVE",
"482 1690 LINE",
"390 1624 OFFCURVE",
"340 1535 OFFCURVE",
"340 1422 CURVE SMOOTH",
"340 1348 OFFCURVE",
"376 1289 OFFCURVE",
"428 1289 CURVE SMOOTH"
);
}
);
width = 829;
}
);
leftKerningGroup = g;
rightKerningGroup = g;
unicode = 0123;
},
{
glyphname = h;
layers = (
{
anchors = (
{
name = bottom;
position = "{540, 0}";
},
{
name = top;
position = "{715, 1289}";
}
);
layerId = "FA6D65B5-4623-4FAC-A199-3F662257AC29";
paths = (
{
closed = 1;
nodes = (
"505 0 LINE",
"505 70 LINE",
"394 109 LINE",
"394 1643 LINE",
"360 1643 LINE",
"29 1546 LINE",
"29 1500 LINE",
"148 1445 LINE",
"148 109 LINE",
"30 70 LINE",
"30 0 LINE"
);
},
{
closed = 1;
nodes = (
"1068 0 LINE",
"1068 70 LINE",
"949 109 LINE",
"949 721 LINE SMOOTH",
"949 951 OFFCURVE",
"862 1069 OFFCURVE",
"694 1069 CURVE SMOOTH",
"576 1069 OFFCURVE",
"457 1005 OFFCURVE",
"375 925 CURVE",
"375 800 LINE",
"425 856 OFFCURVE",
"482 890 OFFCURVE",
"546 890 CURVE SMOOTH",
"650 890 OFFCURVE",
"703 813 OFFCURVE",
"703 651 CURVE SMOOTH",
"703 109 LINE",
"592 70 LINE",
"592 0 LINE"
);
}
);
width = 1097;
},
{
anchors = (
{
name = bottom;
position = "{620, 0}";
},
{
name = top;
position = "{770, 1289}";
}
);
associatedMasterId = "FA6D65B5-4623-4FAC-A199-3F662257AC29";
layerId = "CBD44848-52BD-4DC5-BFA6-577546B7224D";
paths = (
{
closed = 1;
nodes = (
"532 0 LINE",
"532 39 LINE",
"383 70 LINE",
"383 1643 LINE",
"364 1643 LINE",
"50 1548 LINE",
"50 1520 LINE",
"196 1466 LINE",
"196 70 LINE",
"45 39 LINE",
"45 0 LINE"
);
},
{
closed = 1;
nodes = (
"1183 0 LINE",
"1183 39 LINE",
"1034 68 LINE",
"1034 669 LINE SMOOTH",
"1034 859 OFFCURVE",
"1032 909 OFFCURVE",
"1010 950 CURVE SMOOTH",
"972 1024 OFFCURVE",
"886 1069 OFFCURVE",
"780 1069 CURVE SMOOTH",
"641 1069 OFFCURVE",
"491 1003 OFFCURVE",
"366 888 CURVE",
"366 812 LINE",
"446 906 OFFCURVE",
"552 960 OFFCURVE",
"669 960 CURVE SMOOTH",
"747 960 OFFCURVE",
"797 930 OFFCURVE",
"823 869 CURVE SMOOTH",
"841 826 OFFCURVE",
"846 762 OFFCURVE",
"846 648 CURVE SMOOTH",
"846 68 LINE",
"698 39 LINE",
"698 0 LINE"
);
}
);
width = 1224;
},
{
anchors = (
{
name = bottom;
position = "{501, 0}";
},
{
name = top;
position = "{629, 1289}";
}
);
layerId = "7C8D72FA-6E62-4564-8BB2-D9F9BC4EB15A";
paths = (
{
closed = 1;
nodes = (
"436 0 LINE",
"436 44 LINE",
"318 75 LINE",
"318 1643 LINE",
"300 1643 LINE",
"38 1548 LINE",
"38 1518 LINE",
"156 1464 LINE",
"156 75 LINE",
"35 44 LINE",
"35 0 LINE"
);
},
{
closed = 1;
nodes = (
"968 0 LINE",
"968 44 LINE",
"850 73 LINE",
"850 800 LINE SMOOTH",
"850 978 OFFCURVE",
"773 1069 OFFCURVE",
"622 1069 CURVE SMOOTH",
"516 1069 OFFCURVE",
"402 1009 OFFCURVE",
"304 896 CURVE",
"304 815 LINE",
"369 900 OFFCURVE",
"443 951 OFFCURVE",
"524 951 CURVE SMOOTH",
"638 951 OFFCURVE",
"686 873 OFFCURVE",
"686 715 CURVE SMOOTH",
"686 73 LINE",
"570 44 LINE",
"570 0 LINE"
);
}
);
width = 1002;
},
{
anchors = (
{
name = bottom;
position = "{626, 0}";
},
{
name = top;
position = "{786, 1289}";
}
);
associatedMasterId = "7C8D72FA-6E62-4564-8BB2-D9F9BC4EB15A";
layerId = "3DAC64EF-D175-4395-A734-FD2B67F98822";
name = "Jan 23 19, 15:06";
paths = (
{
closed = 1;
nodes = (
"545 0 LINE",
"545 44 LINE",
"398 75 LINE",
"398 1643 LINE",
"375 1643 LINE",
"47 1548 LINE",
"47 1518 LINE",
"195 1464 LINE",
"195 75 LINE",
"44 44 LINE",
"44 0 LINE"
);
},
{
closed = 1;
nodes = (
"1200 0 LINE",
"1200 44 LINE",
"1051 73 LINE",
"1051 663 LINE SMOOTH",
"1051 853 OFFCURVE",
"1048 903 OFFCURVE",
"1026 945 CURVE SMOOTH",
"987 1023 OFFCURVE",
"898 1069 OFFCURVE",
"789 1069 CURVE SMOOTH",
"651 1069 OFFCURVE",
"500 1004 OFFCURVE",
"380 894 CURVE",
"380 811 LINE",
"456 902 OFFCURVE",
"556 952 OFFCURVE",
"668 952 CURVE SMOOTH",
"748 952 OFFCURVE",
"798 920 OFFCURVE",
"824 859 CURVE SMOOTH",
"843 815 OFFCURVE",
"849 753 OFFCURVE",
"849 636 CURVE SMOOTH",
"849 73 LINE",
"701 44 LINE",
"701 0 LINE"
);
}
);
width = 1241;
},
{
anchors = (
{
name = bottom;
position = "{675, 0}";
},
{
name = top;
position = "{894, 1289}";
}
);
associatedMasterId = "FA6D65B5-4623-4FAC-A199-3F662257AC29";
layerId = "156B9CF0-7DD2-4AEE-9FC9-CBEEC7B632A7";
name = "Jan 23 19, 15:06";
paths = (
{
closed = 1;
nodes = (
"631 0 LINE",
"631 70 LINE",
"493 109 LINE",
"493 1643 LINE",
"450 1643 LINE",
"36 1546 LINE",
"36 1500 LINE",
"185 1445 LINE",
"185 109 LINE",
"37 70 LINE",
"37 0 LINE"
);
},
{
closed = 1;
nodes = (
"1313 0 LINE",
"1313 70 LINE",
"1164 109 LINE",
"1164 630 LINE SMOOTH",
"1164 812 OFFCURVE",
"1158 861 OFFCURVE",
"1133 911 CURVE SMOOTH",
"1082 1016 OFFCURVE",
"985 1069 OFFCURVE",
"853 1069 CURVE SMOOTH",
"716 1069 OFFCURVE",
"560 1011 OFFCURVE",
"469 928 CURVE",
"469 804 LINE",
"523 869 OFFCURVE",
"582 898 OFFCURVE",
"661 898 CURVE SMOOTH",
"752 898 OFFCURVE",
"805 859 OFFCURVE",
"837 790 CURVE SMOOTH",
"854 750 OFFCURVE",
"857 693 OFFCURVE",
"857 552 CURVE SMOOTH",
"857 109 LINE",
"719 70 LINE",
"719 0 LINE"
);
}
);
visible = 1;
width = 1348;
}
);
leftKerningGroup = h;
rightKerningGroup = n;
unicode = 0068;
},
{
glyphname = hbar;
layers = (
{
components = (
{
name = h;
}
);
layerId = "FA6D65B5-4623-4FAC-A199-3F662257AC29";
paths = (
{
closed = 1;
nodes = (
"604 1185 LINE",
"604 1354 LINE",
"56 1354 LINE",
"56 1185 LINE"
);
}
);
width = 1078;
},
{
associatedMasterId = "FA6D65B5-4623-4FAC-A199-3F662257AC29";
components = (
{
name = h;
}
);
layerId = "CBD44848-52BD-4DC5-BFA6-577546B7224D";
paths = (
{
closed = 1;
nodes = (
"656 1206 LINE",
"656 1333 LINE",
"50 1333 LINE",
"50 1206 LINE"
);
}
);
width = 1224;
},
{
components = (
{
alignment = -1;
name = h;
}
);
layerId = "7C8D72FA-6E62-4564-8BB2-D9F9BC4EB15A";
paths = (
{
closed = 1;
nodes = (
"536 1203 LINE",
"536 1337 LINE",
"42 1337 LINE",
"42 1203 LINE"
);
}
);
width = 993;
}
);
leftKerningGroup = h;
rightKerningGroup = n;
unicode = 0127;
},
{
glyphname = i;
layers = (
{
anchors = (
{
name = bottom;
position = "{299, 0}";
},
{
name = ogonek;
position = "{545, 0}";
}
);
layerId = "FA6D65B5-4623-4FAC-A199-3F662257AC29";
paths = (
{
closed = 1;
nodes = (
"545 0 LINE",
"545 70 LINE",
"418 109 LINE",
"418 1069 LINE",
"385 1069 LINE",
"38 974 LINE",
"38 927 LINE",
"173 873 LINE",
"173 109 LINE",
"38 70 LINE",
"38 0 LINE"
);
},
{
closed = 1;
nodes = (
"386 1217 OFFCURVE",
"434 1299 OFFCURVE",
"434 1379 CURVE SMOOTH",
"434 1466 OFFCURVE",
"379 1544 OFFCURVE",
"293 1544 CURVE SMOOTH",
"208 1544 OFFCURVE",
"157 1466 OFFCURVE",
"157 1379 CURVE SMOOTH",
"157 1299 OFFCURVE",
"205 1217 OFFCURVE",
"293 1217 CURVE SMOOTH"
);
}
);
width = 570;
},
{
anchors = (
{
name = bottom;
position = "{305, 0}";
}
);
associatedMasterId = "FA6D65B5-4623-4FAC-A199-3F662257AC29";
layerId = "CBD44848-52BD-4DC5-BFA6-577546B7224D";
paths = (
{
closed = 1;
nodes = (
"549 0 LINE",
"549 39 LINE",
"401 70 LINE",
"401 1069 LINE",
"382 1069 LINE",
"66 974 LINE",
"66 945 LINE",
"212 892 LINE",
"212 70 LINE",
"62 39 LINE",
"62 0 LINE"
);
},
{
closed = 1;
nodes = (
"383 1289 OFFCURVE",
"433 1346 OFFCURVE",
"433 1415 CURVE SMOOTH",
"433 1489 OFFCURVE",
"383 1544 OFFCURVE",
"305 1544 CURVE SMOOTH",
"227 1544 OFFCURVE",
"177 1489 OFFCURVE",
"177 1415 CURVE SMOOTH",
"177 1346 OFFCURVE",
"227 1289 OFFCURVE",
"305 1289 CURVE SMOOTH"
);
}
);
width = 594;
},
{
anchors = (
{
name = bottom;
position = "{251, 0}";
},
{
name = ogonek;
position = "{454, 0}";
}
);
layerId = "7C8D72FA-6E62-4564-8BB2-D9F9BC4EB15A";
paths = (
{
closed = 1;
nodes = (
"454 0 LINE",
"454 44 LINE",
"334 75 LINE",
"334 1069 LINE",
"316 1069 LINE",
"50 974 LINE",
"50 943 LINE",
"170 890 LINE",
"170 75 LINE",
"48 44 LINE",
"48 0 LINE"
);
},
{
closed = 1;
nodes = (
"317 1279 OFFCURVE",
"358 1339 OFFCURVE",
"358 1409 CURVE SMOOTH",
"358 1485 OFFCURVE",
"317 1544 OFFCURVE",
"250 1544 CURVE SMOOTH",
"185 1544 OFFCURVE",
"144 1485 OFFCURVE",
"144 1409 CURVE SMOOTH",
"144 1339 OFFCURVE",
"185 1279 OFFCURVE",
"250 1279 CURVE SMOOTH"
);
}
);
width = 487;
}
);
leftKerningGroup = i;
rightKerningGroup = i;
unicode = 0069;
},
{
glyphname = dotlessi;
layers = (
{
anchors = (
{
name = top;
position = "{285, 1289}";
}
);
layerId = "FA6D65B5-4623-4FAC-A199-3F662257AC29";
paths = (
{
closed = 1;
nodes = (
"545 0 LINE",
"545 70 LINE",
"418 109 LINE",
"418 1069 LINE",
"385 1069 LINE",
"38 974 LINE",
"38 927 LINE",
"173 873 LINE",
"173 109 LINE",
"38 70 LINE",
"38 0 LINE"
);
}
);
width = 570;
},
{
anchors = (
{
name = top;
position = "{305, 1289}";
}
);
associatedMasterId = "FA6D65B5-4623-4FAC-A199-3F662257AC29";
layerId = "CBD44848-52BD-4DC5-BFA6-577546B7224D";
paths = (
{
closed = 1;
nodes = (
"549 0 LINE",
"549 39 LINE",
"401 70 LINE",
"401 1069 LINE",
"382 1069 LINE",
"66 974 LINE",
"66 945 LINE",
"212 892 LINE",
"212 70 LINE",
"62 39 LINE",
"62 0 LINE"
);
}
);
width = 594;
},
{
anchors = (
{
name = top;
position = "{250, 1289}";
}
);
layerId = "7C8D72FA-6E62-4564-8BB2-D9F9BC4EB15A";
paths = (
{
closed = 1;
nodes = (
"454 0 LINE",
"454 44 LINE",
"334 75 LINE",
"334 1069 LINE",
"316 1069 LINE",
"50 974 LINE",
"50 943 LINE",
"170 890 LINE",
"170 75 LINE",
"48 44 LINE",
"48 0 LINE"
);
}
);
width = 487;
}
);
leftKerningGroup = i;
rightKerningGroup = i;
unicode = 0131;
},
{
glyphname = j;
layers = (
{
layerId = "FA6D65B5-4623-4FAC-A199-3F662257AC29";
paths = (
{
closed = 1;
nodes = (
"157 -515 OFFCURVE",
"258 -446 OFFCURVE",
"330 -289 CURVE SMOOTH",
"382 -180 OFFCURVE",
"398 -78 OFFCURVE",
"398 136 CURVE SMOOTH",
"398 1069 LINE",
"365 1069 LINE",
"18 974 LINE",
"18 927 LINE",
"152 873 LINE",
"152 -94 LINE",
"152 -310 OFFCURVE",
"114 -411 OFFCURVE",
"38 -411 CURVE SMOOTH",
"-6 -411 OFFCURVE",
"-31 -380 OFFCURVE",
"-68 -284 CURVE SMOOTH",
"-96 -214 OFFCURVE",
"-123 -190 OFFCURVE",
"-173 -190 CURVE SMOOTH",
"-238 -190 OFFCURVE",
"-279 -237 OFFCURVE",
"-279 -312 CURVE SMOOTH",
"-279 -433 OFFCURVE",
"-166 -515 OFFCURVE",
"2 -515 CURVE SMOOTH"
);
},
{
closed = 1;
nodes = (
"366 1217 OFFCURVE",
"413 1299 OFFCURVE",
"413 1379 CURVE SMOOTH",
"413 1466 OFFCURVE",
"360 1544 OFFCURVE",
"273 1544 CURVE SMOOTH",
"187 1544 OFFCURVE",
"135 1466 OFFCURVE",
"135 1379 CURVE SMOOTH",
"135 1299 OFFCURVE",
"183 1217 OFFCURVE",
"273 1217 CURVE SMOOTH"
);
}
);
width = 522;
},
{
associatedMasterId = "FA6D65B5-4623-4FAC-A199-3F662257AC29";
layerId = "CBD44848-52BD-4DC5-BFA6-577546B7224D";
paths = (
{
closed = 1;
nodes = (
"93 -515 OFFCURVE",
"227 -425 OFFCURVE",
"318 -260 CURVE SMOOTH",
"375 -154 OFFCURVE",
"383 -81 OFFCURVE",
"383 307 CURVE SMOOTH",
"383 1069 LINE",
"366 1069 LINE",
"50 974 LINE",
"50 945 LINE",
"196 892 LINE",
"196 -94 LINE SMOOTH",
"196 -314 OFFCURVE",
"143 -421 OFFCURVE",
"31 -421 CURVE SMOOTH",
"-18 -421 OFFCURVE",
"-39 -401 OFFCURVE",
"-68 -325 CURVE SMOOTH",
"-89 -265 OFFCURVE",
"-120 -234 OFFCURVE",
"-176 -234 CURVE SMOOTH",
"-242 -234 OFFCURVE",
"-283 -279 OFFCURVE",
"-283 -352 CURVE SMOOTH",
"-283 -454 OFFCURVE",
"-200 -515 OFFCURVE",
"-66 -515 CURVE SMOOTH"
);
},
{
closed = 1;
nodes = (
"364 1289 OFFCURVE",
"417 1341 OFFCURVE",
"417 1416 CURVE SMOOTH",
"417 1490 OFFCURVE",
"364 1544 OFFCURVE",
"289 1544 CURVE SMOOTH",
"214 1544 OFFCURVE",
"162 1490 OFFCURVE",
"162 1416 CURVE SMOOTH",
"162 1341 OFFCURVE",
"214 1289 OFFCURVE",
"289 1289 CURVE SMOOTH"
);
}
);
width = 554;
},
{
layerId = "7C8D72FA-6E62-4564-8BB2-D9F9BC4EB15A";
paths = (
{
closed = 1;
nodes = (
"86 -515 OFFCURVE",
"192 -427 OFFCURVE",
"264 -264 CURVE SMOOTH",
"311 -158 OFFCURVE",
"318 -81 OFFCURVE",
"318 284 CURVE SMOOTH",
"318 1069 LINE",
"303 1069 LINE",
"37 974 LINE",
"37 943 LINE",
"156 890 LINE",
"156 -94 LINE SMOOTH",
"156 -314 OFFCURVE",
"114 -420 OFFCURVE",
"26 -420 CURVE SMOOTH",
"-13 -420 OFFCURVE",
"-31 -397 OFFCURVE",
"-56 -320 CURVE SMOOTH",
"-74 -258 OFFCURVE",
"-99 -228 OFFCURVE",
"-146 -228 CURVE SMOOTH",
"-199 -228 OFFCURVE",
"-234 -273 OFFCURVE",
"-234 -347 CURVE SMOOTH",
"-234 -450 OFFCURVE",
"-162 -515 OFFCURVE",
"-45 -515 CURVE SMOOTH"
);
},
{
closed = 1;
nodes = (
"302 1279 OFFCURVE",
"345 1336 OFFCURVE",
"345 1412 CURVE SMOOTH",
"345 1487 OFFCURVE",
"300 1544 OFFCURVE",
"237 1544 CURVE SMOOTH",
"173 1544 OFFCURVE",
"131 1487 OFFCURVE",
"131 1412 CURVE SMOOTH",
"131 1336 OFFCURVE",
"172 1279 OFFCURVE",
"237 1279 CURVE SMOOTH"
);
}
);
width = 454;
}
);
leftKerningGroup = j;
rightKerningGroup = j;
unicode = 006A;
},
{
glyphname = dotlessj;
layers = (
{
anchors = (
{
name = top;
position = "{269, 1289}";
}
);
layerId = "FA6D65B5-4623-4FAC-A199-3F662257AC29";
paths = (
{
closed = 1;
nodes = (
"157 -515 OFFCURVE",
"258 -446 OFFCURVE",
"330 -289 CURVE SMOOTH",
"382 -180 OFFCURVE",
"398 -78 OFFCURVE",
"398 136 CURVE SMOOTH",
"398 1069 LINE",
"365 1069 LINE",
"18 974 LINE",
"18 927 LINE",
"152 873 LINE",
"152 -94 LINE SMOOTH",
"152 -310 OFFCURVE",
"114 -411 OFFCURVE",
"38 -411 CURVE SMOOTH",
"-6 -411 OFFCURVE",
"-31 -380 OFFCURVE",
"-68 -284 CURVE SMOOTH",
"-96 -214 OFFCURVE",
"-123 -190 OFFCURVE",
"-173 -190 CURVE SMOOTH",
"-238 -190 OFFCURVE",
"-279 -237 OFFCURVE",
"-279 -312 CURVE SMOOTH",
"-279 -433 OFFCURVE",
"-166 -515 OFFCURVE",
"2 -515 CURVE SMOOTH"
);
}
);
width = 522;
},
{
anchors = (
{
name = top;
position = "{292, 1289}";
}
);
associatedMasterId = "FA6D65B5-4623-4FAC-A199-3F662257AC29";
layerId = "CBD44848-52BD-4DC5-BFA6-577546B7224D";
paths = (
{
closed = 1;
nodes = (
"93 -515 OFFCURVE",
"227 -425 OFFCURVE",
"318 -260 CURVE SMOOTH",
"375 -154 OFFCURVE",
"383 -81 OFFCURVE",
"383 307 CURVE SMOOTH",
"383 1069 LINE",
"366 1069 LINE",
"50 974 LINE",
"50 945 LINE",
"196 892 LINE",
"196 -94 LINE SMOOTH",
"196 -314 OFFCURVE",
"143 -421 OFFCURVE",
"31 -421 CURVE SMOOTH",
"-18 -421 OFFCURVE",
"-39 -401 OFFCURVE",
"-68 -325 CURVE SMOOTH",
"-89 -265 OFFCURVE",
"-120 -234 OFFCURVE",
"-176 -234 CURVE SMOOTH",
"-242 -234 OFFCURVE",
"-283 -279 OFFCURVE",
"-283 -352 CURVE SMOOTH",
"-283 -454 OFFCURVE",
"-200 -515 OFFCURVE",
"-66 -515 CURVE SMOOTH"
);
}
);
width = 554;
},
{
anchors = (
{
name = top;
position = "{238, 1289}";
}
);
layerId = "7C8D72FA-6E62-4564-8BB2-D9F9BC4EB15A";
paths = (
{
closed = 1;
nodes = (
"86 -515 OFFCURVE",
"192 -427 OFFCURVE",
"264 -264 CURVE SMOOTH",
"311 -158 OFFCURVE",
"318 -81 OFFCURVE",
"318 284 CURVE SMOOTH",
"318 1069 LINE",
"303 1069 LINE",
"37 974 LINE",
"37 943 LINE",
"156 890 LINE",
"156 -94 LINE SMOOTH",
"156 -314 OFFCURVE",
"114 -420 OFFCURVE",
"26 -420 CURVE SMOOTH",
"-13 -420 OFFCURVE",
"-31 -397 OFFCURVE",
"-56 -320 CURVE SMOOTH",
"-74 -258 OFFCURVE",
"-99 -228 OFFCURVE",
"-146 -228 CURVE SMOOTH",
"-199 -228 OFFCURVE",
"-234 -273 OFFCURVE",
"-234 -347 CURVE SMOOTH",
"-234 -450 OFFCURVE",
"-162 -515 OFFCURVE",
"-45 -515 CURVE SMOOTH"
);
}
);
width = 454;
}
);
leftKerningGroup = j;
rightKerningGroup = j;
unicode = 0237;
},
{
glyphname = k;
layers = (
{
anchors = (
{
name = bottom;
position = "{606, 0}";
}
);
layerId = "FA6D65B5-4623-4FAC-A199-3F662257AC29";
paths = (
{
closed = 1;
nodes = (
"542 0 LINE",
"542 70 LINE",
"403 109 LINE",
"403 1643 LINE",
"369 1643 LINE",
"23 1546 LINE",
"23 1500 LINE",
"158 1447 LINE",
"158 109 LINE",
"23 70 LINE",
"23 0 LINE"
);
},
{
closed = 1;
nodes = (
"1080 0 LINE",
"1080 70 LINE",
"950 109 LINE",
"627 740 LINE",
"482 495 LINE",
"712 0 LINE"
);
},
{
closed = 1;
nodes = (
"786 867 LINE SMOOTH",
"838 933 OFFCURVE",
"861 953 OFFCURVE",
"1001 980 CURVE",
"1001 1049 LINE",
"565 1049 LINE",
"565 980 LINE",
"673 966 OFFCURVE",
"702 956 OFFCURVE",
"702 933 CURVE SMOOTH",
"702 917 OFFCURVE",
"687 895 OFFCURVE",
"662 861 CURVE SMOOTH",
"322 413 LINE",
"357 318 LINE"
);
}
);
width = 1053;
},
{
anchors = (
{
name = bottom;
position = "{646, 0}";
}
);
associatedMasterId = "FA6D65B5-4623-4FAC-A199-3F662257AC29";
layerId = "CBD44848-52BD-4DC5-BFA6-577546B7224D";
paths = (
{
closed = 1;
nodes = (
"526 0 LINE",
"526 39 LINE",
"378 70 LINE",
"378 1643 LINE",
"359 1643 LINE",
"52 1546 LINE",
"52 1520 LINE",
"196 1466 LINE",
"196 70 LINE",
"45 39 LINE",
"45 0 LINE"
);
},
{
closed = 1;
nodes = (
"1211 0 LINE",
"1211 39 LINE",
"1044 70 LINE",
"556 656 LINE",
"438 520 LINE",
"865 0 LINE"
);
},
{
closed = 1;
nodes = (
"797 896 LINE SMOOTH",
"857 966 OFFCURVE",
"887 980 OFFCURVE",
"1047 1010 CURVE",
"1047 1049 LINE",
"603 1049 LINE",
"603 1010 LINE",
"721 995 OFFCURVE",
"750 985 OFFCURVE",
"750 962 CURVE SMOOTH",
"750 945 OFFCURVE",
"737 922 OFFCURVE",
"708 890 CURVE SMOOTH",
"322 454 LINE",
"334 359 LINE"
);
}
);
width = 1131;
},
{
anchors = (
{
name = bottom;
position = "{529, 0}";
}
);
layerId = "7C8D72FA-6E62-4564-8BB2-D9F9BC4EB15A";
paths = (
{
closed = 1;
nodes = (
"437 0 LINE",
"437 44 LINE",
"316 75 LINE",
"316 1643 LINE",
"298 1643 LINE",
"38 1546 LINE",
"38 1518 LINE",
"157 1464 LINE",
"157 75 LINE",
"34 44 LINE",
"34 0 LINE"
);
},
{
closed = 1;
nodes = (
"984 0 LINE",
"984 44 LINE",
"851 75 LINE",
"470 668 LINE",
"367 517 LINE",
"694 0 LINE"
);
},
{
closed = 1;
nodes = (
"658 892 LINE SMOOTH",
"706 962 OFFCURVE",
"729 976 OFFCURVE",
"859 1005 CURVE",
"859 1049 LINE",
"494 1049 LINE",
"494 1005 LINE",
"590 991 OFFCURVE",
"614 981 OFFCURVE",
"614 958 CURVE SMOOTH",
"614 942 OFFCURVE",
"602 919 OFFCURVE",
"579 887 CURVE SMOOTH",
"266 448 LINE",
"279 354 LINE"
);
}
);
width = 925;
}
);
leftKerningGroup = h;
rightKerningGroup = k;
unicode = 006B;
},
{
glyphname = kgreenlandic;
layers = (
{
layerId = "FA6D65B5-4623-4FAC-A199-3F662257AC29";
paths = (
{
closed = 1;
nodes = (
"559 0 LINE",
"559 70 LINE",
"422 109 LINE",
"422 1069 LINE",
"387 1069 LINE",
"42 972 LINE",
"42 927 LINE",
"176 873 LINE",
"176 109 LINE",
"42 70 LINE",
"42 0 LINE"
);
},
{
closed = 1;
nodes = (
"1097 0 LINE",
"1097 70 LINE",
"968 109 LINE",
"645 740 LINE",
"501 495 LINE",
"730 0 LINE"
);
},
{
closed = 1;
nodes = (
"803 867 LINE SMOOTH",
"856 933 OFFCURVE",
"878 953 OFFCURVE",
"1018 980 CURVE",
"1018 1049 LINE",
"583 1049 LINE",
"583 980 LINE",
"691 966 OFFCURVE",
"719 956 OFFCURVE",
"719 933 CURVE SMOOTH",
"719 917 OFFCURVE",
"706 895 OFFCURVE",
"680 861 CURVE SMOOTH",
"339 413 LINE",
"374 318 LINE"
);
}
);
width = 1070;
},
{
associatedMasterId = "FA6D65B5-4623-4FAC-A199-3F662257AC29";
layerId = "CBD44848-52BD-4DC5-BFA6-577546B7224D";
paths = (
{
closed = 1;
nodes = (
"542 0 LINE",
"542 39 LINE",
"394 70 LINE",
"394 1069 LINE",
"374 1069 LINE",
"68 972 LINE",
"68 945 LINE",
"212 892 LINE",
"212 70 LINE",
"62 39 LINE",
"62 0 LINE"
);
},
{
closed = 1;
nodes = (
"1226 0 LINE",
"1226 39 LINE",
"1061 70 LINE",
"572 656 LINE",
"454 520 LINE",
"881 0 LINE"
);
},
{
closed = 1;
nodes = (
"813 896 LINE SMOOTH",
"873 966 OFFCURVE",
"903 980 OFFCURVE",
"1063 1010 CURVE",
"1063 1049 LINE",
"620 1049 LINE",
"620 1010 LINE",
"737 995 OFFCURVE",
"766 985 OFFCURVE",
"766 962 CURVE SMOOTH",
"766 945 OFFCURVE",
"752 922 OFFCURVE",
"724 890 CURVE SMOOTH",
"339 454 LINE",
"351 359 LINE"
);
}
);
width = 1147;
},
{
layerId = "7C8D72FA-6E62-4564-8BB2-D9F9BC4EB15A";
paths = (
{
closed = 1;
nodes = (
"450 0 LINE",
"450 44 LINE",
"329 75 LINE",
"329 1069 LINE",
"311 1069 LINE",
"53 972 LINE",
"53 943 LINE",
"170 890 LINE",
"170 75 LINE",
"49 44 LINE",
"49 0 LINE"
);
},
{
closed = 1;
nodes = (
"997 0 LINE",
"997 44 LINE",
"864 75 LINE",
"482 668 LINE",
"382 517 LINE",
"707 0 LINE"
);
},
{
closed = 1;
nodes = (
"670 892 LINE SMOOTH",
"719 962 OFFCURVE",
"743 976 OFFCURVE",
"872 1005 CURVE",
"872 1049 LINE",
"507 1049 LINE",
"507 1005 LINE",
"602 991 OFFCURVE",
"627 981 OFFCURVE",
"627 958 CURVE SMOOTH",
"627 942 OFFCURVE",
"615 919 OFFCURVE",
"592 887 CURVE SMOOTH",
"280 448 LINE",
"293 354 LINE"
);
}
);
width = 938;
}
);
leftMetricsKey = n;
unicode = 0138;
},
{
glyphname = l;
layers = (
{
anchors = (
{
name = bottom;
position = "{287, 0}";
},
{
name = topcap;
position = "{283, 1696}";
}
);
layerId = "FA6D65B5-4623-4FAC-A199-3F662257AC29";
paths = (
{
closed = 1;
nodes = (
"534 0 LINE",
"534 70 LINE",
"406 109 LINE",
"406 1643 LINE",
"373 1643 LINE",
"26 1548 LINE",
"26 1500 LINE",
"162 1447 LINE",
"162 109 LINE",
"26 70 LINE",
"26 0 LINE"
);
}
);
width = 564;
},
{
anchors = (
{
name = bottom;
position = "{286, 0}";
},
{
name = topcap;
position = "{286, 1696}";
}
);
associatedMasterId = "FA6D65B5-4623-4FAC-A199-3F662257AC29";
layerId = "CBD44848-52BD-4DC5-BFA6-577546B7224D";
paths = (
{
closed = 1;
nodes = (
"532 0 LINE",
"532 39 LINE",
"383 70 LINE",
"383 1643 LINE",
"365 1643 LINE",
"48 1549 LINE",
"48 1520 LINE",
"195 1467 LINE",
"195 70 LINE",
"45 39 LINE",
"45 0 LINE"
);
}
);
width = 577;
},
{
anchors = (
{
name = bottom;
position = "{284, 0}";
},
{
name = topcap;
position = "{284, 1696}";
}
);
associatedMasterId = "FA6D65B5-4623-4FAC-A199-3F662257AC29";
layerId = "49171B4C-9787-4E4D-BDE1-9BE5B70CD83A";
name = "Nov 19 18, 13:46";
paths = (
{
closed = 1;
nodes = (
"515 0 LINE",
"515 37 LINE",
"378 68 LINE",
"378 1643 LINE",
"360 1643 LINE",
"58 1546 LINE",
"58 1520 LINE",
"196 1468 LINE",
"196 68 LINE",
"58 37 LINE",
"58 0 LINE"
);
}
);
width = 572;
},
{
anchors = (
{
name = bottom;
position = "{237, 0}";
},
{
name = topcap;
position = "{236, 1696}";
}
);
layerId = "7C8D72FA-6E62-4564-8BB2-D9F9BC4EB15A";
paths = (
{
closed = 1;
nodes = (
"440 0 LINE",
"440 44 LINE",
"320 75 LINE",
"320 1643 LINE",
"303 1643 LINE",
"37 1549 LINE",
"37 1518 LINE",
"157 1465 LINE",
"157 75 LINE",
"35 44 LINE",
"35 0 LINE"
);
}
);
width = 475;
}
);
leftKerningGroup = l;
rightKerningGroup = l;
unicode = 006C;
},
{
glyphname = lacute;
layers = (
{
layerId = "FA6D65B5-4623-4FAC-A199-3F662257AC29";
paths = (
{
closed = 1;
nodes = (
"534 0 LINE",
"534 70 LINE",
"406 109 LINE",
"406 1643 LINE",
"373 1643 LINE",
"26 1548 LINE",
"26 1500 LINE",
"162 1447 LINE",
"162 109 LINE",
"26 70 LINE",
"26 0 LINE"
);
},
{
closed = 1;
nodes = (
"314 1703 LINE SMOOTH",
"396 1732 OFFCURVE",
"421 1769 OFFCURVE",
"421 1815 CURVE SMOOTH",
"421 1864 OFFCURVE",
"388 1900 OFFCURVE",
"353 1900 CURVE SMOOTH",
"327 1900 OFFCURVE",
"306 1891 OFFCURVE",
"284 1868 CURVE SMOOTH",
"56 1656 LINE",
"73 1614 LINE"
);
}
);
width = 564;
},
{
associatedMasterId = "FA6D65B5-4623-4FAC-A199-3F662257AC29";
layerId = "CBD44848-52BD-4DC5-BFA6-577546B7224D";
paths = (
{
closed = 1;
nodes = (
"515 0 LINE",
"515 37 LINE",
"378 68 LINE",
"378 1643 LINE",
"360 1643 LINE",
"58 1546 LINE",
"58 1520 LINE",
"196 1468 LINE",
"196 68 LINE",
"58 37 LINE",
"58 0 LINE"
);
},
{
closed = 1;
nodes = (
"375 1703 LINE SMOOTH",
"479 1732 OFFCURVE",
"510 1769 OFFCURVE",
"510 1815 CURVE SMOOTH",
"510 1864 OFFCURVE",
"469 1900 OFFCURVE",
"425 1900 CURVE SMOOTH",
"394 1900 OFFCURVE",
"367 1891 OFFCURVE",
"339 1868 CURVE SMOOTH",
"54 1656 LINE",
"75 1614 LINE"
);
}
);
width = 572;
},
{
layerId = "7C8D72FA-6E62-4564-8BB2-D9F9BC4EB15A";
paths = (
{
closed = 1;
nodes = (
"428 0 LINE",
"428 41 LINE",
"316 73 LINE",
"316 1643 LINE",
"299 1643 LINE",
"43 1546 LINE",
"43 1518 LINE",
"158 1466 LINE",
"158 73 LINE",
"43 41 LINE",
"43 0 LINE"
);
},
{
closed = 1;
nodes = (
"302 1703 LINE SMOOTH",
"385 1732 OFFCURVE",
"410 1769 OFFCURVE",
"410 1815 CURVE SMOOTH",
"410 1864 OFFCURVE",
"377 1900 OFFCURVE",
"342 1900 CURVE SMOOTH",
"317 1900 OFFCURVE",
"296 1891 OFFCURVE",
"273 1868 CURVE SMOOTH",
"45 1656 LINE",
"62 1614 LINE"
);
}
);
width = 472;
}
);
leftKerningGroup = l;
rightKerningGroup = l;
unicode = 013A;
},
{
glyphname = lslash;
layers = (
{
components = (
{
name = l;
transform = "{1, 0, 0, 1, 5, 0}";
}
);
layerId = "FA6D65B5-4623-4FAC-A199-3F662257AC29";
paths = (
{
closed = 1;
nodes = (
"540 895 LINE",
"540 1082 LINE",
"46 754 LINE",
"46 565 LINE"
);
}
);
width = 570;
},
{
associatedMasterId = "FA6D65B5-4623-4FAC-A199-3F662257AC29";
components = (
{
name = l;
transform = "{1, 0, 0, 1, 6, 0}";
}
);
layerId = "CBD44848-52BD-4DC5-BFA6-577546B7224D";
paths = (
{
closed = 1;
nodes = (
"557 886 LINE",
"557 1013 LINE",
"37 735 LINE",
"37 606 LINE"
);
}
);
width = 590;
},
{
components = (
{
alignment = -1;
name = l;
transform = "{1, 0, 0, 1, 6, 0}";
}
);
layerId = "7C8D72FA-6E62-4564-8BB2-D9F9BC4EB15A";
paths = (
{
closed = 1;
nodes = (
"458 887 LINE",
"458 1023 LINE",
"32 737 LINE",
"32 601 LINE"
);
}
);
width = 485;
}
);
leftKerningGroup = l;
rightKerningGroup = l;
unicode = 0142;
},
